<svg width="341" height="167" viewBox="0 0 341 167" fill="none" xmlns="http://www.w3.org/2000/svg">
<g filter="url(#filter0_d_5013_6929)">
<path d="M66.7734 38.136V31.928H52.8214V29.432H70.8054V38.136H66.7734ZM60.5654 28.824V21.048H54.3574V18.552H60.5654V12.344H64.5974V28.824H60.5654ZM66.7734 28.824V12.344H70.8054V28.824H66.7734ZM46.6134 27.256V12.344H50.6454V24.76H59.9574V27.256H46.6134ZM73.7049 38.136V29.432H77.7689V35.64H93.2889V38.136H73.7049ZM73.7049 28.824V26.328H93.2889V28.824H73.7049ZM73.7049 25.72V23.224H75.2729V21.656H76.8089V20.12H78.3769V18.552H79.9129V17.016H81.4809V12.344H85.5129V17.016H87.0809V18.552H88.6169V20.12H90.1849V21.656H91.7209V23.224H93.2889V25.72H89.2249V24.152H87.6889V22.616H86.1209V21.048H84.5849V19.512H82.4089V21.048H80.8729V22.616H79.3049V24.152H77.7689V25.72H73.7049ZM105.519 36.536V25.688H96.2071V23.192H105.519V14.808H96.2071V12.344H109.583V36.536H105.519ZM111.727 36.536V12.344H115.791V21.656H117.935V12.344H121.999V36.536H117.935V24.12H115.791V36.536H111.727ZM124.956 36.536V34.072H126.524V32.504H128.06V30.968H129.628V29.4H131.164V12.344H135.196V29.4H136.764V30.968H138.3V32.504H139.868V34.072H141.404V36.536H137.372V35H135.836V33.432H134.268V31.896H132.092V33.432H130.556V35H128.988V36.536H124.956ZM142.044 36.536V12.344H146.076V36.536H142.044ZM252.879 38.136V36.568H251.311V30.968H252.879V29.432H267.791V30.968H269.327V36.568H267.791V38.136H252.879ZM265.295 35.64V31.928H255.375V35.64H265.295ZM265.295 28.824V12.344H269.327V18.552H273.999V21.048H269.327V28.824H265.295ZM248.207 27.256V12.344H263.119V14.84H252.271V24.76H264.687V27.256H248.207ZM280.003 38.136V29.432H298.019V38.136H280.003ZM293.987 35.64V31.928H284.067V35.64H293.987ZM275.363 28.824V26.328H276.899V24.76H278.467V23.224H280.003V21.656H281.571V17.944H275.363V15.448H291.811V17.944H285.603V21.656H287.171V23.224H288.707V24.76H290.275V26.328H291.811V28.824H287.779V27.256H286.211V25.72H284.675V24.152H282.499V25.72H280.963V27.256H279.395V28.824H275.363ZM293.987 28.824V22.616H287.779V20.12H293.987V12.344H298.019V28.824H293.987ZM276.899 14.84V12.344H290.275V14.84H276.899ZM300.668 36.568V29.432H304.7V36.568H300.668ZM300.668 27.256V13.912H304.7V27.256H300.668Z" fill="#1F578B"/>
<path d="M158.421 33.432V30.936H166.165V24.12H158.421V21.624H166.165V16.344H158.421V13.848H170.197V33.432H158.421ZM172.828 31.832V13.848H184.604V31.832H172.828ZM180.572 29.368V16.312H176.86V29.368H180.572ZM190.53 38.136V29.432H194.594V35.64H208.546V38.136H190.53ZM204.514 30.36V12.344H208.546V20.12H213.218V22.616H208.546V30.36H204.514ZM187.426 27.256V12.344H202.338V27.256H187.426ZM198.306 24.76V14.84H191.49V24.76H198.306ZM216.117 38.136V29.432H220.149V35.64H235.669V38.136H216.117ZM220.757 31.928V27.256H214.549V24.76H230.997V27.256H224.789V31.928H220.757ZM231.637 30.36V19.512H229.461V21.048H227.893V22.616H226.357V24.152H217.653V22.616H216.117V21.048H214.549V15.448H216.117V13.912H217.653V12.344H226.357V13.912H227.893V15.448H229.461V17.016H231.637V12.344H235.669V30.36H231.637ZM223.861 21.656V20.12H225.429V16.408H223.861V14.84H220.149V16.408H218.581V20.12H220.149V21.656H223.861Z" fill="black"/>
</g>
<g clip-path="url(#clip0_5013_6929)">
<path d="M90.9256 69.568V66.464H87.8216V65.216H96.0456V66.464H92.9416V69.568H90.9256ZM96.3656 68.784V56.672H98.3816V68.784H96.3656ZM93.2616 64.912V61.808H87.8216V60.56H93.2616V57.92H87.8216V56.672H95.2776V64.912H93.2616ZM99.8056 68.768V67.536H109.598V68.768H99.8056ZM99.8056 64.896V63.648H100.59V62.88H101.358V62.096H102.142V61.328H102.91V60.544H103.694V57.904H99.8056V56.672H109.598V57.904H105.71V60.544H106.494V61.328H107.262V62.096H108.046V62.88H108.814V63.648H109.598V64.896H107.566V64.112H106.798V63.344H106.014V62.56H105.246V61.792H104.158V62.56H103.39V63.344H102.606V64.112H101.838V64.896H99.8056ZM115.758 67.216V65.968H119.63V62.56H115.758V61.312H119.63V58.672H115.758V57.424H121.646V67.216H115.758ZM123.009 69.568V65.216H125.041V68.32H132.801V69.568H123.009ZM126.897 67.232V64.912H123.009V63.664H132.801V64.912H128.913V67.232H126.897ZM123.009 62.576V56.672H132.801V62.576H123.009ZM130.769 61.328V57.92H125.041V61.328H130.769ZM134.26 68.768V67.536H135.044V66.752H135.812V65.984H136.596V57.904H134.26V56.672H141.716V57.904H138.612V65.2H139.396V65.984H140.164V66.752H140.948V67.536H141.716V68.768H139.7V68H138.916V67.216H138.148V66.448H137.844V67.216H137.06V68H136.292V68.768H134.26ZM142.02 68.768V63.344H139.7V62.096H142.02V56.672H144.052V68.768H142.02ZM145.124 68.768V56.672H147.156V68.768H145.124ZM148.618 69.568V65.984H156.378V65.68H148.618V64.432H158.41V67.232H150.65V68.32H158.41V69.568H148.618ZM148.618 64.128V62.88H158.41V64.128H148.618ZM148.618 62.576V59.008H156.378V57.92H148.618V56.672H158.41V60.256H150.65V61.328H158.41V62.576H148.618ZM164.618 68.768V67.536H168.506V64.896H164.618V56.672H174.41V64.896H170.522V67.536H174.41V68.768H164.618ZM172.378 63.648V57.904H166.65V63.648H172.378ZM179.709 69.568V66.464H175.821V65.216H185.613V66.464H181.725V69.568H179.709ZM175.821 63.36V56.672H185.613V57.92H177.853V62.112H185.613V63.36H175.821ZM194.973 69.568V68.32H195.757V67.536H196.525V66.768H197.309V66.464H193.421V65.216H203.213V66.464H199.325V66.768H200.109V67.536H200.877V68.32H201.661V69.568H199.629V68.784H198.861V68.016H197.773V68.784H197.005V69.568H194.973ZM200.413 64.912V56.672H202.429V59.776H204.765V61.024H202.429V64.912H200.413ZM191.869 64.128V56.672H199.325V64.128H191.869ZM197.309 62.88V57.92H193.901V62.88H197.309ZM206.983 68.768V68H206.215V67.216H205.431V61.328H206.215V60.544H206.983V59.776H211.335V60.544H212.103V61.328H212.887V67.216H212.103V68H211.335V68.768H206.983ZM213.975 68.768V56.672H215.991V68.768H213.975ZM210.087 67.536V66.752H210.871V61.792H210.087V61.008H208.231V61.792H207.447V66.752H208.231V67.536H210.087ZM205.431 59.456V58.224H212.887V59.456H205.431ZM206.215 57.904V56.672H212.103V57.904H206.215ZM219.015 69.568V68.32H219.799V67.536H220.567V66.768H221.351V65.216H223.367V66.768H224.151V67.536H225.223V66.768H226.007V65.216H228.023V66.768H228.807V67.536H229.575V68.32H230.359V69.568H228.327V68.784H227.559V68.016H226.471V68.784H225.703V69.568H223.671V68.784H222.903V68.016H221.815V68.784H221.047V69.568H219.015ZM217.463 64.912V63.664H218.247V62.88H219.015V62.112H219.799V61.328H220.567V56.672H222.599V61.328H223.367V62.112H224.151V62.88H224.919V63.664H225.703V64.912H223.671V64.128H222.903V63.36H222.119V62.576H221.047V63.36H220.263V64.128H219.495V64.912H217.463ZM226.775 64.912V61.808H223.671V60.56H226.775V59.472H223.671V58.224H226.775V56.672H228.807V64.912H226.775ZM231.057 68.768V56.672H238.513V57.904H233.089V67.536H239.297V68.768H231.057ZM239.601 68.768V56.672H241.617V61.328H243.953V62.56H241.617V68.768H239.601ZM246.954 69.568V65.216H248.986V68.32H255.962V69.568H246.954ZM253.946 65.68V62.576H252.09V64.128H244.634V56.672H252.09V58.224H253.946V56.672H255.962V65.68H253.946ZM250.058 62.88V57.92H246.65V62.88H250.058ZM253.946 61.328V59.472H252.09V61.328H253.946ZM257.303 69.712V68.464H258.071V67.376H257.303V66.128H260.087V68.928H259.319V69.712H257.303ZM7.84575 86.768V74.672H14.5338V86.768H7.84575ZM15.6058 86.768V74.672H17.6378V79.328H18.7098V74.672H20.7418V86.768H18.7098V80.56H17.6378V86.768H15.6058ZM12.5018 85.536V75.904H9.87775V85.536H12.5018ZM23.804 87.568V83.984H30.796V83.68H23.804V82.432H32.812V85.232H25.836V86.32H32.812V87.568H23.804ZM30.796 82.128V74.672H32.812V77.776H35.148V79.024H32.812V82.128H30.796ZM22.252 81.36V74.672H29.708V75.92H24.284V80.112H30.492V81.36H22.252ZM42.1946 87.568V83.984H49.1866V83.68H42.1946V82.432H51.2026V85.232H44.2266V86.32H51.2026V87.568H42.1946ZM49.1866 82.128V74.672H51.2026V77.776H53.5386V79.024H51.2026V82.128H49.1866ZM40.6426 81.36V74.672H48.0986V81.36H40.6426ZM46.0826 80.112V75.92H42.6746V80.112H46.0826ZM55.7564 87.568V83.984H62.7484V83.68H55.7564V82.432H64.7644V85.232H57.7724V86.32H64.7644V87.568H55.7564ZM55.7564 82.128V81.36H54.9884V80.576H54.2044V76.224H54.9884V75.456H55.7564V74.672H60.1084V75.456H60.8764V76.224H61.6604V80.576H60.8764V81.36H60.1084V82.128H55.7564ZM62.7484 82.128V74.672H64.7644V82.128H62.7484ZM58.8604 80.88V80.112H59.6444V76.704H58.8604V75.92H57.0044V76.704H56.2204V80.112H57.0044V80.88H58.8604ZM209.35 86.768V86H208.582V85.216H207.798V76.224H208.582V75.44H209.35V74.672H213.702V75.44H214.47V76.224H215.254V85.216H214.47V86H213.702V86.768H209.35ZM216.342 86.768V74.672H218.358V86.768H216.342ZM212.454 85.536V84.752H213.238V76.688H212.454V75.904H210.598V76.688H209.814V84.752H210.598V85.536H212.454ZM223.718 87.568V83.216H225.734V86.32H232.726V87.568H223.718ZM227.59 83.68V79.024H226.518V82.128H219.83V74.672H221.862V77.008H224.486V74.672H226.518V77.776H227.59V74.672H229.622V83.68H227.59ZM230.694 83.68V74.672H232.726V83.68H230.694ZM224.486 80.88V78.256H221.862V80.88H224.486ZM234.188 86.768V85.536H243.98V86.768H234.188ZM234.188 83.664V74.672H243.98V75.904H236.22V78.544H243.98V79.792H236.22V82.432H243.98V83.664H234.188ZM246.992 86.768V86H246.224V85.216H245.44V76.224H246.224V75.44H246.992V74.672H250.576V75.44H251.344V76.224H252.128V80.096H253.2V74.672H255.232V86.768H253.2V81.344H252.128V85.216H251.344V86H250.576V86.768H246.992ZM256.304 86.768V74.672H258.336V86.768H256.304ZM249.328 85.536V84.752H250.096V76.688H249.328V75.904H248.24V76.688H247.472V84.752H248.24V85.536H249.328ZM265.379 87.568V86.784H264.595V83.984H265.379V83.216H273.603V83.984H274.387V86.784H273.603V87.568H265.379ZM272.355 86.32V84.464H266.627V86.32H272.355ZM264.595 82.128V80.88H274.387V82.128H264.595ZM266.147 80.576V79.808H265.379V79.024H264.595V76.224H265.379V75.456H266.147V74.672H272.835V75.456H273.603V76.224H274.387V79.024H273.603V79.808H272.835V80.576H266.147ZM271.587 79.328V78.56H272.355V76.704H271.587V75.92H267.395V76.704H266.627V78.56H267.395V79.328H271.587ZM275.798 86.768V85.536H279.686V82.896H275.798V74.672H285.59V82.896H281.702V85.536H285.59V86.768H275.798ZM283.558 81.648V75.904H277.83V81.648H283.558ZM288.601 86.768V86H287.817V85.216H287.049V79.328H287.817V78.544H288.601V77.776H292.169V78.544H292.937V79.328H293.721V85.216H292.937V86H292.169V86.768H288.601ZM294.025 86.768V74.672H296.041V79.328H297.129V74.672H299.145V86.768H297.129V80.56H296.041V86.768H294.025ZM290.921 85.536V84.752H291.705V79.792H290.921V79.008H289.833V79.792H289.065V84.752H289.833V85.536H290.921ZM287.049 77.456V76.224H293.721V77.456H287.049ZM287.817 75.904V74.672H292.937V75.904H287.817ZM300.595 86.768V85.536H304.483V82.896H300.595V74.672H302.627V77.776H308.355V74.672H310.387V82.896H306.499V85.536H310.387V86.768H300.595ZM308.355 81.648V79.008H302.627V81.648H308.355ZM311.846 86.768V85.536H312.63V84.752H313.398V83.984H314.182V74.672H316.198V83.2H316.982V83.984H317.75V84.752H318.534V85.536H319.302V86.768H317.286V86H316.502V85.216H315.734V84.448H315.43V85.216H314.646V86H313.878V86.768H311.846ZM319.606 86.768V81.344H317.286V80.096H319.606V74.672H321.638V86.768H319.606ZM322.71 86.768V74.672H324.742V86.768H322.71ZM326.204 86.768V85.536H327.756V82.112H326.988V81.344H326.204V76.224H326.988V75.44H327.756V74.672H334.444V75.44H335.212V76.224H335.996V81.344H335.212V82.112H334.444V85.536H335.996V86.768H326.204ZM332.412 85.536V82.896H329.788V85.536H332.412ZM333.196 81.648V80.88H333.964V76.688H333.196V75.904H329.004V76.688H328.236V80.88H329.004V81.648H333.196ZM337.295 86.784V83.216H339.311V86.784H337.295ZM337.295 82.128V75.456H339.311V82.128H337.295ZM61.2951 105.568V102.464H57.4071V101.216H67.1991V102.464H63.3111V105.568H61.2951ZM57.4071 100.912V99.664H58.1911V98.88H58.9591V98.112H59.7431V97.328H60.5111V96.56H61.2951V95.472H57.4071V94.224H67.1991V95.472H63.3111V96.56H64.0951V97.328H64.8631V98.112H65.6471V98.88H66.4151V99.664H67.1991V100.912H65.1671V100.128H64.3991V99.36H63.6151V98.576H62.8471V97.808H61.7591V98.576H60.9911V99.36H60.2071V100.128H59.4391V100.912H57.4071ZM58.1911 93.92V92.672H66.4151V93.92H58.1911ZM70.9623 105.568V101.216H79.9703V105.568H70.9623ZM77.9543 104.32V102.464H72.9943V104.32H77.9543ZM68.6423 100.912V99.664H69.4103V98.88H70.1943V98.112H70.9623V97.328H71.7463V95.472H68.6423V94.224H76.8663V95.472H73.7623V97.328H74.5463V98.112H75.3143V98.88H76.0983V99.664H76.8663V100.912H74.8503V100.128H74.0663V99.36H73.2983V98.576H72.2103V99.36H71.4423V100.128H70.6583V100.912H68.6423ZM77.9543 100.912V97.808H74.8503V96.56H77.9543V92.672H79.9703V100.912H77.9543ZM69.4103 93.92V92.672H76.0983V93.92H69.4103ZM81.4071 105.568V101.984H89.1671V101.68H81.4071V100.432H91.1991V103.232H83.4391V104.32H91.1991V105.568H81.4071ZM81.4071 100.128V98.88H91.1991V100.128H81.4071ZM82.9591 98.576V97.808H82.1911V97.024H81.4071V94.224H82.1911V93.456H82.9591V92.672H89.6471V93.456H90.4151V94.224H91.1991V97.024H90.4151V97.808H89.6471V98.576H82.9591ZM88.3991 97.328V96.56H89.1671V94.704H88.3991V93.92H84.2071V94.704H83.4391V96.56H84.2071V97.328H88.3991ZM98.1911 105.568V104.784H97.4071V102.768H98.1911V101.984H106.415V102.768H107.199V104.784H106.415V105.568H98.1911ZM105.167 104.32V103.232H99.4391V104.32H105.167ZM97.4071 100.912V99.664H101.295V98.576H97.4071V92.672H107.199V93.92H99.4391V95.008H107.199V96.256H99.4391V97.328H107.199V98.576H103.311V99.664H107.199V100.912H97.4071ZM110.21 104.768V104H109.426V103.216H108.658V97.328H109.426V96.544H110.21V95.776H113.778V96.544H114.546V97.328H115.33V103.216H114.546V104H113.778V104.768H110.21ZM115.634 104.768V92.672H117.65V97.328H118.738V92.672H120.754V104.768H118.738V98.56H117.65V104.768H115.634ZM112.53 103.536V102.752H113.314V97.792H112.53V97.008H111.442V97.792H110.674V102.752H111.442V103.536H112.53ZM108.658 95.456V94.224H115.33V95.456H108.658ZM109.426 93.904V92.672H114.546V93.904H109.426ZM137.129 105.568V102.464H130.153V101.216H139.145V105.568H137.129ZM134.025 100.912V97.024H130.921V95.776H134.025V92.672H136.041V100.912H134.025ZM137.129 100.912V92.672H139.145V100.912H137.129ZM127.049 100.128V92.672H129.065V98.88H133.721V100.128H127.049ZM140.595 105.568V101.216H142.627V104.32H150.387V105.568H140.595ZM140.595 100.912V99.664H150.387V100.912H140.595ZM140.595 99.36V98.112H141.379V97.328H142.147V96.56H142.931V95.776H143.699V95.008H144.483V92.672H146.499V95.008H147.283V95.776H148.051V96.56H148.835V97.328H149.603V98.112H150.387V99.36H148.355V98.576H147.587V97.808H146.803V97.024H146.035V96.256H144.947V97.024H144.179V97.808H143.395V98.576H142.627V99.36H140.595ZM156.502 104.768V99.344H151.846V98.096H156.502V93.904H151.846V92.672H158.534V104.768H156.502ZM159.606 104.768V92.672H161.638V97.328H162.71V92.672H164.742V104.768H162.71V98.56H161.638V104.768H159.606ZM166.22 104.768V103.536H167.004V102.752H167.772V101.984H168.556V101.2H169.324V92.672H171.34V101.2H172.124V101.984H172.892V102.752H173.676V103.536H174.444V104.768H172.428V104H171.66V103.216H170.876V102.448H169.788V103.216H169.02V104H168.236V104.768H166.22ZM174.764 104.768V92.672H176.78V104.768H174.764ZM182.953 103.216V101.968H186.825V98.56H182.953V97.312H186.825V94.672H182.953V93.424H188.841V103.216H182.953ZM190.156 102.416V93.424H196.044V102.416H190.156ZM194.028 101.184V94.656H192.172V101.184H194.028ZM199.007 105.568V101.216H201.039V104.32H208.015V105.568H199.007ZM205.999 101.68V92.672H208.015V96.56H210.351V97.808H208.015V101.68H205.999ZM197.455 100.128V92.672H204.911V100.128H197.455ZM202.895 98.88V93.92H199.487V98.88H202.895ZM211.801 105.568V101.216H213.817V104.32H221.577V105.568H211.801ZM214.121 102.464V100.128H211.017V98.88H219.241V100.128H216.137V102.464H214.121ZM219.561 101.68V96.256H218.473V97.024H217.689V97.808H216.921V98.576H212.569V97.808H211.801V97.024H211.017V94.224H211.801V93.456H212.569V92.672H216.921V93.456H217.689V94.224H218.473V95.008H219.561V92.672H221.577V101.68H219.561ZM215.673 97.328V96.56H216.457V94.704H215.673V93.92H213.817V94.704H213.033V96.56H213.817V97.328H215.673ZM223.001 105.568V101.984H230.761V101.68H223.001V100.432H232.793V103.232H225.033V104.32H232.793V105.568H223.001ZM223.001 100.128V98.88H232.793V100.128H223.001ZM224.553 98.576V97.808H223.785V97.024H223.001V94.224H223.785V93.456H224.553V92.672H231.241V93.456H232.009V94.224H232.793V97.024H232.009V97.808H231.241V98.576H224.553ZM229.993 97.328V96.56H230.761V94.704H229.993V93.92H225.801V94.704H225.033V96.56H225.801V97.328H229.993ZM239.001 104.768V103.536H248.793V104.768H239.001ZM239.001 100.896V92.672H248.793V93.904H241.033V99.648H248.793V100.896H239.001ZM251.772 105.568V100.432H253.788V101.984H258.764V100.432H260.78V105.568H251.772ZM258.764 104.32V103.232H253.788V104.32H258.764ZM250.22 100.128V95.776H255.66V93.92H250.22V92.672H257.676V97.024H252.236V98.88H257.676V100.128H250.22ZM258.764 100.128V92.672H260.78V100.128H258.764ZM262.22 104.768V92.672H264.236V103.536H269.676V104.768H262.22ZM270.764 104.768V92.672H272.78V104.768H270.764ZM274.252 104.768V92.672H281.708V93.904H276.284V103.536H282.492V104.768H274.252ZM282.796 104.768V92.672H284.812V97.328H287.148V98.56H284.812V104.768H282.796ZM287.686 104.784V101.216H289.702V104.784H287.686ZM287.686 100.128V93.456H289.702V100.128H287.686Z" fill="black"/>
<path d="M70.8733 78.112V75.328H72.8893V78.112H70.8733ZM83.5195 87.568V84.464H76.5435V83.216H85.5355V87.568H83.5195ZM80.4155 82.912V79.024H77.3115V77.776H80.4155V74.672H82.4315V82.912H80.4155ZM83.5195 82.912V74.672H85.5355V82.912H83.5195ZM73.4395 82.128V74.672H75.4555V80.88H80.1115V82.128H73.4395ZM86.9853 87.568V83.216H89.0173V86.32H96.7773V87.568H86.9853ZM86.9853 82.912V81.664H96.7773V82.912H86.9853ZM86.9853 81.36V80.112H87.7693V79.328H88.5373V78.56H89.3213V77.776H90.0893V77.008H90.8733V74.672H92.8893V77.008H93.6733V77.776H94.4413V78.56H95.2253V79.328H95.9933V80.112H96.7773V81.36H94.7453V80.576H93.9773V79.808H93.1933V79.024H92.4253V78.256H91.3373V79.024H90.5693V79.808H89.7853V80.576H89.0173V81.36H86.9853ZM102.892 86.768V81.344H98.2364V80.096H102.892V75.904H98.2364V74.672H104.924V86.768H102.892ZM105.996 86.768V74.672H108.028V79.328H109.1V74.672H111.132V86.768H109.1V80.56H108.028V86.768H105.996ZM112.611 86.768V85.536H113.395V84.752H114.163V83.984H114.947V83.2H115.715V74.672H117.731V83.2H118.515V83.984H119.283V84.752H120.067V85.536H120.835V86.768H118.819V86H118.051V85.216H117.267V84.448H116.179V85.216H115.411V86H114.627V86.768H112.611ZM121.155 86.768V74.672H123.171V86.768H121.155ZM129.344 85.216V83.968H133.216V80.56H129.344V79.312H133.216V76.672H129.344V75.424H135.232V85.216H129.344ZM136.547 84.416V75.424H142.435V84.416H136.547ZM140.419 83.184V76.656H138.563V83.184H140.419ZM145.398 87.568V83.216H147.43V86.32H154.406V87.568H145.398ZM152.39 83.68V74.672H154.406V78.56H156.742V79.808H154.406V83.68H152.39ZM143.846 82.128V74.672H151.302V82.128H143.846ZM149.286 80.88V75.92H145.878V80.88H149.286ZM158.192 87.568V83.216H160.208V86.32H167.968V87.568H158.192ZM160.512 84.464V82.128H157.408V80.88H165.632V82.128H162.528V84.464H160.512ZM165.952 83.68V78.256H164.864V79.024H164.08V79.808H163.312V80.576H158.96V79.808H158.192V79.024H157.408V76.224H158.192V75.456H158.96V74.672H163.312V75.456H164.08V76.224H164.864V77.008H165.952V74.672H167.968V83.68H165.952ZM162.064 79.328V78.56H162.848V76.704H162.064V75.92H160.208V76.704H159.424V78.56H160.208V79.328H162.064ZM176.572 87.568V86.784H175.788V83.984H176.572V83.216H184.028V83.984H184.796V86.784H184.028V87.568H176.572ZM182.78 86.32V84.464H177.82V86.32H182.78ZM182.78 82.912V74.672H184.796V77.776H187.132V79.024H184.796V82.912H182.78ZM174.236 82.128V74.672H181.692V75.92H176.268V80.88H182.476V82.128H174.236ZM190.134 87.568V83.216H199.142V87.568H190.134ZM197.126 86.32V84.464H192.166V86.32H197.126ZM187.814 82.912V81.664H188.582V80.88H189.366V80.112H190.134V79.328H190.918V77.472H187.814V76.224H196.038V77.472H192.934V79.328H193.718V80.112H194.486V80.88H195.27V81.664H196.038V82.912H194.022V82.128H193.238V81.36H192.47V80.576H191.382V81.36H190.614V82.128H189.83V82.912H187.814ZM197.126 82.912V79.808H194.022V78.56H197.126V74.672H199.142V82.912H197.126ZM188.582 75.92V74.672H195.27V75.92H188.582ZM200.467 78.112V75.328H202.483V78.112H200.467Z" fill="#1F578B"/>
</g>
<rect y="122" width="62" height="18" rx="9" fill="#1F578B"/>
<rect x="56" y="146" width="79" height="17" rx="8.5" fill="black"/>
<path d="M8.36841 136.372V135.686H7.68241V133.236H8.36841V132.564H15.5644V133.236H16.2504V135.686H15.5644V136.372H8.36841ZM14.4724 135.28V133.656H9.46041V135.28H14.4724ZM7.68241 131.612V130.52H16.2504V131.612H7.68241ZM9.04041 130.254V129.582H8.36841V128.896H7.68241V126.446H8.36841V125.774H9.04041V125.088H14.8924V125.774H15.5644V126.446H16.2504V128.896H15.5644V129.582H14.8924V130.254H9.04041ZM13.8004 129.162V128.49H14.4724V126.866H13.8004V126.18H10.1324V126.866H9.46041V128.49H10.1324V129.162H13.8004ZM17.4851 135.672V134.594H20.8871V132.284H17.4851V125.088H26.0531V132.284H22.6511V134.594H26.0531V135.672H17.4851ZM24.2751 131.192V126.166H19.2631V131.192H24.2751ZM36.2591 135.672V126.166H31.4991V125.088H38.0231V135.672H36.2591ZM38.9751 135.672V125.088H40.7391V135.672H38.9751ZM44.0711 136.372V132.564H45.8351V135.28H51.9531V136.372H44.0711ZM49.5031 132.97V125.088H51.2671V128.49H53.3111V129.582H51.2671V132.97H49.5031ZM46.7871 132.298V126.18H42.0271V125.088H48.5511V132.298H46.7871Z" fill="#FFD70D"/>
<path d="M68.9334 160.372V159.686H68.2474V157.236H68.9334V156.564H75.4574V157.236H76.1294V159.686H75.4574V160.372H68.9334ZM74.3654 159.28V157.656H70.0254V159.28H74.3654ZM74.3654 156.298V149.088H76.1294V151.804H78.1734V152.896H76.1294V156.298H74.3654ZM66.8894 155.612V149.088H73.4134V150.18H68.6674V154.52H74.0994V155.612H66.8894ZM80.8 160.372V156.564H88.682V160.372H80.8ZM86.918 159.28V157.656H82.578V159.28H86.918ZM78.77 156.298V155.206H79.442V154.52H80.128V153.848H80.8V153.162H81.486V151.538H78.77V150.446H85.966V151.538H83.25V153.162H83.936V153.848H84.608V154.52H85.294V155.206H85.966V156.298H84.202V155.612H83.516V154.94H82.844V154.254H81.892V154.94H81.22V155.612H80.534V156.298H78.77ZM86.918 156.298V153.582H84.202V152.49H86.918V149.088H88.682V156.298H86.918ZM79.442 150.18V149.088H85.294V150.18H79.442ZM89.9812 159.672V158.594H90.6672V157.908H91.3392V157.236H92.0252V156.55H92.6972V150.166H89.9812V149.088H97.1912V150.166H94.4752V156.55H95.1472V157.236H95.8332V157.908H96.5052V158.594H97.1912V159.672H95.4132V159H94.7412V158.314H94.0552V157.642H93.1172V158.314H92.4312V159H91.7592V159.672H89.9812ZM97.4572 159.672V149.088H99.2212V153.162H101.265V154.24H99.2212V159.672H97.4572ZM107.431 160.372V157.236H113.549V156.97H107.431V155.878H115.313V158.328H109.209V159.28H115.313V160.372H107.431ZM113.549 155.612V149.088H115.313V151.804H117.357V152.896H115.313V155.612H113.549ZM106.073 154.94V149.088H107.851V151.132H110.833V149.088H112.597V154.94H106.073ZM110.833 153.848V152.224H107.851V153.848H110.833ZM117.926 159.672V158.594H119.284V156.284H117.926V155.192H119.284V150.446H121.062V155.192H123.358V150.446H125.136V155.192H126.494V156.284H125.136V158.594H126.494V159.672H117.926ZM123.358 158.594V156.284H121.062V158.594H123.358ZM117.926 150.166V149.088H126.494V150.166H117.926Z" fill="white"/>
<path d="M69.8455 134.314V131.598H66.4435V125.746H68.2075V130.506H69.8455V125.746H71.6095V130.506H72.9675V131.598H71.6095V134.314H69.8455ZM73.4015 135V132.55H74.0875V130.52H74.7595V128.476H75.4455V125.76H77.2095V128.882H76.5235V130.926H75.8515V132.956H75.1655V135H73.4015ZM78.324 134.314V133.222H81.712V130.24H78.324V129.148H81.712V126.838H78.324V125.746H83.476V134.314H78.324ZM84.6267 133.614V125.746H89.7787V133.614H84.6267ZM88.0147 132.536V126.824H86.3907V132.536H88.0147ZM92.2455 135.672V135H91.5735V133.642H90.8875V127.118H91.5735V125.76H92.2455V125.088H94.0235V126.166H93.3375V127.524H92.6655V133.236H93.3375V134.594H94.0235V135.672H92.2455ZM95.2107 135.672V134.594H97.9267V133.642H96.5687V132.956H95.8967V132.284H95.2107V129.162H95.8967V128.476H96.5687V127.804H100.377V128.476H101.063V129.162H101.735V132.284H101.063V132.956H100.377V133.642H99.7047V134.594H102.421V135.672H95.2107ZM102.687 135.672V125.088H104.451V129.834H106.495V130.926H104.451V135.672H102.687ZM99.2847 132.55V131.878H99.9707V129.568H99.2847V128.882H97.6607V129.568H96.9887V131.878H97.6607V132.55H99.2847ZM95.2107 127.524V126.446H101.735V127.524H95.2107ZM95.8967 126.166V125.088H101.063V126.166H95.8967ZM106.979 135.672V134.594H107.665V133.236H108.337V127.524H107.665V126.166H106.979V125.088H108.757V125.76H109.429V127.118H110.115V133.642H109.429V135H108.757V135.672H106.979ZM111.177 136.498V135.406H111.849V134.454H111.177V133.362H113.613V135.812H112.941V136.498H111.177ZM118.219 134.314V133.222H121.607V130.24H118.219V125.746H123.371V126.838H119.983V129.148H123.371V134.314H118.219ZM124.493 135V132.55H125.179V130.52H125.851V128.476H126.537V125.76H128.301V128.882H127.615V130.926H126.943V132.956H126.257V135H124.493ZM129.416 134.314V133.222H132.804V130.24H129.416V129.148H132.804V126.838H129.416V125.746H134.568V134.314H129.416ZM136.363 134.314V125.746H138.127V134.314H136.363ZM141.232 135.672V135H140.56V133.642H139.874V127.118H140.56V125.76H141.232V125.088H143.01V126.166H142.324V127.524H141.652V133.236H142.324V134.594H143.01V135.672H141.232ZM144.155 136.372V132.564H152.723V136.372H144.155ZM150.945 135.28V133.656H145.933V135.28H150.945ZM144.155 131.612V130.52H152.723V131.612H144.155ZM150.945 130.254V126.18H144.155V125.088H152.723V130.254H150.945ZM153.874 135.672V134.594H154.56V133.236H155.232V127.524H154.56V126.166H153.874V125.088H155.652V125.76H156.324V127.118H157.01V133.642H156.324V135H155.652V135.672H153.874ZM158.071 136.498V135.406H158.743V134.454H158.071V133.362H160.507V135.812H159.835V136.498H158.071ZM165.113 134.314V125.746H169.593V126.838H166.877V129.148H170.265V134.314H165.113ZM168.501 133.222V130.24H166.877V133.222H168.501ZM171.388 135V132.55H172.074V130.52H172.746V128.476H173.432V125.76H175.196V128.882H174.51V130.926H173.838V132.956H173.152V135H171.388ZM176.31 134.314V133.222H179.698V130.24H176.31V129.148H179.698V126.838H176.31V125.746H181.462V134.314H176.31ZM182.613 133.614V125.746H187.765V133.614H182.613ZM186.001 132.536V126.824H184.377V132.536H186.001ZM190.232 135.672V135H189.56V133.642H188.874V127.118H189.56V125.76H190.232V125.088H192.01V126.166H191.324V127.524H190.652V133.236H191.324V134.594H192.01V135.672H190.232ZM194.527 136.372V133.236H200.645V132.97H194.527V131.878H202.409V134.328H196.291V135.28H202.409V136.372H194.527ZM194.527 131.612V130.94H193.855V130.254H193.169V126.446H193.855V125.774H194.527V125.088H198.335V125.774H199.007V126.446H199.693V130.254H199.007V130.94H198.335V131.612H194.527ZM200.645 131.612V125.088H202.409V131.612H200.645ZM197.243 130.52V129.848H197.929V126.866H197.243V126.18H195.619V126.866H194.933V129.848H195.619V130.52H197.243ZM203.571 135.672V134.594H204.257V133.236H204.929V127.524H204.257V126.166H203.571V125.088H205.349V125.76H206.021V127.118H206.707V133.642H206.021V135H205.349V135.672H203.571ZM212.05 135.672V134.594H215.452V132.284H213.408V131.598H212.736V130.926H212.05V126.446H212.736V125.76H213.408V125.088H219.26V125.76H219.932V126.446H220.618V130.926H219.932V131.598H219.26V132.284H217.216V134.594H220.618V135.672H212.05ZM218.168 131.192V130.52H218.84V126.852H218.168V126.166H214.5V126.852H213.828V130.52H214.5V131.192H218.168ZM223.91 136.372V132.564H225.688V135.28H231.792V136.372H223.91ZM230.028 132.97V128.896H227.312V127.804H230.028V125.088H231.792V132.97H230.028ZM221.88 132.298V131.206H222.552V130.52H223.238V129.848H223.91V129.162H224.596V126.18H221.88V125.088H229.076V126.18H226.36V129.162H227.046V129.848H227.718V130.52H228.404V131.206H229.076V132.298H227.312V131.612H226.626V130.94H225.954V130.254H225.002V130.94H224.33V131.612H223.644V132.298H221.88ZM237.205 133.614V125.746H242.357V133.614H237.205ZM240.593 132.536V126.824H238.969V132.536H240.593ZM243.564 135.672V134.594H244.25V133.908H244.922V133.236H245.608V132.55H246.28V125.088H248.044V132.55H248.73V133.236H249.402V133.908H250.088V134.594H250.76V135.672H248.996V135H248.324V134.314H247.638V133.642H246.686V134.314H246.014V135H245.328V135.672H243.564ZM251.04 135.672V125.088H252.804V135.672H251.04ZM258.247 131.598V130.52H258.933V129.834H259.605V129.162H262.741V129.834H263.413V130.52H264.365V129.834H265.037V129.162H266.815V130.24H266.129V130.926H265.457V131.598H262.321V130.926H261.649V130.24H260.697V130.926H260.025V131.598H258.247ZM272.247 135.672V134.594H275.649V132.284H273.605V131.598H272.933V130.926H272.247V126.446H272.933V125.76H273.605V125.088H279.457V125.76H280.129V126.446H280.815V130.926H280.129V131.598H279.457V132.284H277.413V134.594H280.815V135.672H272.247ZM278.365 131.192V130.52H279.037V126.852H278.365V126.166H274.697V126.852H274.025V130.52H274.697V131.192H278.365ZM285.452 136.372V134.328H282.05V133.236H290.618V134.328H287.216V136.372H285.452ZM284.094 132.97V132.298H283.408V131.612H282.736V129.162H283.408V128.49H284.094V127.804H288.574V128.49H289.26V129.162H289.932V131.612H289.26V132.298H288.574V132.97H284.094ZM287.482 131.878V131.206H288.168V129.582H287.482V128.896H285.186V129.582H284.5V131.206H285.186V131.878H287.482ZM282.05 127.538V126.446H290.618V127.538H282.05ZM282.736 126.18V125.088H289.932V126.18H282.736ZM296.652 134.314V125.746H298.416V134.314H296.652ZM300.849 134.314V125.746H302.613V134.314H300.849ZM304.458 135.672V134.594H305.144V133.908H305.816V133.236H306.502V132.55H307.174V125.088H308.938V132.55H309.624V133.236H310.296V133.908H310.982V134.594H311.654V135.672H309.89V135H309.218V134.314H308.532V133.642H307.58V134.314H306.908V135H306.222V135.672H304.458ZM311.934 135.672V125.088H313.698V135.672H311.934ZM319.099 134.314V133.222H322.487V130.24H319.099V125.746H324.251V126.838H320.863V129.148H324.251V134.314H319.099ZM326.074 134.314V133.222H328.79V130.912H325.402V125.746H330.554V134.314H326.074ZM328.79 129.82V126.838H327.166V129.82H328.79ZM331.747 136.372V132.564H333.525V135.28H340.315V136.372H331.747ZM335.149 134.328V132.298H331.747V131.206H340.315V132.298H336.913V134.328H335.149ZM331.747 130.254V125.088H333.525V126.446H338.537V125.088H340.315V130.254H331.747ZM338.537 129.162V127.538H333.525V129.162H338.537Z" fill="#1F578B"/>
<path d="M144.475 158.314V157.222H147.863V154.24H144.475V149.746H149.627V150.838H146.239V153.148H149.627V158.314H144.475ZM150.75 159V156.55H151.436V154.52H152.108V152.476H152.794V149.76H154.558V152.882H153.872V154.926H153.2V156.956H152.514V159H150.75ZM156.317 158.314V149.746H158.081V158.314H156.317ZM163.286 158.314V155.598H159.884V149.746H161.648V154.506H163.286V149.746H165.05V154.506H166.408V155.598H165.05V158.314H163.286ZM168.186 159.672V159H167.514V157.642H166.828V151.118H167.514V149.76H168.186V149.088H169.964V150.166H169.278V151.524H168.606V157.236H169.278V158.594H169.964V159.672H168.186ZM171.151 159.672V158.594H173.867V157.642H172.509V156.956H171.837V156.284H171.151V153.162H171.837V152.476H172.509V151.804H176.317V152.476H177.003V153.162H177.675V156.284H177.003V156.956H176.317V157.642H175.645V158.594H178.361V159.672H171.151ZM178.627 159.672V149.088H180.391V153.834H182.435V154.926H180.391V159.672H178.627ZM175.225 156.55V155.878H175.911V153.568H175.225V152.882H173.601V153.568H172.929V155.878H173.601V156.55H175.225ZM171.151 151.524V150.446H177.675V151.524H171.151ZM171.837 150.166V149.088H177.003V150.166H171.837ZM182.92 159.672V158.594H183.606V157.236H184.278V151.524H183.606V150.166H182.92V149.088H184.698V149.76H185.37V151.118H186.056V157.642H185.37V159H184.698V159.672H182.92ZM187.117 160.498V159.406H187.789V158.454H187.117V157.362H189.553V159.812H188.881V160.498H187.117ZM194.159 158.314V149.746H198.639V150.838H195.923V153.148H199.311V158.314H194.159ZM197.547 157.222V154.24H195.923V157.222H197.547ZM200.434 159V156.55H201.12V154.52H201.792V152.476H202.478V149.76H204.242V152.882H203.556V154.926H202.884V156.956H202.198V159H200.434ZM206 158.314V149.746H207.764V158.314H206ZM212.969 158.314V155.598H209.567V149.746H211.331V154.506H212.969V149.746H214.733V154.506H216.091V155.598H214.733V158.314H212.969ZM217.869 159.672V159H217.197V157.642H216.511V151.118H217.197V149.76H217.869V149.088H219.647V150.166H218.961V151.524H218.289V157.236H218.961V158.594H219.647V159.672H217.869ZM220.793 160.372V156.564H229.361V160.372H220.793ZM227.583 159.28V157.656H222.571V159.28H227.583ZM220.793 155.612V154.52H229.361V155.612H220.793ZM227.583 154.254V150.18H220.793V149.088H229.361V154.254H227.583ZM230.511 159.672V158.594H231.197V157.236H231.869V151.524H231.197V150.166H230.511V149.088H232.289V149.76H232.961V151.118H233.647V157.642H232.961V159H232.289V159.672H230.511ZM234.709 160.498V159.406H235.381V158.454H234.709V157.362H237.145V159.812H236.473V160.498H234.709ZM244.439 158.314V150.838H241.051V149.746H246.203V158.314H244.439ZM247.328 159V156.55H248.014V154.52H248.686V152.476H249.372V149.76H251.136V152.882H250.45V154.926H249.778V156.956H249.092V159H247.328ZM252.895 158.314V149.746H254.659V158.314H252.895ZM259.864 158.314V155.598H256.462V149.746H258.226V154.506H259.864V149.746H261.628V154.506H262.986V155.598H261.628V158.314H259.864ZM264.764 159.672V159H264.092V157.642H263.406V151.118H264.092V149.76H264.764V149.088H266.542V150.166H265.856V151.524H265.184V157.236H265.856V158.594H266.542V159.672H264.764ZM269.059 160.372V157.236H275.177V156.97H269.059V155.878H276.941V158.328H270.823V159.28H276.941V160.372H269.059ZM269.059 155.612V154.94H268.387V154.254H267.701V150.446H268.387V149.774H269.059V149.088H272.867V149.774H273.539V150.446H274.225V154.254H273.539V154.94H272.867V155.612H269.059ZM275.177 155.612V149.088H276.941V155.612H275.177ZM271.775 154.52V153.848H272.461V150.866H271.775V150.18H270.151V150.866H269.465V153.848H270.151V154.52H271.775ZM278.103 159.672V158.594H278.789V157.236H279.461V151.524H278.789V150.166H278.103V149.088H279.881V149.76H280.553V151.118H281.239V157.642H280.553V159H279.881V159.672H278.103Z" fill="black"/>
<defs>
<filter id="filter0_d_5013_6929" x="46.6134" y="12.344" width="258.087" height="27.792" filterUnits="userSpaceOnUse" color-interpolation-filters="sRGB">
<feFlood flood-opacity="0" result="BackgroundImageFix"/>
<feColorMatrix in="SourceAlpha" type="matrix" values="0 0 0 0 0 0 0 0 0 0 0 0 0 0 0 0 0 0 127 0" result="hardAlpha"/>
<feOffset dy="2"/>
<feComposite in2="hardAlpha" operator="out"/>
<feColorMatrix type="matrix" values="0 0 0 0 1 0 0 0 0 0.6 0 0 0 0 0 0 0 0 0.43 0"/>
<feBlend mode="normal" in2="BackgroundImageFix" result="effect1_dropShadow_5013_6929"/>
<feBlend mode="normal" in="SourceGraphic" in2="effect1_dropShadow_5013_6929" result="shape"/>
</filter>
<clipPath id="clip0_5013_6929">
<rect width="333" height="54" fill="white" transform="translate(7 54)"/>
</clipPath>
</defs>
</svg>
