<svg width="360" height="607" viewBox="0 0 360 607" fill="none" xmlns="http://www.w3.org/2000/svg">
<g filter="url(#filter0_d_2508_11798)">
<rect x="131" y="20" width="98" height="28" rx="14" fill="#FFD900"/>
<path d="M153.304 40.568V36.216H162.312V40.568H153.304ZM160.296 39.32V37.464H155.336V39.32H160.296ZM151.752 35.912V34.664H152.536V33.88H153.304V33.112H154.088V32.328H154.856V30.472H151.752V29.224H159.992V30.472H156.888V32.328H157.656V33.112H158.44V33.88H159.208V34.664H159.992V35.912H157.96V35.128H157.192V34.36H156.408V33.576H155.336V34.36H154.552V35.128H153.784V35.912H151.752ZM160.296 35.912V27.672H162.312V30.776H164.648V32.024H162.312V35.912H160.296ZM152.536 28.92V27.672H159.208V28.92H152.536ZM166.882 39.768V39H166.098V38.216H165.33V29.224H166.098V28.44H166.882V27.672H171.234V28.44H172.002V29.224H172.786V31.544H174.642V27.672H176.658V39.768H174.642V35.896H172.786V38.216H172.002V39H171.234V39.768H166.882ZM169.986 38.536V37.752H170.754V29.688H169.986V28.904H168.13V29.688H167.346V37.752H168.13V38.536H169.986ZM174.642 34.648V32.792H172.786V34.648H174.642ZM185.276 40.568V39.784H184.492V36.984H185.276V36.216H192.732V36.984H193.5V39.784H192.732V40.568H185.276ZM191.484 39.32V37.464H186.524V39.32H191.484ZM191.484 35.912V27.672H193.5V30.776H195.836V32.024H193.5V35.912H191.484ZM182.94 35.128V27.672H184.972V30.008H188.38V27.672H190.396V35.128H182.94ZM188.38 33.88V31.256H184.972V33.88H188.38ZM198.837 40.568V35.432H200.869V36.984H205.829V35.432H207.845V40.568H198.837ZM205.829 39.32V38.232H200.869V39.32H205.829ZM196.517 35.128V27.672H198.533V30.008H201.941V27.672H203.973V30.776H205.829V27.672H207.845V35.128H205.829V32.024H203.973V35.128H196.517ZM201.941 33.88V31.256H198.533V33.88H201.941Z" fill="#00227A"/>
<path d="M186.062 47.5L180 58L173.938 47.5L186.062 47.5Z" fill="#FFD900"/>
</g>
<rect x="10" y="68" width="340" height="117" rx="10" fill="#022177" fill-opacity="0.78"/>
<rect x="11" y="69" width="338" height="115" rx="9" stroke="#00A3FF" stroke-opacity="0.37" stroke-width="2"/>
<rect x="146" y="79" width="68" height="23" rx="11.5" stroke="#FFC000" stroke-width="2"/>
<path d="M160.574 95V93.908H163.962V90.926H161.246V90.24H160.574V85.76H165.726V86.852H162.338V89.834H165.054V90.52H165.726V95H160.574ZM168.921 95V86.852H166.877V85.76H172.729V86.852H170.685V95H168.921ZM173.179 95V85.76H179.031V86.852H174.957V89.834H178.345V90.926H174.957V93.908H178.345V95H173.179ZM179.482 95V85.76H184.634V90.926H183.962V91.598H181.246V95H179.482ZM182.87 90.52V86.852H181.246V90.52H182.87ZM189.285 93.614V85.746H194.437V93.614H189.285ZM192.673 92.536V86.824H191.049V92.536H192.673ZM196.232 94.314V85.746H197.996V94.314H196.232Z" fill="#FFC000"/>
<g opacity="0.4">
<path fill-rule="evenodd" clip-rule="evenodd" d="M189.437 195.846C190.17 195.113 190.17 193.925 189.437 193.193C188.705 192.46 187.517 192.46 186.784 193.193L180.025 199.952L173.265 193.193C172.519 192.446 171.309 192.446 170.563 193.193C169.816 193.939 169.816 195.149 170.563 195.895L178.624 203.957C179.37 204.703 180.578 204.703 181.325 203.959C181.326 203.958 181.326 203.957 181.327 203.957L189.437 195.846Z" fill="#D9D9D9"/>
</g>
<rect x="10" y="207" width="340" height="102" rx="10" fill="#022177" fill-opacity="0.78"/>
<rect x="11" y="208" width="338" height="100" rx="9" stroke="#00A3FF" stroke-opacity="0.37" stroke-width="2"/>
<rect x="145" y="218" width="70" height="23" rx="11.5" stroke="#FFC000" stroke-width="2"/>
<path d="M159.574 234V232.908H162.962V229.926H160.246V229.24H159.574V224.76H164.726V225.852H161.338V228.834H164.054V229.52H164.726V234H159.574ZM167.921 234V225.852H165.877V224.76H171.729V225.852H169.685V234H167.921ZM172.179 234V224.76H178.031V225.852H173.957V228.834H177.345V229.926H173.957V232.908H177.345V234H172.179ZM178.482 234V224.76H183.634V229.926H182.962V230.598H180.246V234H178.482ZM181.87 229.52V225.852H180.246V229.52H181.87ZM188.285 232.614V224.746H193.437V232.614H188.285ZM191.673 231.536V225.824H190.049V231.536H191.673ZM194.588 233.314V228.82H197.976V225.838H194.588V224.746H199.74V229.912H196.352V232.222H199.74V233.314H194.588Z" fill="#FFC000"/>
<g opacity="0.4">
<path fill-rule="evenodd" clip-rule="evenodd" d="M189.437 319.846C190.17 319.113 190.17 317.925 189.437 317.193C188.705 316.46 187.517 316.46 186.784 317.193L180.025 323.952L173.265 317.193C172.519 316.446 171.309 316.446 170.563 317.193C169.816 317.939 169.816 319.149 170.563 319.895L178.624 327.957C179.37 328.703 180.578 328.703 181.325 327.959C181.326 327.958 181.326 327.957 181.327 327.957L189.437 319.846Z" fill="#D9D9D9"/>
</g>
<rect x="10" y="331" width="340" height="117" rx="10" fill="#022177" fill-opacity="0.78"/>
<rect x="11" y="332" width="338" height="115" rx="9" stroke="#00A3FF" stroke-opacity="0.37" stroke-width="2"/>
<rect x="145" y="342" width="70" height="23" rx="11.5" stroke="#FFC000" stroke-width="2"/>
<path d="M159.574 358V356.908H162.962V353.926H160.246V353.24H159.574V348.76H164.726V349.852H161.338V352.834H164.054V353.52H164.726V358H159.574ZM167.921 358V349.852H165.877V348.76H171.729V349.852H169.685V358H167.921ZM172.179 358V348.76H178.031V349.852H173.957V352.834H177.345V353.926H173.957V356.908H177.345V358H172.179ZM178.482 358V348.76H183.634V353.926H182.962V354.598H180.246V358H178.482ZM181.87 353.52V349.852H180.246V353.52H181.87ZM188.285 356.614V348.746H193.437V356.614H188.285ZM191.673 355.536V349.824H190.049V355.536H191.673ZM194.588 357.314V356.222H197.976V353.24H194.588V352.148H197.976V349.838H194.588V348.746H199.74V357.314H194.588Z" fill="#FFC000"/>
<g opacity="0.4">
<path fill-rule="evenodd" clip-rule="evenodd" d="M189.437 458.846C190.17 458.113 190.17 456.925 189.437 456.193C188.705 455.46 187.517 455.46 186.784 456.193L180.025 462.952L173.265 456.193C172.519 455.446 171.309 455.446 170.563 456.193C169.816 456.939 169.816 458.149 170.563 458.895L178.624 466.957C179.37 467.703 180.578 467.703 181.325 466.959C181.326 466.958 181.326 466.957 181.327 466.957L189.437 458.846Z" fill="#D9D9D9"/>
</g>
<g clip-path="url(#clip0_2508_11798)">
<rect x="10" y="470" width="340" height="117" rx="10" fill="#022177" fill-opacity="0.78"/>
<rect x="144.5" y="481" width="71" height="23" rx="11.5" stroke="#FFC000" stroke-width="2"/>
<path d="M159.074 497V495.908H162.462V492.926H159.746V492.24H159.074V487.76H164.226V488.852H160.838V491.834H163.554V492.52H164.226V497H159.074ZM167.421 497V488.852H165.377V487.76H171.229V488.852H169.185V497H167.421ZM171.679 497V487.76H177.531V488.852H173.457V491.834H176.845V492.926H173.457V495.908H176.845V497H171.679ZM177.982 497V487.76H183.134V492.926H182.462V493.598H179.746V497H177.982ZM181.37 492.52V488.852H179.746V492.52H181.37ZM187.785 495.614V487.746H192.937V495.614H187.785ZM191.173 494.536V488.824H189.549V494.536H191.173ZM197.504 496.314V493.598H194.102V487.746H195.866V492.506H197.504V487.746H199.268V492.506H200.626V493.598H199.268V496.314H197.504Z" fill="#FFC000"/>
<path d="M7.12508 467.125L98.7876 466.772L6.7723 558.788L7.12508 467.125Z" fill="#FFC000"/>
<path d="M24.5342 501.655C24.4649 501.744 24.4253 501.783 24.3857 501.823C23.9699 502.239 23.3166 502.239 22.9008 501.823C22.5246 501.447 22.4652 500.873 22.7919 500.467C23.6333 499.427 24.5144 497.774 24.1481 496.537L21.7029 498.982C21.307 499.378 20.6536 499.378 20.2576 498.982C19.8418 498.566 19.8418 497.913 20.2378 497.517L22.8315 494.923L22.5444 494.636C22.1484 494.24 22.188 493.488 22.7028 492.973C23.1978 492.478 23.9303 492.458 24.3263 492.854L24.6134 493.141L27.1873 490.567C27.6228 490.132 28.2564 490.151 28.6722 490.567C29.0682 490.963 29.088 491.597 28.6524 492.032L26.227 494.458C27.4546 494.834 29.1177 493.943 30.1571 493.101C30.563 492.775 31.1372 492.834 31.5133 493.21C31.9291 493.626 31.9291 494.28 31.5133 494.695C31.4737 494.735 31.4342 494.775 31.3451 494.844C29.7215 496.111 27.9495 496.952 26.2864 496.596C26.6428 498.259 25.8013 500.031 24.5342 501.655ZM24.6233 504.04C24.2174 503.635 24.2273 502.951 24.6332 502.546L32.2261 494.953C32.6518 494.527 33.325 494.527 33.7308 494.933C34.1268 495.329 34.1367 496.012 33.711 496.438L30.8006 499.348L32.3647 500.912C32.8696 501.417 32.8696 502.189 32.3647 502.694C31.8598 503.199 31.0877 503.199 30.5828 502.694L29.0187 501.13L26.1181 504.031C25.7122 504.436 25.0193 504.436 24.6233 504.04ZM35.9879 496.2C35.6612 495.873 35.5523 495.368 35.6909 494.953C36.9383 491.25 35.9483 488.538 33.6219 486.211L30.6917 489.142C30.2858 489.548 29.6324 489.548 29.2266 489.142C28.8009 488.716 28.8009 488.063 29.2068 487.657L33.226 483.638C33.612 483.252 34.2258 483.252 34.6119 483.638L35.1564 484.182C37.6807 486.706 39.9279 490.439 37.9975 495.695C37.9282 495.883 37.7797 496.091 37.6312 496.24C37.1759 496.695 36.4334 496.646 35.9879 496.2ZM43.1651 489.914L35.5523 482.301C35.0475 481.796 35.0574 481.014 35.5523 480.519C36.0473 480.024 36.8294 480.014 37.3343 480.519L40.0665 483.252L40.5516 482.766C40.9575 482.361 41.6207 482.351 42.0365 482.766C42.4523 483.182 42.4424 483.845 42.0365 484.251L41.5514 484.736L44.947 488.132C45.4617 488.647 45.4419 489.419 44.947 489.914C44.452 490.409 43.6798 490.429 43.1651 489.914ZM30.2953 522.006L25.9989 517.709C24.6328 516.343 24.9694 514.225 26.4345 512.759C27.8996 511.294 30.028 510.948 31.3941 512.314L35.6905 516.61C37.0567 517.977 36.7003 520.095 35.2351 521.56C33.77 523.025 31.6614 523.372 30.2953 522.006ZM27.86 516.046L31.9584 520.145C32.5029 520.689 33.275 520.59 33.7799 520.085C34.2848 519.58 34.3739 518.818 33.8294 518.273L29.731 514.175C29.1866 513.631 28.4144 513.71 27.9095 514.215C27.4046 514.72 27.3156 515.502 27.86 516.046ZM38.8089 516.897L31.1962 509.285C30.6913 508.78 30.7012 507.998 31.1962 507.503C31.6911 507.008 32.4732 506.998 32.9781 507.503L40.5908 515.116C41.1055 515.63 41.0858 516.402 40.5908 516.897C40.0958 517.392 39.3236 517.412 38.8089 516.897ZM42.3034 507.523L39.3434 510.483C38.9673 510.859 38.3535 510.859 37.9773 510.483L34.1561 506.661C33.6611 506.166 33.6611 505.434 34.1462 504.949C34.6313 504.464 35.3638 504.464 35.8588 504.959L36.532 505.632L37.4526 504.711L36.7795 504.038C36.2845 503.543 36.2845 502.81 36.7696 502.325C37.2546 501.84 37.9872 501.84 38.4822 502.335L39.6404 503.494L40.2443 502.89L38.9277 501.573C38.4525 501.098 38.4624 500.336 38.9277 499.87C39.4127 499.385 40.1651 499.385 40.6403 499.86L45.9266 505.147C46.4117 505.632 46.4018 506.374 45.9167 506.859C45.4514 507.325 44.6991 507.344 44.214 506.859L41.6104 504.256L41.0066 504.86L42.3034 506.157C42.6796 506.533 42.6796 507.146 42.3034 507.523ZM41.9668 513.641L40.4126 512.086C39.9176 511.591 40.0166 510.898 40.5116 510.403C41.0066 509.908 41.6995 509.809 42.1945 510.304L43.2042 511.314L49.3023 505.216C49.6884 504.83 50.3022 504.83 50.6883 505.216C51.0743 505.602 51.0743 506.216 50.6883 506.602L43.6497 513.641C43.2141 514.076 42.4816 514.155 41.9668 513.641ZM46.481 504.87L41.0165 499.405C40.5314 498.92 40.5413 498.158 41.0165 497.683C41.5015 497.197 42.2638 497.188 42.7489 497.673L48.2134 503.137C48.7084 503.632 48.6886 504.385 48.2035 504.87C47.7283 505.345 46.9759 505.365 46.481 504.87ZM39.0168 508.117L39.9374 507.196L38.7792 506.038L37.8585 506.958L39.0168 508.117ZM50.817 504.513C50.4111 504.107 50.4309 503.434 50.8368 503.028L58.4297 495.435C58.8553 495.01 59.5186 495 59.9245 495.406C60.3205 495.802 60.3205 496.475 59.8948 496.9L52.3019 504.493C51.896 504.899 51.2129 504.909 50.817 504.513ZM54.2323 490.604C54.5986 490.971 54.6184 491.584 54.2521 491.951L48.3817 497.821L49.2528 498.692L55.3212 492.624C55.6974 492.248 56.3013 492.277 56.6775 492.654C57.0536 493.03 57.0833 493.634 56.7072 494.01L49.5399 501.177C49.1637 501.553 48.55 501.553 48.1738 501.177L45.9365 498.94C45.5603 498.564 45.5504 497.96 45.9365 497.574L52.9057 490.604C53.272 490.238 53.866 490.238 54.2323 490.604ZM43.8279 495.564L50.9753 488.417C51.3515 488.04 51.9752 488.05 52.3514 488.427C52.7276 488.803 52.7375 489.426 52.3613 489.803L45.2138 496.95C44.8377 497.326 44.214 497.316 43.8378 496.94C43.4616 496.564 43.4517 495.94 43.8279 495.564ZM60.3007 494.198C59.7562 493.653 59.7562 492.743 60.3007 492.198C60.8451 491.654 61.7559 491.654 62.3004 492.198C62.8448 492.743 62.8448 493.653 62.3004 494.198C61.7559 494.742 60.8451 494.742 60.3007 494.198ZM55.5687 485.467L59.6572 489.971C60.1522 490.505 60.0037 491.109 59.6077 491.505C59.2117 491.901 58.6079 492.05 58.0733 491.555L53.569 487.466C53.0344 486.971 53.0344 486.12 53.6284 485.526C54.2224 484.932 55.0737 484.932 55.5687 485.467Z" fill="#113B92"/>
</g>
<rect x="11" y="471" width="338" height="115" rx="9" stroke="#00A3FF" stroke-opacity="0.37" stroke-width="2"/>
<defs>
<filter id="filter0_d_2508_11798" x="131" y="20" width="98" height="45" filterUnits="userSpaceOnUse" color-interpolation-filters="sRGB">
<feFlood flood-opacity="0" result="BackgroundImageFix"/>
<feColorMatrix in="SourceAlpha" type="matrix" values="0 0 0 0 0 0 0 0 0 0 0 0 0 0 0 0 0 0 127 0" result="hardAlpha"/>
<feOffset dy="4"/>
<feComposite in2="hardAlpha" operator="out"/>
<feColorMatrix type="matrix" values="0 0 0 0 1 0 0 0 0 0.66 0 0 0 0 0 0 0 0 1 0"/>
<feBlend mode="normal" in2="BackgroundImageFix" result="effect1_dropShadow_2508_11798"/>
<feBlend mode="normal" in="SourceGraphic" in2="effect1_dropShadow_2508_11798" result="shape"/>
</filter>
<clipPath id="clip0_2508_11798">
<rect x="10" y="470" width="340" height="117" rx="10" fill="white"/>
</clipPath>
</defs>
</svg>
