<svg width="350" height="129" viewBox="0 0 350 129" fill="none" xmlns="http://www.w3.org/2000/svg">
<path d="M19.7735 13.672V13H19.1015V12.314H18.4155V4.446H19.1015V3.76H19.7735V3.088H23.5815V3.76H24.2535V4.446H24.9395V12.314H24.2535V13H23.5815V13.672H19.7735ZM25.8915 13.672V3.088H27.6555V13.672H25.8915ZM22.4895 12.594V11.908H23.1755V4.852H22.4895V4.166H20.8655V4.852H20.1795V11.908H20.8655V12.594H22.4895ZM32.0655 14.372V10.564H33.8295V13.28H39.9475V14.372H32.0655ZM35.4535 10.97V6.896H34.5155V9.612H28.6635V3.088H30.4415V5.132H32.7375V3.088H34.5155V5.804H35.4535V3.088H37.2315V10.97H35.4535ZM38.1695 10.97V3.088H39.9475V10.97H38.1695ZM32.7375 8.52V6.224H30.4415V8.52H32.7375ZM40.9469 13.672V12.594H49.5149V13.672H40.9469ZM40.9469 10.956V3.088H49.5149V4.166H42.7249V6.476H49.5149V7.568H42.7249V9.878H49.5149V10.956H40.9469ZM59.1609 13.672V4.166H54.4009V3.088H60.9249V13.672H59.1609ZM61.8769 13.672V3.088H63.6409V13.672H61.8769ZM66.6929 14.372V10.564H68.4569V13.28H74.5749V14.372H66.6929ZM72.1249 10.97V3.088H73.8889V6.49H75.9329V7.582H73.8889V10.97H72.1249ZM69.4089 10.298V4.18H64.6489V3.088H71.1729V10.298H69.4089ZM80.8247 14.372V13.686H80.1387V11.236H80.8247V10.564H88.0207V11.236H88.7067V13.686H88.0207V14.372H80.8247ZM86.9287 13.28V11.656H81.9167V13.28H86.9287ZM80.1387 9.612V8.52H83.5407V7.582H80.1387V3.088H88.7067V4.18H81.9167V6.49H88.7067V7.582H85.3047V8.52H88.7067V9.612H80.1387ZM91.7475 14.372V10.564H93.5115V13.28H99.6295V14.372H91.7475ZM97.1795 10.97V3.088H98.9435V6.49H100.987V7.582H98.9435V10.97H97.1795ZM91.0615 9.612V8.94H90.3895V8.254H89.7035V4.446H90.3895V3.774H91.0615V3.088H94.8695V3.774H95.5555V4.446H96.2275V8.254H95.5555V8.94H94.8695V9.612H91.0615ZM93.7775 8.52V7.848H94.4635V4.866H93.7775V4.18H92.1535V4.866H91.4815V7.848H92.1535V8.52H93.7775ZM107.923 14.372V11.656H105.207V10.564H112.403V11.656H109.687V14.372H107.923ZM112.683 13.686V3.088H114.447V13.686H112.683ZM109.967 10.298V7.582H105.207V6.49H109.967V4.18H105.207V3.088H111.731V10.298H109.967ZM115.413 13.672V12.594H123.981V13.672H115.413ZM115.413 10.284V9.192H116.099V8.52H116.771V7.834H117.457V7.162H118.129V6.476H118.815V4.166H115.413V3.088H123.981V4.166H120.579V6.476H121.265V7.162H121.937V7.834H122.623V8.52H123.295V9.192H123.981V10.284H122.203V9.598H121.531V8.926H120.845V8.24H120.173V7.568H119.221V8.24H118.549V8.926H117.863V9.598H117.191V10.284H115.413ZM128.853 14.372V11.236H135.643V10.97H128.853V9.878H132.255V8.94H128.853V7.848H137.421V8.94H134.019V9.878H137.421V12.328H130.631V13.28H137.421V14.372H128.853ZM128.853 6.896V5.804H130.211V4.18H128.853V3.088H137.421V4.18H136.063V5.804H137.421V6.896H128.853ZM134.285 5.804V4.18H131.989V5.804H134.285ZM138.376 13.672V12.594H141.092V7.162H142.87V12.594H146.944V13.672H138.376ZM145.166 11.642V4.166H138.376V3.088H146.944V11.642H145.166ZM147.815 14.498V13.406H148.487V12.454H147.815V11.362H150.251V13.812H149.579V14.498H147.815ZM163.201 14.372V11.656H157.097V10.564H164.965V14.372H163.201ZM160.485 10.298V6.896H157.769V5.804H160.485V3.088H162.249V10.298H160.485ZM163.201 10.298V3.088H164.965V10.298H163.201ZM154.381 9.612V3.088H156.145V8.52H160.219V9.612H154.381ZM165.953 14.372V10.564H167.731V13.28H174.521V14.372H165.953ZM165.953 10.298V9.206H174.521V10.298H165.953ZM165.953 8.94V7.848H166.639V7.162H167.311V6.49H167.997V5.804H168.669V5.132H169.355V3.088H171.119V5.132H171.805V5.804H172.477V6.49H173.163V7.162H173.835V7.848H174.521V8.94H172.743V8.254H172.071V7.582H171.385V6.896H170.713V6.224H169.761V6.896H169.089V7.582H168.403V8.254H167.731V8.94H165.953ZM179.592 13.672V8.926H175.518V7.834H179.592V4.166H175.518V3.088H181.37V13.672H179.592ZM182.308 13.672V3.088H184.086V7.162H185.024V3.088H186.802V13.672H185.024V8.24H184.086V13.672H182.308ZM187.815 13.672V12.594H188.501V11.908H189.173V11.236H189.859V10.55H190.531V3.088H192.295V10.55H192.981V11.236H193.653V11.908H194.339V12.594H195.011V13.672H193.247V13H192.575V12.314H191.889V11.642H190.937V12.314H190.265V13H189.579V13.672H187.815ZM195.291 13.672V3.088H197.055V13.672H195.291ZM201.953 13.672V12.594H204.669V9.878H206.433V12.594H209.149V13.672H201.953ZM209.429 13.672V3.088H211.193V13.672H209.429ZM201.953 10.284V9.192H202.639V8.52H203.311V7.834H203.997V7.162H204.669V5.524H201.953V4.446H209.149V5.524H206.433V7.162H207.119V7.834H207.791V8.52H208.477V9.192H209.149V10.284H207.385V9.598H206.713V8.926H206.027V8.24H205.075V8.926H204.403V9.598H203.717V10.284H201.953ZM202.639 4.166V3.088H208.477V4.166H202.639ZM212.201 13.672V3.088H218.053V4.166H213.979V12.594H218.725V13.672H212.201ZM218.991 13.672V3.088H220.769V7.162H221.707V3.088H223.485V13.672H221.707V8.24H220.769V13.672H218.991ZM228.359 12.314V11.222H231.747V8.24H228.359V7.148H231.747V4.838H228.359V3.746H233.511V12.314H228.359ZM234.382 11.614V3.746H239.534V11.614H234.382ZM237.77 10.536V4.824H236.146V10.536H237.77ZM241.847 14.372V10.564H243.625V13.28H249.729V14.372H241.847ZM247.965 10.97V3.088H249.729V6.49H251.773V7.582H249.729V10.97H247.965ZM240.489 9.612V3.088H247.013V9.612H240.489ZM245.249 8.52V4.18H242.267V8.52H245.249ZM255.937 12.314V11.222H259.325V8.24H255.937V7.148H259.325V4.838H255.937V3.746H261.089V12.314H255.937ZM264.059 14.372V10.564H265.837V13.28H271.941V14.372H264.059ZM270.177 10.97V7.582H267.461V6.49H270.177V3.088H271.941V10.97H270.177ZM262.029 10.298V9.206H262.701V8.52H263.387V7.848H264.059V7.162H264.745V5.538H262.029V4.446H269.225V5.538H266.509V7.162H267.195V7.848H267.867V8.52H268.553V9.206H269.225V10.298H267.461V9.612H266.775V8.94H266.103V8.254H265.151V8.94H264.479V9.612H263.793V10.298H262.029ZM262.701 4.18V3.088H268.553V4.18H262.701ZM273.619 14.372V10.564H275.383V13.28H282.173V14.372H273.619ZM275.649 11.656V9.612H272.933V8.52H280.129V9.612H277.413V11.656H275.649ZM280.409 10.97V6.224H279.457V6.896H278.771V7.582H278.099V8.254H274.291V7.582H273.619V6.896H272.933V4.446H273.619V3.774H274.291V3.088H278.099V3.774H278.771V4.446H279.457V5.132H280.409V3.088H282.173V10.97H280.409ZM277.007 7.162V6.49H277.693V4.866H277.007V4.18H275.383V4.866H274.697V6.49H275.383V7.162H277.007ZM294.546 14.358V12.314H288.428V11.236H296.31V14.358H294.546ZM287.07 10.956V9.878H289.786V8.926H288.428V8.24H287.756V7.568H287.07V5.118H287.756V4.852H287.07V3.76H293.594V4.852H292.908V5.118H293.594V7.568H292.908V8.24H292.236V8.926H291.55V9.878H294.266V10.956H287.07ZM294.546 10.956V3.088H296.31V10.956H294.546ZM291.144 7.834V7.162H291.83V5.524H291.144V4.852H289.52V5.524H288.834V7.162H289.52V7.834H291.144ZM287.756 3.494V2.402H292.908V3.494H287.756ZM304.066 14.372V12.328H297.276V11.236H305.844V14.372H304.066ZM297.276 10.298V9.206H305.844V10.298H297.276ZM297.276 8.254V3.088H305.844V4.18H299.054V7.162H305.844V8.254H297.276ZM308.199 13.672V13H307.527V12.314H306.841V7.162H307.527V6.476H308.199V5.804H312.007V6.476H312.693V7.162H313.365V12.314H312.693V13H312.007V13.672H308.199ZM314.317 13.672V3.088H316.081V7.162H318.125V8.24H316.081V13.672H314.317ZM310.915 12.594V11.908H311.601V7.568H310.915V6.882H309.291V7.568H308.619V11.908H309.291V12.594H310.915ZM306.841 5.524V4.446H313.365V5.524H306.841ZM307.527 4.166V3.088H312.693V4.166H307.527ZM318.455 13.672V12.594H319.141V11.908H319.813V11.236H320.499V10.55H321.171V4.166H318.455V3.088H325.665V4.166H322.949V10.55H323.621V11.236H324.307V11.908H324.979V12.594H325.665V13.672H323.887V13H323.215V12.314H322.529V11.642H321.591V12.314H320.905V13H320.233V13.672H318.455ZM325.931 13.672V3.088H327.695V7.162H329.739V8.24H327.695V13.672H325.931ZM329.93 13.686V10.564H331.694V13.686H329.93ZM329.93 9.612V3.774H331.694V9.612H329.93ZM3.84284 32.372V29.656H1.12684V28.564H8.32284V29.656H5.60684V32.372H3.84284ZM8.60284 31.686V21.088H10.3668V31.686H8.60284ZM5.88684 28.298V25.582H1.12684V24.49H5.88684V22.18H1.12684V21.088H7.65084V28.298H5.88684ZM11.3328 31.672V30.594H19.9008V31.672H11.3328ZM11.3328 28.284V27.192H12.0188V26.52H12.6908V25.834H13.3768V25.162H14.0488V24.476H14.7348V22.166H11.3328V21.088H19.9008V22.166H16.4988V24.476H17.1848V25.162H17.8568V25.834H18.5428V26.52H19.2148V27.192H19.9008V28.284H18.1228V27.598H17.4508V26.926H16.7648V26.24H16.0928V25.568H15.1408V26.24H14.4688V26.926H13.7828V27.598H13.1108V28.284H11.3328ZM24.7308 30.314V29.222H28.1188V26.24H24.7308V25.148H28.1188V22.838H24.7308V21.746H29.8828V30.314H24.7308ZM30.7956 32.372V28.564H32.5736V31.28H39.3636V32.372H30.7956ZM34.1976 30.328V28.298H30.7956V27.206H39.3636V28.298H35.9616V30.328H34.1976ZM30.7956 26.254V21.088H39.3636V26.254H30.7956ZM37.5856 25.162V22.18H32.5736V25.162H37.5856ZM40.3603 31.672V30.594H41.0463V29.908H41.7183V29.236H42.4043V22.166H40.3603V21.088H46.8843V22.166H44.1683V28.55H44.8543V29.236H45.5263V29.908H46.2123V30.594H46.8843V31.672H45.1203V31H44.4343V30.314H43.7623V29.642H43.4963V30.314H42.8103V31H42.1383V31.672H40.3603ZM47.1503 31.672V26.926H45.1203V25.834H47.1503V21.088H48.9283V31.672H47.1503ZM49.8663 31.672V21.088H51.6443V31.672H49.8663ZM59.305 32.372V31.686H58.619V29.236H59.305V28.564H65.829V29.236H66.501V31.686H65.829V32.372H59.305ZM64.737 31.28V29.656H60.397V31.28H64.737ZM56.589 28.298V27.206H57.261V26.52H57.947V25.848H58.619V25.162H59.305V22.18H56.589V21.088H63.785V22.18H61.069V25.162H61.755V25.848H62.427V26.52H63.113V27.206H63.785V28.298H62.021V27.612H61.335V26.94H60.663V26.254H59.711V26.94H59.039V27.612H58.353V28.298H56.589ZM64.737 28.298V24.896H62.021V23.804H64.737V21.088H66.501V28.298H64.737ZM68.8783 32.372V27.878H70.6563V29.236H74.9963V27.878H76.7603V32.372H68.8783ZM74.9963 31.28V30.328H70.6563V31.28H74.9963ZM74.9963 27.612V21.088H76.7603V23.804H78.8043V24.896H76.7603V27.612H74.9963ZM67.5203 26.94V21.088H74.0443V22.18H69.2983V25.848H74.7303V26.94H67.5203ZM79.0928 32.372V29.236H85.8828V28.97H79.0928V27.878H87.6608V30.328H80.8708V31.28H87.6608V32.372H79.0928ZM79.0928 27.612V26.52H87.6608V27.612H79.0928ZM80.4508 26.254V25.582H79.7788V24.896H79.0928V22.446H79.7788V21.774H80.4508V21.088H86.3028V21.774H86.9748V22.446H87.6608V24.896H86.9748V25.582H86.3028V26.254H80.4508ZM85.2108 25.162V24.49H85.8828V22.866H85.2108V22.18H81.5428V22.866H80.8708V24.49H81.5428V25.162H85.2108ZM92.5328 31.672V30.594H95.9348V28.284H92.5328V21.088H101.101V28.284H97.6988V30.594H101.101V31.672H92.5328ZM99.3228 27.192V22.166H94.3108V27.192H99.3228ZM105.458 32.372V29.656H102.056V28.564H110.624V29.656H107.222V32.372H105.458ZM102.056 26.94V21.088H110.624V22.18H103.834V25.848H110.624V26.94H102.056ZM118.254 32.372V31.28H118.94V30.594H119.612V29.922H120.298V29.656H116.896V28.564H125.464V29.656H122.062V29.922H122.748V30.594H123.42V31.28H124.106V32.372H122.328V31.686H121.656V31.014H120.704V31.686H120.032V32.372H118.254ZM123.014 28.298V21.088H124.778V23.804H126.822V24.896H124.778V28.298H123.014ZM115.538 27.612V21.088H122.062V27.612H115.538ZM120.298 26.52V22.18H117.316V26.52H120.298ZM128.482 32.372V29.236H134.6V28.97H128.482V27.878H136.364V30.328H130.246V31.28H136.364V32.372H128.482ZM128.482 27.612V26.94H127.81V26.254H127.124V23.804H127.81V23.538H127.124V22.446H133.648V23.538H132.962V23.804H133.648V26.254H132.962V26.94H132.29V27.612H128.482ZM134.6 27.612V21.088H136.364V27.612H134.6ZM131.198 26.52V25.848H131.884V24.224H131.198V23.538H129.574V24.224H128.888V25.848H129.574V26.52H131.198ZM127.81 22.18V21.088H132.962V22.18H127.81ZM143.991 32.372V31.686H143.305V29.236H143.991V28.564H150.515V29.236H151.187V31.686H150.515V32.372H143.991ZM149.423 31.28V29.656H145.083V31.28H149.423ZM146.021 28.298V22.18H141.275V21.088H147.799V22.446H149.423V21.088H151.187V28.298H149.423V26.254H147.799V28.298H146.021ZM149.423 25.162V23.538H147.799V25.162H149.423ZM155.567 32.372V29.656H152.165V28.564H160.733V29.656H157.331V32.372H155.567ZM153.523 27.612V26.94H152.851V26.254H152.165V22.446H152.851V21.774H153.523V21.088H159.375V21.774H160.047V22.446H160.733V26.254H160.047V26.94H159.375V27.612H153.523ZM158.283 26.52V25.848H158.955V22.866H158.283V22.18H154.615V22.866H153.943V25.848H154.615V26.52H158.283ZM161.603 32.498V31.406H162.275V30.454H161.603V29.362H164.039V31.812H163.367V32.498H161.603ZM176.989 32.372V29.656H170.885V28.564H178.753V32.372H176.989ZM174.273 28.298V24.896H171.557V23.804H174.273V21.088H176.037V28.298H174.273ZM176.989 28.298V21.088H178.753V28.298H176.989ZM168.169 27.612V21.088H169.933V26.52H174.007V27.612H168.169ZM179.742 32.372V28.564H181.52V31.28H188.31V32.372H179.742ZM179.742 28.298V27.206H188.31V28.298H179.742ZM179.742 26.94V25.848H180.428V25.162H181.1V24.49H181.786V23.804H182.458V23.132H183.144V21.088H184.908V23.132H185.594V23.804H186.266V24.49H186.952V25.162H187.624V25.848H188.31V26.94H186.532V26.254H185.86V25.582H185.174V24.896H184.502V24.224H183.55V24.896H182.878V25.582H182.192V26.254H181.52V26.94H179.742ZM193.381 31.672V26.926H189.307V25.834H193.381V22.166H189.307V21.088H195.159V31.672H193.381ZM196.097 31.672V21.088H197.875V25.162H198.813V21.088H200.591V31.672H198.813V26.24H197.875V31.672H196.097ZM201.604 31.672V30.594H202.29V29.908H202.962V29.236H203.648V28.55H204.32V21.088H206.084V28.55H206.77V29.236H207.442V29.908H208.128V30.594H208.8V31.672H207.036V31H206.364V30.314H205.678V29.642H204.726V30.314H204.054V31H203.368V31.672H201.604ZM209.08 31.672V21.088H210.844V31.672H209.08ZM215.685 30.314V29.222H219.073V26.24H215.685V25.148H219.073V22.838H215.685V21.746H220.837V30.314H215.685ZM223.808 32.372V28.564H225.586V31.28H231.69V32.372H223.808ZM229.926 28.97V25.582H227.21V24.49H229.926V21.088H231.69V28.97H229.926ZM221.778 28.298V27.206H222.45V26.52H223.136V25.848H223.808V25.162H224.494V23.538H221.778V22.446H228.974V23.538H226.258V25.162H226.944V25.848H227.616V26.52H228.302V27.206H228.974V28.298H227.21V27.612H226.524V26.94H225.852V26.254H224.9V26.94H224.228V27.612H223.542V28.298H221.778ZM222.45 22.18V21.088H228.302V22.18H222.45ZM233.367 32.372V28.564H235.131V31.28H241.921V32.372H233.367ZM235.397 29.656V27.612H232.681V26.52H239.877V27.612H237.161V29.656H235.397ZM240.157 28.97V24.224H239.205V24.896H238.519V25.582H237.847V26.254H234.039V25.582H233.367V24.896H232.681V22.446H233.367V21.774H234.039V21.088H237.847V21.774H238.519V22.446H239.205V23.132H240.157V21.088H241.921V28.97H240.157ZM236.755 25.162V24.49H237.441V22.866H236.755V22.18H235.131V22.866H234.445V24.49H235.131V25.162H236.755ZM242.887 32.372V29.236H249.677V28.97H242.887V27.878H251.455V30.328H244.665V31.28H251.455V32.372H242.887ZM242.887 27.612V26.52H251.455V27.612H242.887ZM244.245 26.254V25.582H243.573V24.896H242.887V22.446H243.573V21.774H244.245V21.088H250.097V21.774H250.769V22.446H251.455V24.896H250.769V25.582H250.097V26.254H244.245ZM249.005 25.162V24.49H249.677V22.866H249.005V22.18H245.337V22.866H244.665V24.49H245.337V25.162H249.005ZM263.817 32.358V30.314H257.699V29.236H265.581V32.358H263.817ZM256.341 28.956V27.878H259.057V26.926H257.699V26.24H257.027V25.568H256.341V23.118H257.027V22.852H256.341V21.76H262.865V22.852H262.179V23.118H262.865V25.568H262.179V26.24H261.507V26.926H260.821V27.878H263.537V28.956H256.341ZM263.817 28.956V21.088H265.581V28.956H263.817ZM260.415 25.834V25.162H261.101V23.524H260.415V22.852H258.791V23.524H258.105V25.162H258.791V25.834H260.415ZM257.027 21.494V20.402H262.179V21.494H257.027ZM273.337 32.372V30.328H266.547V29.236H275.115V32.372H273.337ZM266.547 28.298V27.206H275.115V28.298H266.547ZM266.547 26.254V21.088H275.115V22.18H268.325V25.162H275.115V26.254H266.547ZM277.47 32.372V29.236H283.588V28.97H277.47V27.878H285.352V30.328H279.248V31.28H285.352V32.372H277.47ZM277.47 27.612V26.94H276.798V26.254H276.112V23.804H276.798V23.538H276.112V22.446H282.636V23.538H281.964V23.804H282.636V26.254H281.964V26.94H281.278V27.612H277.47ZM283.588 27.612V21.088H285.352V23.804H287.396V24.896H285.352V27.612H283.588ZM280.186 26.52V25.848H280.872V24.224H280.186V23.538H278.562V24.224H277.89V25.848H278.562V26.52H280.186ZM276.798 22.18V21.088H281.964V22.18H276.798ZM295.004 32.372V29.656H291.602V28.564H300.17V29.656H296.768V32.372H295.004ZM291.602 27.612V26.52H292.288V25.848H292.96V25.162H293.646V24.49H294.318V23.804H295.004V21.088H296.768V23.804H297.454V24.49H298.126V25.162H298.812V25.848H299.484V26.52H300.17V27.612H298.392V26.94H297.72V26.254H297.034V25.582H296.362V24.896H295.41V25.582H294.738V26.254H294.052V26.94H293.38V27.612H291.602ZM305.756 32.372V31.28H306.442V30.594H307.114V29.922H307.8V28.564H309.564V29.922H310.236V30.594H311.188V29.922H311.874V28.564H313.638V29.922H314.31V30.594H314.996V31.28H315.668V32.372H313.904V31.686H313.232V31.014H312.28V31.686H311.594V32.372H309.83V31.686H309.158V31.014H308.206V31.686H307.52V32.372H305.756ZM312.546 28.298V21.088H314.31V28.298H312.546ZM306.442 27.612V26.94H305.756V26.254H305.084V22.446H305.756V21.774H306.442V21.088H310.236V21.774H310.922V22.446H311.594V26.254H310.922V26.94H310.236V27.612H306.442ZM309.158 26.52V25.848H309.83V22.866H309.158V22.18H307.52V22.866H306.848V25.848H307.52V26.52H309.158ZM315.959 32.372V27.878H317.737V29.236H322.749V27.878H324.527V32.372H315.959ZM322.749 31.28V30.328H317.737V31.28H322.749ZM315.959 27.612V26.52H324.527V27.612H315.959ZM315.959 26.254V25.162H316.645V24.49H317.317V23.804H318.003V23.132H318.675V22.446H319.361V21.088H321.125V22.446H321.811V23.132H322.483V23.804H323.169V24.49H323.841V25.162H324.527V26.254H322.749V25.582H322.077V24.896H321.391V24.224H320.719V23.538H319.767V24.224H319.095V24.896H318.409V25.582H317.737V26.254H315.959ZM325.496 31.672V21.088H327.26V30.594H332.02V31.672H325.496ZM332.972 31.672V21.088H334.736V31.672H332.972ZM335.744 31.672V21.088H342.268V22.166H337.522V30.594H342.954V31.672H335.744ZM343.22 31.672V21.088H344.984V25.162H347.028V26.24H344.984V31.672H343.22ZM347.218 31.098V28.662H348.982V31.098H347.218ZM119.803 49.672V39.088H125.655V49.672H119.803ZM126.593 49.672V39.088H128.371V43.162H129.309V39.088H131.087V49.672H129.309V44.24H128.371V49.672H126.593ZM123.877 48.594V40.166H121.581V48.594H123.877ZM133.487 50.372V47.236H139.605V46.97H133.487V45.878H141.369V48.328H135.265V49.28H141.369V50.372H133.487ZM139.605 45.612V39.088H141.369V41.804H143.413V42.896H141.369V45.612H139.605ZM132.129 44.94V39.088H138.653V40.18H133.907V43.848H139.339V44.94H132.129ZM149.019 50.372V47.236H155.137V46.97H149.019V45.878H156.901V48.328H150.797V49.28H156.901V50.372H149.019ZM155.137 45.612V39.088H156.901V41.804H158.945V42.896H156.901V45.612H155.137ZM147.661 44.94V39.088H154.185V44.94H147.661ZM152.421 43.848V40.18H149.439V43.848H152.421ZM160.605 50.372V47.236H166.723V46.97H160.605V45.878H168.487V48.328H162.369V49.28H168.487V50.372H160.605ZM160.605 45.612V44.94H159.933V44.254H159.247V40.446H159.933V39.774H160.605V39.088H164.413V39.774H165.085V40.446H165.771V44.254H165.085V44.94H164.413V45.612H160.605ZM166.723 45.612V39.088H168.487V45.612H166.723ZM163.321 44.52V43.848H164.007V40.866H163.321V40.18H161.697V40.866H161.011V43.848H161.697V44.52H163.321ZM170.853 49.672V49H170.181V48.314H169.495V40.446H170.181V39.76H170.853V39.088H173.989V39.76H174.661V40.446H175.347V43.834H176.285V39.088H178.063V49.672H176.285V44.926H175.347V48.314H174.661V49H173.989V49.672H170.853ZM179.001 49.672V39.088H180.779V49.672H179.001ZM172.897 48.594V47.908H173.569V40.852H172.897V40.166H171.945V40.852H171.273V47.908H171.945V48.594H172.897ZM187.068 50.372V46.564H188.832V49.28H194.95V50.372H187.068ZM193.186 46.97V39.088H194.95V46.97H193.186ZM185.71 46.298V45.206H186.396V44.52H187.068V43.848H187.754V43.162H188.426V40.18H185.71V39.088H192.906V40.18H190.19V43.162H190.876V43.848H191.548V44.52H192.234V45.206H192.906V46.298H191.142V45.612H190.47V44.94H189.784V44.254H188.832V44.94H188.16V45.612H187.474V46.298H185.71ZM199.346 50.372V49.686H198.674V47.236H199.346V46.564H205.87V47.236H206.542V49.686H205.87V50.372H199.346ZM204.778 49.28V47.656H200.438V49.28H204.778ZM197.316 46.298V45.612H196.63V44.94H195.958V41.804H196.63V41.538H195.958V40.446H201.796V41.538H201.11V41.804H201.796V44.94H201.11V45.612H200.438V46.298H197.316ZM202.062 46.298V39.088H203.826V41.804H204.778V39.088H206.542V46.298H204.778V42.896H203.826V46.298H202.062ZM199.346 45.206V44.52H200.032V42.224H199.346V41.538H198.394V42.224H197.722V44.52H198.394V45.206H199.346ZM196.63 40.18V39.088H201.11V40.18H196.63ZM207.545 49.672V48.594H210.261V46.284H207.545V39.088H214.069V40.166H209.309V45.192H214.069V46.284H212.025V48.594H214.741V49.672H207.545ZM215.021 49.672V39.088H216.785V49.672H215.021ZM217.751 50.372V46.564H219.529V49.28H226.319V50.372H217.751ZM217.751 45.612V44.52H226.319V45.612H217.751ZM217.751 43.582V39.088H219.529V42.49H226.319V43.582H217.751ZM154.86 67.672V67H154.188V66.314H153.502V58.446H154.188V57.76H154.86V57.088H158.668V57.76H159.34V58.446H160.026V66.314H159.34V67H158.668V67.672H154.86ZM160.978 67.672V57.088H162.742V67.672H160.978ZM157.576 66.594V65.908H158.262V58.852H157.576V58.166H155.952V58.852H155.266V65.908H155.952V66.594H157.576ZM167.152 68.372V64.564H168.916V67.28H175.034V68.372H167.152ZM170.54 64.97V60.896H169.602V63.612H163.75V57.088H165.528V59.132H167.824V57.088H169.602V59.804H170.54V57.088H172.318V64.97H170.54ZM173.256 64.97V57.088H175.034V64.97H173.256ZM167.824 62.52V60.224H165.528V62.52H167.824ZM176.033 67.672V66.594H184.601V67.672H176.033ZM176.033 64.956V57.088H184.601V58.166H177.811V60.476H184.601V61.568H177.811V63.878H184.601V64.956H176.033ZM185.556 67.672V66.594H188.958V64.284H185.556V57.088H194.124V58.166H187.334V63.192H194.124V64.284H190.722V66.594H194.124V67.672H185.556ZM201.74 68.372V67.28H202.412V66.594H203.098V65.922H203.77V65.656H200.382V64.564H208.936V65.656H205.548V65.922H206.22V66.594H206.906V67.28H207.578V68.372H205.814V67.686H205.128V67.014H204.19V67.686H203.504V68.372H201.74ZM206.486 64.298V57.088H208.264V64.298H206.486ZM200.382 63.612V62.94H199.696V62.254H199.024V58.446H199.696V57.774H200.382V57.088H204.19V57.774H204.862V58.446H205.548V62.254H204.862V62.94H204.19V63.612H200.382ZM203.098 62.52V61.848H203.77V58.866H203.098V58.18H201.474V58.866H200.788V61.848H201.474V62.52H203.098ZM209.23 67.672V66.594H209.916V65.908H210.588V65.236H211.274V64.55H211.946V58.166H209.23V57.088H216.426V58.166H213.71V64.55H214.396V65.236H215.068V65.908H215.754V66.594H216.426V67.672H214.662V67H213.99V66.314H213.304V65.642H212.352V66.314H211.68V67H210.994V67.672H209.23ZM216.706 67.672V57.088H218.47V67.672H216.706ZM224.753 68.372V65.236H230.871V64.97H224.753V63.878H232.635V66.328H226.531V67.28H232.635V68.372H224.753ZM230.871 63.612V57.088H232.635V59.804H234.679V60.896H232.635V63.612H230.871ZM223.395 62.94V57.088H229.919V62.94H223.395ZM228.155 61.848V58.18H225.173V61.848H228.155ZM234.968 67.672V66.594H237.684V61.162H239.462V66.594H243.536V67.672H234.968ZM241.758 65.642V58.166H234.968V57.088H243.536V65.642H241.758ZM249.094 68.372V67.686H248.408V65.236H249.094V64.564H256.29V65.236H256.976V67.686H256.29V68.372H249.094ZM255.198 67.28V65.656H250.186V67.28H255.198ZM248.408 63.612V62.52H256.976V63.612H248.408ZM249.766 62.254V61.582H249.094V60.896H248.408V58.446H249.094V57.774H249.766V57.088H255.618V57.774H256.29V58.446H256.976V60.896H256.29V61.582H255.618V62.254H249.766ZM254.526 61.162V60.49H255.198V58.866H254.526V58.18H250.858V58.866H250.186V60.49H250.858V61.162H254.526ZM257.931 67.672V66.594H261.333V64.284H257.931V57.088H266.499V64.284H263.097V66.594H266.499V67.672H257.931ZM264.721 63.192V58.166H259.709V63.192H264.721ZM268.853 67.672V67H268.167V66.314H267.495V61.162H268.167V60.476H268.853V59.804H271.975V60.476H272.647V61.162H273.333V66.314H272.647V67H271.975V67.672H268.853ZM273.599 67.672V57.088H275.363V61.162H276.315V57.088H278.079V67.672H276.315V62.24H275.363V67.672H273.599ZM270.883 66.594V65.908H271.569V61.568H270.883V60.882H269.931V61.568H269.259V65.908H269.931V66.594H270.883ZM267.495 59.524V58.446H273.333V59.524H267.495ZM268.167 58.166V57.088H272.647V58.166H268.167ZM282.47 68.372V65.656H279.068V64.564H287.636V65.656H284.234V68.372H282.47ZM279.068 63.612V62.52H279.754V61.848H280.426V61.162H281.112V60.49H281.784V59.804H282.47V58.18H279.068V57.088H287.636V58.18H284.234V59.804H284.92V60.49H285.592V61.162H286.278V61.848H286.95V62.52H287.636V63.612H285.858V62.94H285.186V62.254H284.5V61.582H283.828V60.896H282.876V61.582H282.204V62.254H281.518V62.94H280.846V63.612H279.068ZM288.633 67.672V66.594H289.319V65.908H289.991V65.236H290.677V57.088H292.441V64.55H293.127V65.236H293.799V65.908H294.485V66.594H295.157V67.672H293.393V67H292.707V66.314H292.035V65.642H291.769V66.314H291.083V67H290.411V67.672H288.633ZM295.423 67.672V62.926H293.393V61.834H295.423V57.088H297.201V67.672H295.423ZM298.139 67.672V57.088H299.917V67.672H298.139ZM300.916 67.672V66.594H302.274V63.598H301.602V62.926H300.916V58.446H301.602V57.76H302.274V57.088H308.126V57.76H308.798V58.446H309.484V62.926H308.798V63.598H308.126V66.594H309.484V67.672H300.916ZM306.348 66.594V64.284H304.052V66.594H306.348ZM307.034 63.192V62.52H307.706V58.852H307.034V58.166H303.366V58.852H302.694V62.52H303.366V63.192H307.034ZM310.341 67.686V64.564H312.105V67.686H310.341ZM310.341 63.612V57.774H312.105V63.612H310.341Z" fill="black"/>
<path d="M37.8925 60.098V57.662H39.6565V60.098H37.8925ZM48.678 68.372V65.656H42.574V64.564H50.442V68.372H48.678ZM45.962 64.298V60.896H43.246V59.804H45.962V57.088H47.726V64.298H45.962ZM48.678 64.298V57.088H50.442V64.298H48.678ZM39.858 63.612V57.088H41.622V62.52H45.696V63.612H39.858ZM51.4305 68.372V64.564H53.2085V67.28H59.9985V68.372H51.4305ZM51.4305 64.298V63.206H59.9985V64.298H51.4305ZM51.4305 62.94V61.848H52.1165V61.162H52.7885V60.49H53.4745V59.804H54.1465V59.132H54.8325V57.088H56.5965V59.132H57.2825V59.804H57.9545V60.49H58.6405V61.162H59.3125V61.848H59.9985V62.94H58.2205V62.254H57.5485V61.582H56.8625V60.896H56.1905V60.224H55.2385V60.896H54.5665V61.582H53.8805V62.254H53.2085V62.94H51.4305ZM65.0693 67.672V62.926H60.9953V61.834H65.0693V58.166H60.9953V57.088H66.8473V67.672H65.0693ZM67.7853 67.672V57.088H69.5633V61.162H70.5013V57.088H72.2793V67.672H70.5013V62.24H69.5633V67.672H67.7853ZM73.2927 67.672V66.594H73.9787V65.908H74.6507V65.236H75.3367V64.55H76.0087V57.088H77.7727V64.55H78.4587V65.236H79.1307V65.908H79.8167V66.594H80.4887V67.672H78.7247V67H78.0527V66.314H77.3667V65.642H76.4147V66.314H75.7427V67H75.0567V67.672H73.2927ZM80.7687 67.672V57.088H82.5327V67.672H80.7687ZM87.374 66.314V65.222H90.762V62.24H87.374V61.148H90.762V58.838H87.374V57.746H92.526V66.314H87.374ZM93.3967 65.614V57.746H98.5487V65.614H93.3967ZM96.7847 64.536V58.824H95.1607V64.536H96.7847ZM100.861 68.372V64.564H102.639V67.28H108.743V68.372H100.861ZM106.979 64.97V57.088H108.743V60.49H110.787V61.582H108.743V64.97H106.979ZM99.5035 63.612V57.088H106.027V63.612H99.5035ZM104.263 62.52V58.18H101.281V62.52H104.263ZM111.776 68.372V64.564H113.54V67.28H120.33V68.372H111.776ZM113.806 65.656V63.612H111.09V62.52H118.286V63.612H115.57V65.656H113.806ZM118.566 64.97V60.224H117.614V60.896H116.928V61.582H116.256V62.254H112.448V61.582H111.776V60.896H111.09V58.446H111.776V57.774H112.448V57.088H116.256V57.774H116.928V58.446H117.614V59.132H118.566V57.088H120.33V64.97H118.566ZM115.164 61.162V60.49H115.85V58.866H115.164V58.18H113.54V58.866H112.854V60.49H113.54V61.162H115.164ZM127.299 68.372V67.686H126.613V65.236H127.299V64.564H133.823V65.236H134.495V67.686H133.823V68.372H127.299ZM132.731 67.28V65.656H128.391V67.28H132.731ZM132.731 64.298V57.088H134.495V59.804H136.539V60.896H134.495V64.298H132.731ZM125.255 63.612V57.088H131.779V58.18H127.033V62.52H132.465V63.612H125.255ZM138.886 68.372V64.564H146.768V68.372H138.886ZM145.004 67.28V65.656H140.664V67.28H145.004ZM136.856 64.298V63.206H137.528V62.52H138.214V61.848H138.886V61.162H139.572V59.538H136.856V58.446H144.052V59.538H141.336V61.162H142.022V61.848H142.694V62.52H143.38V63.206H144.052V64.298H142.288V63.612H141.602V62.94H140.93V62.254H139.978V62.94H139.306V63.612H138.62V64.298H136.856ZM145.004 64.298V61.582H142.288V60.49H145.004V57.088H146.768V64.298H145.004ZM137.528 58.18V57.088H143.38V58.18H137.528ZM147.647 60.098V57.662H149.411V60.098H147.647Z" fill="#0B69F7"/>
<rect x="21" y="101" width="79" height="22" rx="11" fill="black"/>
<path d="M34.1071 116.672V116H33.4351V115.314H32.7491V107.446H33.4351V106.76H34.1071V106.088H37.9151V106.76H38.5871V107.446H39.2731V115.314H38.5871V116H37.9151V116.672H34.1071ZM40.2251 116.672V106.088H41.9891V116.672H40.2251ZM36.8231 115.594V114.908H37.5091V107.852H36.8231V107.166H35.1991V107.852H34.5131V114.908H35.1991V115.594H36.8231ZM46.6791 117.372V113.564H48.4431V116.28H54.5611V117.372H46.6791ZM50.0671 113.97V109.896H49.1291V112.612H43.2771V106.088H45.0551V108.132H47.3511V106.088H49.1291V108.804H50.0671V106.088H51.8451V113.97H50.0671ZM52.7831 113.97V106.088H54.5611V113.97H52.7831ZM47.3511 111.52V109.224H45.0551V111.52H47.3511ZM55.8406 116.672V115.594H64.4086V116.672H55.8406ZM55.8406 113.956V106.088H64.4086V107.166H57.6186V109.476H64.4086V110.568H57.6186V112.878H64.4086V113.956H55.8406ZM74.6146 116.672V107.166H69.8546V106.088H76.3786V116.672H74.6146ZM77.3306 116.672V106.088H79.0946V116.672H77.3306ZM82.4266 117.372V113.564H84.1906V116.28H90.3086V117.372H82.4266ZM87.8586 113.97V106.088H89.6226V109.49H91.6666V110.582H89.6226V113.97H87.8586ZM85.1426 113.298V107.18H80.3826V106.088H86.9066V113.298H85.1426Z" fill="white"/>
<path d="M108.201 115.314V112.598H104.799V106.746H106.563V111.506H108.201V106.746H109.965V111.506H111.323V112.598H109.965V115.314H108.201ZM111.757 116V113.55H112.443V111.52H113.115V109.476H113.801V106.76H115.565V109.882H114.879V111.926H114.207V113.956H113.521V116H111.757ZM117.323 115.314V106.746H119.087V115.314H117.323ZM122.193 116.672V116H121.521V114.642H120.835V108.118H121.521V106.76H122.193V106.088H123.971V107.166H123.285V108.524H122.613V114.236H123.285V115.594H123.971V116.672H122.193ZM126.488 117.372V114.236H132.606V113.97H126.488V112.878H127.846V112.612H125.13V111.52H132.326V112.612H129.61V112.878H134.37V115.328H128.252V116.28H134.37V117.372H126.488ZM132.606 112.612V109.224H131.654V109.896H130.968V110.582H130.296V111.254H126.488V110.582H125.816V109.896H125.13V107.446H125.816V106.774H126.488V106.088H130.296V106.774H130.968V107.446H131.654V108.132H132.606V106.088H134.37V112.612H132.606ZM129.204 110.162V109.49H129.89V107.866H129.204V107.18H127.58V107.866H126.894V109.49H127.58V110.162H129.204ZM135.532 116.672V115.594H136.218V114.236H136.89V108.524H136.218V107.166H135.532V106.088H137.31V106.76H137.982V108.118H138.668V114.642H137.982V116H137.31V116.672H135.532ZM144.011 116.672V115.594H147.413V113.284H145.369V112.598H144.697V111.926H144.011V107.446H144.697V106.76H145.369V106.088H151.221V106.76H151.893V107.446H152.579V111.926H151.893V112.598H151.221V113.284H149.177V115.594H152.579V116.672H144.011ZM150.129 112.192V111.52H150.801V107.852H150.129V107.166H146.461V107.852H145.789V111.52H146.461V112.192H150.129ZM155.871 117.372V113.564H157.649V116.28H163.753V117.372H155.871ZM161.989 113.97V109.896H159.273V108.804H161.989V106.088H163.753V113.97H161.989ZM153.841 113.298V112.206H154.513V111.52H155.199V110.848H155.871V110.162H156.557V107.18H153.841V106.088H161.037V107.18H158.321V110.162H159.007V110.848H159.679V111.52H160.365V112.206H161.037V113.298H159.273V112.612H158.587V111.94H157.915V111.254H156.963V111.94H156.291V112.612H155.605V113.298H153.841ZM169.81 115.314V106.746H171.574V115.314H169.81ZM174.007 115.314V106.746H175.771V115.314H174.007ZM177.616 116.672V115.594H178.302V114.908H178.974V114.236H179.66V113.55H180.332V106.088H182.096V113.55H182.782V114.236H183.454V114.908H184.14V115.594H184.812V116.672H183.048V116H182.376V115.314H181.69V114.642H180.738V115.314H180.066V116H179.38V116.672H177.616ZM185.092 116.672V106.088H186.856V116.672H185.092ZM192.3 112.598V111.52H192.986V110.834H193.658V110.162H196.794V110.834H197.466V111.52H198.418V110.834H199.09V110.162H200.868V111.24H200.182V111.926H199.51V112.598H196.374V111.926H195.702V111.24H194.75V111.926H194.078V112.598H192.3ZM206.258 115.314V106.746H210.738V107.838H208.022V110.148H211.41V115.314H206.258ZM209.646 114.222V111.24H208.022V114.222H209.646ZM212.532 116V113.55H213.218V111.52H213.89V109.476H214.576V106.76H216.34V109.882H215.654V111.926H214.982V113.956H214.296V116H212.532ZM217.455 115.314V114.222H220.843V111.24H217.455V110.148H220.843V107.838H217.455V106.746H222.607V115.314H217.455ZM223.758 114.614V106.746H228.91V114.614H223.758ZM227.146 113.536V107.824H225.522V113.536H227.146ZM231.376 116.672V116H230.704V114.642H230.018V108.118H230.704V106.76H231.376V106.088H233.154V107.166H232.468V108.524H231.796V114.236H232.468V115.594H233.154V116.672H231.376ZM235.672 117.372V114.236H241.79V113.97H235.672V112.878H243.554V115.328H237.436V116.28H243.554V117.372H235.672ZM235.672 112.612V111.94H235V111.254H234.314V107.446H235V106.774H235.672V106.088H239.48V106.774H240.152V107.446H240.838V111.254H240.152V111.94H239.48V112.612H235.672ZM241.79 112.612V106.088H243.554V112.612H241.79ZM238.388 111.52V110.848H239.074V107.866H238.388V107.18H236.764V107.866H236.078V110.848H236.764V111.52H238.388ZM244.716 116.672V115.594H245.402V114.236H246.074V108.524H245.402V107.166H244.716V106.088H246.494V106.76H247.166V108.118H247.852V114.642H247.166V116H246.494V116.672H244.716ZM253.194 116.672V115.594H256.596V113.284H254.552V112.598H253.88V111.926H253.194V107.446H253.88V106.76H254.552V106.088H260.404V106.76H261.076V107.446H261.762V111.926H261.076V112.598H260.404V113.284H258.36V115.594H261.762V116.672H253.194ZM259.312 112.192V111.52H259.984V107.852H259.312V107.166H255.644V107.852H254.972V111.52H255.644V112.192H259.312ZM266.399 117.372V115.328H262.997V114.236H271.565V115.328H268.163V117.372H266.399ZM265.041 113.97V113.298H264.355V112.612H263.683V110.162H264.355V109.49H265.041V108.804H269.521V109.49H270.207V110.162H270.879V112.612H270.207V113.298H269.521V113.97H265.041ZM268.429 112.878V112.206H269.115V110.582H268.429V109.896H266.133V110.582H265.447V112.206H266.133V112.878H268.429ZM262.997 108.538V107.446H271.565V108.538H262.997ZM263.683 107.18V106.088H270.879V107.18H263.683ZM277.599 115.314V106.746H279.363V115.314H277.599ZM281.796 115.314V106.746H283.56V115.314H281.796ZM285.405 116.672V115.594H286.091V114.908H286.763V114.236H287.449V113.55H288.121V106.088H289.885V113.55H290.571V114.236H291.243V114.908H291.929V115.594H292.601V116.672H290.837V116H290.165V115.314H289.479V114.642H288.527V115.314H287.855V116H287.169V116.672H285.405ZM292.881 116.672V106.088H294.645V116.672H292.881ZM300.047 115.314V114.222H303.435V111.24H300.047V106.746H305.199V107.838H301.811V110.148H305.199V115.314H300.047ZM307.021 115.314V114.222H309.737V111.912H306.349V106.746H311.501V115.314H307.021ZM309.737 110.82V107.838H308.113V110.82H309.737ZM312.694 117.372V113.564H314.472V116.28H321.262V117.372H312.694ZM316.096 115.328V113.298H312.694V112.206H321.262V113.298H317.86V115.328H316.096ZM312.694 111.254V106.088H314.472V107.446H319.484V106.088H321.262V111.254H312.694ZM319.484 110.162V108.538H314.472V110.162H319.484Z" fill="#01237B"/>
</svg>
