<svg width="1279" height="331" viewBox="0 0 1279 331" fill="none" xmlns="http://www.w3.org/2000/svg">
<g filter="url(#filter0_d_2795_3167)">
<rect x="562.5" y="10" width="154" height="49" rx="24.5" fill="#FFD900"/>
<path d="M596.244 44.548V37.476H610.882V44.548H596.244ZM607.606 42.52V39.504H599.546V42.52H607.606ZM593.722 36.982V34.954H594.996V33.68H596.244V32.432H597.518V31.158H598.766V28.142H593.722V26.114H607.112V28.142H602.068V31.158H603.316V32.432H604.59V33.68H605.838V34.954H607.112V36.982H603.81V35.708H602.562V34.46H601.288V33.186H599.546V34.46H598.272V35.708H597.024V36.982H593.722ZM607.606 36.982V23.592H610.882V28.636H614.678V30.664H610.882V36.982H607.606ZM594.996 25.62V23.592H605.838V25.62H594.996ZM618.308 43.248V42H617.034V40.726H615.786V26.114H617.034V24.84H618.308V23.592H625.38V24.84H626.628V26.114H627.902V29.884H630.918V23.592H634.194V43.248H630.918V36.956H627.902V40.726H626.628V42H625.38V43.248H618.308ZM623.352 41.246V39.972H624.6V26.868H623.352V25.594H620.336V26.868H619.062V39.972H620.336V41.246H623.352ZM630.918 34.928V31.912H627.902V34.928H630.918ZM648.198 44.548V43.274H646.924V38.724H648.198V37.476H660.314V38.724H661.562V43.274H660.314V44.548H648.198ZM658.286 42.52V39.504H650.226V42.52H658.286ZM658.286 36.982V23.592H661.562V28.636H665.358V30.664H661.562V36.982H658.286ZM644.402 35.708V23.592H647.704V27.388H653.242V23.592H656.518V35.708H644.402ZM653.242 33.68V29.416H647.704V33.68H653.242ZM670.236 44.548V36.202H673.538V38.724H681.598V36.202H684.874V44.548H670.236ZM681.598 42.52V40.752H673.538V42.52H681.598ZM666.466 35.708V23.592H669.742V27.388H675.28V23.592H678.582V28.636H681.598V23.592H684.874V35.708H681.598V30.664H678.582V35.708H666.466ZM675.28 33.68V29.416H669.742V33.68H675.28Z" fill="#00227A"/>
<path d="M645.562 58.4999L639.5 68.9999L633.438 58.4999L645.562 58.4999Z" fill="#FFD900"/>
</g>
<rect x="15" y="85" width="280" height="226" rx="20" fill="#022177" fill-opacity="0.78"/>
<rect x="17" y="87" width="276" height="222" rx="18" stroke="#00A3FF" stroke-opacity="0.37" stroke-width="4"/>
<rect x="110.5" y="106.5" width="89" height="37" rx="18.5" stroke="#FFC000" stroke-width="3"/>
<path d="M124.902 132V130.284H130.226V125.598H125.958V124.52H124.902V117.48H132.998V119.196H127.674V123.882H131.942V124.96H132.998V132H124.902ZM138.018 132V119.196H134.806V117.48H144.002V119.196H140.79V132H138.018ZM144.711 132V117.48H153.907V119.196H147.505V123.882H152.829V125.598H147.505V130.284H152.829V132H144.711ZM154.615 132V117.48H162.711V125.598H161.655V126.654H157.387V132H154.615ZM159.939 124.96V119.196H157.387V124.96H159.939ZM170.019 129.822V117.458H178.115V129.822H170.019ZM175.343 128.128V119.152H172.791V128.128H175.343ZM180.935 130.922V117.458H183.707V130.922H180.935Z" fill="#FFC000"/>
<path fill-rule="evenodd" clip-rule="evenodd" d="M327.508 200.492C328.935 199.102 328.935 196.848 327.508 195.458C327.501 195.452 327.495 195.446 327.488 195.439L311.998 180.351C310.597 178.986 308.325 178.986 306.924 180.351C305.522 181.716 305.522 183.929 306.924 185.294L319.849 197.884L306.924 210.474C305.496 211.864 305.496 214.118 306.924 215.508C308.351 216.898 310.665 216.898 312.092 215.508L327.508 200.492Z" fill="#D9D9D9"/>
<rect x="338" y="85" width="280" height="226" rx="20" fill="#022177" fill-opacity="0.78"/>
<rect x="340" y="87" width="276" height="222" rx="18" stroke="#00A3FF" stroke-opacity="0.37" stroke-width="4"/>
<rect x="432" y="106.5" width="92" height="37" rx="18.5" stroke="#FFC000" stroke-width="3"/>
<path d="M446.402 132V130.284H451.726V125.598H447.458V124.52H446.402V117.48H454.498V119.196H449.174V123.882H453.442V124.96H454.498V132H446.402ZM459.518 132V119.196H456.306V117.48H465.502V119.196H462.29V132H459.518ZM466.211 132V117.48H475.407V119.196H469.005V123.882H474.329V125.598H469.005V130.284H474.329V132H466.211ZM476.115 132V117.48H484.211V125.598H483.155V126.654H478.887V132H476.115ZM481.439 124.96V119.196H478.887V124.96H481.439ZM491.519 129.822V117.458H499.615V129.822H491.519ZM496.843 128.128V119.152H494.291V128.128H496.843ZM501.423 130.922V123.86H506.747V119.174H501.423V117.458H509.519V125.576H504.195V129.206H509.519V130.922H501.423Z" fill="#FFC000"/>
<path fill-rule="evenodd" clip-rule="evenodd" d="M650.508 200.492C651.935 199.102 651.935 196.848 650.508 195.458C650.501 195.452 650.495 195.446 650.488 195.439L634.998 180.351C633.597 178.986 631.325 178.986 629.924 180.351C628.522 181.716 628.522 183.929 629.924 185.294L642.849 197.884L629.924 210.474C628.496 211.864 628.496 214.118 629.924 215.508C631.351 216.898 633.665 216.898 635.092 215.508L650.508 200.492Z" fill="#D9D9D9"/>
<rect x="661" y="85" width="280" height="226" rx="20" fill="#022177" fill-opacity="0.78"/>
<rect x="663" y="87" width="276" height="222" rx="18" stroke="#00A3FF" stroke-opacity="0.37" stroke-width="4"/>
<rect x="755" y="106.5" width="92" height="37" rx="18.5" stroke="#FFC000" stroke-width="3"/>
<path d="M769.402 132V130.284H774.726V125.598H770.458V124.52H769.402V117.48H777.498V119.196H772.174V123.882H776.442V124.96H777.498V132H769.402ZM782.518 132V119.196H779.306V117.48H788.502V119.196H785.29V132H782.518ZM789.211 132V117.48H798.407V119.196H792.005V123.882H797.329V125.598H792.005V130.284H797.329V132H789.211ZM799.115 132V117.48H807.211V125.598H806.155V126.654H801.887V132H799.115ZM804.439 124.96V119.196H801.887V124.96H804.439ZM814.519 129.822V117.458H822.615V129.822H814.519ZM819.843 128.128V119.152H817.291V128.128H819.843ZM824.423 130.922V129.206H829.747V124.52H824.423V122.804H829.747V119.174H824.423V117.458H832.519V130.922H824.423Z" fill="#FFC000"/>
<path fill-rule="evenodd" clip-rule="evenodd" d="M973.508 200.492C974.935 199.102 974.935 196.848 973.508 195.458C973.501 195.452 973.495 195.446 973.488 195.439L957.998 180.351C956.597 178.986 954.325 178.986 952.924 180.351C951.522 181.716 951.522 183.929 952.924 185.294L965.849 197.884L952.924 210.474C951.496 211.864 951.496 214.118 952.924 215.508C954.351 216.898 956.665 216.898 958.092 215.508L973.508 200.492Z" fill="#D9D9D9"/>
<g clip-path="url(#clip0_2795_3167)">
<rect x="984" y="85" width="280" height="226" rx="20" fill="#022177" fill-opacity="0.78"/>
<rect x="1077" y="106.5" width="94" height="37" rx="18.5" stroke="#FFC000" stroke-width="3"/>
<path d="M1091.4 132V130.284H1096.73V125.598H1092.46V124.52H1091.4V117.48H1099.5V119.196H1094.17V123.882H1098.44V124.96H1099.5V132H1091.4ZM1104.52 132V119.196H1101.31V117.48H1110.5V119.196H1107.29V132H1104.52ZM1111.21 132V117.48H1120.41V119.196H1114V123.882H1119.33V125.598H1114V130.284H1119.33V132H1111.21ZM1121.11 132V117.48H1129.21V125.598H1128.15V126.654H1123.89V132H1121.11ZM1126.44 124.96V119.196H1123.89V124.96H1126.44ZM1136.52 129.822V117.458H1144.62V129.822H1136.52ZM1141.84 128.128V119.152H1139.29V128.128H1141.84ZM1151.79 130.922V126.654H1146.45V117.458H1149.22V124.938H1151.79V117.458H1154.56V124.938H1156.7V126.654H1154.56V130.922H1151.79Z" fill="#FFC000"/>
<path d="M981.125 82.125L1072.79 81.7723L980.772 173.788L981.125 82.125Z" fill="#FFC000"/>
<path d="M998.534 116.655C998.465 116.744 998.425 116.783 998.386 116.823C997.97 117.239 997.317 117.239 996.901 116.823C996.525 116.447 996.465 115.873 996.792 115.467C997.633 114.427 998.514 112.774 998.148 111.537L995.703 113.982C995.307 114.378 994.654 114.378 994.258 113.982C993.842 113.566 993.842 112.913 994.238 112.517L996.831 109.923L996.544 109.636C996.148 109.24 996.188 108.488 996.703 107.973C997.198 107.478 997.93 107.458 998.326 107.854L998.613 108.141L1001.19 105.567C1001.62 105.132 1002.26 105.151 1002.67 105.567C1003.07 105.963 1003.09 106.597 1002.65 107.032L1000.23 109.458C1001.45 109.834 1003.12 108.943 1004.16 108.101C1004.56 107.775 1005.14 107.834 1005.51 108.21C1005.93 108.626 1005.93 109.28 1005.51 109.695C1005.47 109.735 1005.43 109.775 1005.35 109.844C1003.72 111.111 1001.95 111.952 1000.29 111.596C1000.64 113.259 999.801 115.031 998.534 116.655ZM998.623 119.04C998.217 118.635 998.227 117.951 998.633 117.546L1006.23 109.953C1006.65 109.527 1007.32 109.527 1007.73 109.933C1008.13 110.329 1008.14 111.012 1007.71 111.438L1004.8 114.348L1006.36 115.912C1006.87 116.417 1006.87 117.189 1006.36 117.694C1005.86 118.199 1005.09 118.199 1004.58 117.694L1003.02 116.13L1000.12 119.031C999.712 119.436 999.019 119.436 998.623 119.04ZM1009.99 111.2C1009.66 110.873 1009.55 110.368 1009.69 109.953C1010.94 106.25 1009.95 103.538 1007.62 101.211L1004.69 104.142C1004.29 104.548 1003.63 104.548 1003.23 104.142C1002.8 103.716 1002.8 103.063 1003.21 102.657L1007.23 98.6376C1007.61 98.2515 1008.23 98.2515 1008.61 98.6376L1009.16 99.1821C1011.68 101.706 1013.93 105.439 1012 110.695C1011.93 110.883 1011.78 111.091 1011.63 111.24C1011.18 111.695 1010.43 111.646 1009.99 111.2ZM1017.17 104.914L1009.55 97.3011C1009.05 96.7963 1009.06 96.0142 1009.55 95.5192C1010.05 95.0243 1010.83 95.0144 1011.33 95.5192L1014.07 98.2515L1014.55 97.7664C1014.96 97.3605 1015.62 97.3506 1016.04 97.7664C1016.45 98.1822 1016.44 98.8455 1016.04 99.2514L1015.55 99.7364L1018.95 103.132C1019.46 103.647 1019.44 104.419 1018.95 104.914C1018.45 105.409 1017.68 105.429 1017.17 104.914ZM1004.3 137.006L999.999 132.709C998.633 131.343 998.969 129.225 1000.43 127.759C1001.9 126.294 1004.03 125.948 1005.39 127.314L1009.69 131.61C1011.06 132.977 1010.7 135.095 1009.24 136.56C1007.77 138.025 1005.66 138.372 1004.3 137.006ZM1001.86 131.046L1005.96 135.145C1006.5 135.689 1007.28 135.59 1007.78 135.085C1008.28 134.58 1008.37 133.818 1007.83 133.273L1003.73 129.175C1003.19 128.631 1002.41 128.71 1001.91 129.215C1001.4 129.72 1001.32 130.502 1001.86 131.046ZM1012.81 131.897L1005.2 124.285C1004.69 123.78 1004.7 122.998 1005.2 122.503C1005.69 122.008 1006.47 121.998 1006.98 122.503L1014.59 130.116C1015.11 130.63 1015.09 131.402 1014.59 131.897C1014.1 132.392 1013.32 132.412 1012.81 131.897ZM1016.3 122.523L1013.34 125.483C1012.97 125.859 1012.35 125.859 1011.98 125.483L1008.16 121.661C1007.66 121.166 1007.66 120.434 1008.15 119.949C1008.63 119.464 1009.36 119.464 1009.86 119.959L1010.53 120.632L1011.45 119.711L1010.78 119.038C1010.28 118.543 1010.28 117.81 1010.77 117.325C1011.25 116.84 1011.99 116.84 1012.48 117.335L1013.64 118.494L1014.24 117.89L1012.93 116.573C1012.45 116.098 1012.46 115.336 1012.93 114.87C1013.41 114.385 1014.17 114.385 1014.64 114.86L1019.93 120.147C1020.41 120.632 1020.4 121.374 1019.92 121.859C1019.45 122.325 1018.7 122.344 1018.21 121.859L1015.61 119.256L1015.01 119.86L1016.3 121.157C1016.68 121.533 1016.68 122.146 1016.3 122.523ZM1015.97 128.641L1014.41 127.086C1013.92 126.591 1014.02 125.898 1014.51 125.403C1015.01 124.908 1015.7 124.809 1016.19 125.304L1017.2 126.314L1023.3 120.216C1023.69 119.83 1024.3 119.83 1024.69 120.216C1025.07 120.602 1025.07 121.216 1024.69 121.602L1017.65 128.641C1017.21 129.076 1016.48 129.155 1015.97 128.641ZM1020.48 119.87L1015.02 114.405C1014.53 113.92 1014.54 113.158 1015.02 112.683C1015.5 112.197 1016.26 112.188 1016.75 112.673L1022.21 118.137C1022.71 118.632 1022.69 119.385 1022.2 119.87C1021.73 120.345 1020.98 120.365 1020.48 119.87ZM1013.02 123.117L1013.94 122.196L1012.78 121.038L1011.86 121.958L1013.02 123.117ZM1024.82 119.513C1024.41 119.107 1024.43 118.434 1024.84 118.028L1032.43 110.435C1032.86 110.01 1033.52 110 1033.92 110.406C1034.32 110.802 1034.32 111.475 1033.89 111.9L1026.3 119.493C1025.9 119.899 1025.21 119.909 1024.82 119.513ZM1028.23 105.604C1028.6 105.971 1028.62 106.584 1028.25 106.951L1022.38 112.821L1023.25 113.692L1029.32 107.624C1029.7 107.248 1030.3 107.277 1030.68 107.654C1031.05 108.03 1031.08 108.634 1030.71 109.01L1023.54 116.177C1023.16 116.553 1022.55 116.553 1022.17 116.177L1019.94 113.94C1019.56 113.564 1019.55 112.96 1019.94 112.574L1026.91 105.604C1027.27 105.238 1027.87 105.238 1028.23 105.604ZM1017.83 110.564L1024.98 103.417C1025.35 103.04 1025.98 103.05 1026.35 103.427C1026.73 103.803 1026.74 104.426 1026.36 104.803L1019.21 111.95C1018.84 112.326 1018.21 112.316 1017.84 111.94C1017.46 111.564 1017.45 110.94 1017.83 110.564ZM1034.3 109.198C1033.76 108.653 1033.76 107.743 1034.3 107.198C1034.85 106.654 1035.76 106.654 1036.3 107.198C1036.84 107.743 1036.84 108.653 1036.3 109.198C1035.76 109.742 1034.85 109.742 1034.3 109.198ZM1029.57 100.467L1033.66 104.971C1034.15 105.505 1034 106.109 1033.61 106.505C1033.21 106.901 1032.61 107.05 1032.07 106.555L1027.57 102.466C1027.03 101.971 1027.03 101.12 1027.63 100.526C1028.22 99.932 1029.07 99.932 1029.57 100.467Z" fill="#113B92"/>
</g>
<rect x="986" y="87" width="276" height="222" rx="18" stroke="#00A3FF" stroke-opacity="0.37" stroke-width="4"/>
<defs>
<filter id="filter0_d_2795_3167" x="562.5" y="10" width="154" height="66" filterUnits="userSpaceOnUse" color-interpolation-filters="sRGB">
<feFlood flood-opacity="0" result="BackgroundImageFix"/>
<feColorMatrix in="SourceAlpha" type="matrix" values="0 0 0 0 0 0 0 0 0 0 0 0 0 0 0 0 0 0 127 0" result="hardAlpha"/>
<feOffset dy="4"/>
<feComposite in2="hardAlpha" operator="out"/>
<feColorMatrix type="matrix" values="0 0 0 0 1 0 0 0 0 0.66 0 0 0 0 0 0 0 0 1 0"/>
<feBlend mode="normal" in2="BackgroundImageFix" result="effect1_dropShadow_2795_3167"/>
<feBlend mode="normal" in="SourceGraphic" in2="effect1_dropShadow_2795_3167" result="shape"/>
</filter>
<clipPath id="clip0_2795_3167">
<rect x="984" y="85" width="280" height="226" rx="20" fill="white"/>
</clipPath>
</defs>
</svg>
