<svg width="771" height="149" viewBox="0 0 771 149" fill="none" xmlns="http://www.w3.org/2000/svg">
<g filter="url(#filter0_d_2795_3145)">
<path d="M86.1345 26.296V25H84.8385V23.677H83.5155V8.503H84.8385V7.18H86.1345V5.884H93.4785V7.18H94.7745V8.503H96.0975V23.677H94.7745V25H93.4785V26.296H86.1345ZM97.9335 26.296V5.884H101.336V26.296H97.9335ZM91.3725 24.217V22.894H92.6955V9.286H91.3725V7.963H88.2405V9.286H86.9175V22.894H88.2405V24.217H91.3725ZM109.841 27.646V20.302H113.243V25.54H125.042V27.646H109.841ZM116.375 21.085V13.228H114.566V18.466H103.28V5.884H106.709V9.826H111.137V5.884H114.566V11.122H116.375V5.884H119.804V21.085H116.375ZM121.613 21.085V5.884H125.042V21.085H121.613ZM111.137 16.36V11.932H106.709V16.36H111.137ZM126.969 26.296V24.217H143.493V26.296H126.969ZM126.969 21.058V5.884H143.493V7.963H130.398V12.418H143.493V14.524H130.398V18.979H143.493V21.058H126.969ZM162.096 26.296V7.963H152.916V5.884H165.498V26.296H162.096ZM167.334 26.296V5.884H170.736V26.296H167.334ZM176.622 27.646V20.302H180.024V25.54H191.823V27.646H176.622ZM187.098 21.085V5.884H190.5V12.445H194.442V14.551H190.5V21.085H187.098ZM181.86 19.789V7.99H172.68V5.884H185.262V19.789H181.86ZM203.876 27.646V26.323H202.553V21.598H203.876V20.302H217.754V21.598H219.077V26.323H217.754V27.646H203.876ZM215.648 25.54V22.408H205.982V25.54H215.648ZM202.553 18.466V16.36H209.114V14.551H202.553V5.884H219.077V7.99H205.982V12.445H219.077V14.551H212.516V16.36H219.077V18.466H202.553ZM224.942 27.646V20.302H228.344V25.54H240.143V27.646H224.942ZM235.418 21.085V5.884H238.82V12.445H242.762V14.551H238.82V21.085H235.418ZM223.619 18.466V17.17H222.323V15.847H221V8.503H222.323V7.207H223.619V5.884H230.963V7.207H232.286V8.503H233.582V15.847H232.286V17.17H230.963V18.466H223.619ZM228.857 16.36V15.064H230.18V9.313H228.857V7.99H225.725V9.313H224.429V15.064H225.725V16.36H228.857ZM256.138 27.646V22.408H250.9V20.302H264.778V22.408H259.54V27.646H256.138ZM265.318 26.323V5.884H268.72V26.323H265.318ZM260.08 19.789V14.551H250.9V12.445H260.08V7.99H250.9V5.884H263.482V19.789H260.08ZM270.583 26.296V24.217H287.107V26.296H270.583ZM270.583 19.762V17.656H271.906V16.36H273.202V15.037H274.525V13.741H275.821V12.418H277.144V7.963H270.583V5.884H287.107V7.963H280.546V12.418H281.869V13.741H283.165V15.037H284.488V16.36H285.784V17.656H287.107V19.762H283.678V18.439H282.382V17.143H281.059V15.82H279.763V14.524H277.927V15.82H276.631V17.143H275.308V18.439H274.012V19.762H270.583ZM296.503 27.646V21.598H309.598V21.085H296.503V18.979H303.064V17.17H296.503V15.064H313.027V17.17H306.466V18.979H313.027V23.704H299.932V25.54H313.027V27.646H296.503ZM296.503 13.228V11.122H299.122V7.99H296.503V5.884H313.027V7.99H310.408V11.122H313.027V13.228H296.503ZM306.979 11.122V7.99H302.551V11.122H306.979ZM314.868 26.296V24.217H320.106V13.741H323.535V24.217H331.392V26.296H314.868ZM327.963 22.381V7.963H314.868V5.884H331.392V22.381H327.963ZM333.071 27.889V25.783H334.367V23.947H333.071V21.841H337.769V26.566H336.473V27.889H333.071ZM362.744 27.646V22.408H350.972V20.302H366.146V27.646H362.744ZM357.506 19.789V13.228H352.268V11.122H357.506V5.884H360.908V19.789H357.506ZM362.744 19.789V5.884H366.146V19.789H362.744ZM345.734 18.466V5.884H349.136V16.36H356.993V18.466H345.734ZM368.053 27.646V20.302H371.482V25.54H384.577V27.646H368.053ZM368.053 19.789V17.683H384.577V19.789H368.053ZM368.053 17.17V15.064H369.376V13.741H370.672V12.445H371.995V11.122H373.291V9.826H374.614V5.884H378.016V9.826H379.339V11.122H380.635V12.445H381.958V13.741H383.254V15.064H384.577V17.17H381.148V15.847H379.852V14.551H378.529V13.228H377.233V11.932H375.397V13.228H374.101V14.551H372.778V15.847H371.482V17.17H368.053ZM394.356 26.296V17.143H386.499V15.037H394.356V7.963H386.499V5.884H397.785V26.296H394.356ZM399.594 26.296V5.884H403.023V13.741H404.832V5.884H408.261V26.296H404.832V15.82H403.023V26.296H399.594ZM410.216 26.296V24.217H411.539V22.894H412.835V21.598H414.158V20.275H415.454V5.884H418.856V20.275H420.179V21.598H421.475V22.894H422.798V24.217H424.094V26.296H420.692V25H419.396V23.677H418.073V22.381H416.237V23.677H414.941V25H413.618V26.296H410.216ZM424.634 26.296V5.884H428.036V26.296H424.634ZM437.48 26.296V24.217H442.718V18.979H446.12V24.217H451.358V26.296H437.48ZM451.898 26.296V5.884H455.3V26.296H451.898ZM437.48 19.762V17.656H438.803V16.36H440.099V15.037H441.422V13.741H442.718V10.582H437.48V8.503H451.358V10.582H446.12V13.741H447.443V15.037H448.739V16.36H450.062V17.656H451.358V19.762H447.956V18.439H446.66V17.143H445.337V15.82H443.501V17.143H442.205V18.439H440.882V19.762H437.48ZM438.803 7.963V5.884H450.062V7.963H438.803ZM457.244 26.296V5.884H468.53V7.963H460.673V24.217H469.826V26.296H457.244ZM470.339 26.296V5.884H473.768V13.741H475.577V5.884H479.006V26.296H475.577V15.82H473.768V26.296H470.339ZM488.408 23.677V21.571H494.942V15.82H488.408V13.714H494.942V9.259H488.408V7.153H498.344V23.677H488.408ZM500.023 22.327V7.153H509.959V22.327H500.023ZM506.557 20.248V9.232H503.425V20.248H506.557ZM514.419 27.646V20.302H517.848V25.54H529.62V27.646H514.419ZM526.218 21.085V5.884H529.62V12.445H533.562V14.551H529.62V21.085H526.218ZM511.8 18.466V5.884H524.382V18.466H511.8ZM520.98 16.36V7.99H515.229V16.36H520.98ZM541.592 23.677V21.571H548.126V15.82H541.592V13.714H548.126V9.259H541.592V7.153H551.528V23.677H541.592ZM557.258 27.646V20.302H560.687V25.54H572.459V27.646H557.258ZM569.057 21.085V14.551H563.819V12.445H569.057V5.884H572.459V21.085H569.057ZM553.343 19.789V17.683H554.639V16.36H555.962V15.064H557.258V13.741H558.581V10.609H553.343V8.503H567.221V10.609H561.983V13.741H563.306V15.064H564.602V16.36H565.925V17.683H567.221V19.789H563.819V18.466H562.496V17.17H561.2V15.847H559.364V17.17H558.068V18.466H556.745V19.789H553.343ZM554.639 7.99V5.884H565.925V7.99H554.639ZM575.693 27.646V20.302H579.095V25.54H592.19V27.646H575.693ZM579.608 22.408V18.466H574.37V16.36H588.248V18.466H583.01V22.408H579.608ZM588.788 21.085V11.932H586.952V13.228H585.629V14.551H584.333V15.847H576.989V14.551H575.693V13.228H574.37V8.503H575.693V7.207H576.989V5.884H584.333V7.207H585.629V8.503H586.952V9.826H588.788V5.884H592.19V21.085H588.788ZM582.227 13.741V12.445H583.55V9.313H582.227V7.99H579.095V9.313H577.772V12.445H579.095V13.741H582.227ZM616.053 27.619V23.677H604.254V21.598H619.455V27.619H616.053ZM601.635 21.058V18.979H606.873V17.143H604.254V15.82H602.958V14.524H601.635V9.799H602.958V9.286H601.635V7.18H614.217V9.286H612.894V9.799H614.217V14.524H612.894V15.82H611.598V17.143H610.275V18.979H615.513V21.058H601.635ZM616.053 21.058V5.884H619.455V21.058H616.053ZM609.492 15.037V13.741H610.815V10.582H609.492V9.286H606.36V10.582H605.037V13.741H606.36V15.037H609.492ZM602.958 6.667V4.561H612.894V6.667H602.958ZM634.413 27.646V23.704H621.318V21.598H637.842V27.646H634.413ZM621.318 19.789V17.683H637.842V19.789H621.318ZM621.318 15.847V5.884H637.842V7.99H624.747V13.741H637.842V15.847H621.318ZM642.383 26.296V25H641.087V23.677H639.764V13.741H641.087V12.418H642.383V11.122H649.727V12.418H651.05V13.741H652.346V23.677H651.05V25H649.727V26.296H642.383ZM654.182 26.296V5.884H657.584V13.741H661.526V15.82H657.584V26.296H654.182ZM647.621 24.217V22.894H648.944V14.524H647.621V13.201H644.489V14.524H643.193V22.894H644.489V24.217H647.621ZM639.764 10.582V8.503H652.346V10.582H639.764ZM641.087 7.963V5.884H651.05V7.963H641.087ZM662.164 26.296V24.217H663.487V22.894H664.783V21.598H666.106V20.275H667.402V7.963H662.164V5.884H676.069V7.963H670.831V20.275H672.127V21.598H673.45V22.894H674.746V24.217H676.069V26.296H672.64V25H671.344V23.677H670.021V22.381H668.212V23.677H666.889V25H665.593V26.296H662.164ZM676.582 26.296V5.884H679.984V13.741H683.926V15.82H679.984V26.296H676.582ZM684.293 26.323V20.302H687.695V26.323H684.293ZM684.293 18.466V7.207H687.695V18.466H684.293ZM55.4112 57.646V52.408H50.1732V50.302H64.0512V52.408H58.8132V57.646H55.4112ZM64.5912 56.323V35.884H67.9932V56.323H64.5912ZM59.3532 49.789V44.551H50.1732V42.445H59.3532V37.99H50.1732V35.884H62.7552V49.789H59.3532ZM69.8562 56.296V54.217H86.3802V56.296H69.8562ZM69.8562 49.762V47.656H71.1792V46.36H72.4752V45.037H73.7982V43.741H75.0942V42.418H76.4172V37.963H69.8562V35.884H86.3802V37.963H79.8192V42.418H81.1422V43.741H82.4382V45.037H83.7612V46.36H85.0572V47.656H86.3802V49.762H82.9512V48.439H81.6552V47.143H80.3322V45.82H79.0362V44.524H77.2002V45.82H75.9042V47.143H74.5812V48.439H73.2852V49.762H69.8562ZM95.6952 53.677V51.571H102.229V45.82H95.6952V43.714H102.229V39.259H95.6952V37.153H105.631V53.677H95.6952ZM107.391 57.646V50.302H110.82V55.54H123.915V57.646H107.391ZM113.952 53.704V49.789H107.391V47.683H123.915V49.789H117.354V53.704H113.952ZM107.391 45.847V35.884H123.915V45.847H107.391ZM120.486 43.741V37.99H110.82V43.741H120.486ZM125.838 56.296V54.217H127.161V52.894H128.457V51.598H129.78V37.963H125.838V35.884H138.42V37.963H133.182V50.275H134.505V51.598H135.801V52.894H137.124V54.217H138.42V56.296H135.018V55H133.695V53.677H132.399V52.381H131.886V53.677H130.563V55H129.267V56.296H125.838ZM138.933 56.296V47.143H135.018V45.037H138.933V35.884H142.362V56.296H138.933ZM144.171 56.296V35.884H147.6V56.296H144.171ZM162.374 57.646V56.323H161.051V51.598H162.374V50.302H174.956V51.598H176.252V56.323H174.956V57.646H162.374ZM172.85 55.54V52.408H164.48V55.54H172.85ZM157.136 49.789V47.683H158.432V46.36H159.755V45.064H161.051V43.741H162.374V37.99H157.136V35.884H171.014V37.99H165.776V43.741H167.099V45.064H168.395V46.36H169.718V47.683H171.014V49.789H167.612V48.466H166.289V47.17H164.993V45.847H163.157V47.17H161.861V48.466H160.538V49.789H157.136ZM172.85 49.789V43.228H167.612V41.122H172.85V35.884H176.252V49.789H172.85ZM180.837 57.646V48.979H184.266V51.598H192.636V48.979H196.038V57.646H180.837ZM192.636 55.54V53.704H184.266V55.54H192.636ZM192.636 48.466V35.884H196.038V41.122H199.98V43.228H196.038V48.466H192.636ZM178.218 47.17V35.884H190.8V37.99H181.647V45.064H192.123V47.17H178.218ZM200.536 57.646V51.598H213.631V51.085H200.536V48.979H217.06V53.704H203.965V55.54H217.06V57.646H200.536ZM200.536 48.466V46.36H217.06V48.466H200.536ZM203.155 45.847V44.551H201.859V43.228H200.536V38.503H201.859V37.207H203.155V35.884H214.441V37.207H215.737V38.503H217.06V43.228H215.737V44.551H214.441V45.847H203.155ZM212.335 43.741V42.445H213.631V39.313H212.335V37.99H205.261V39.313H203.965V42.445H205.261V43.741H212.335ZM226.456 56.296V54.217H233.017V49.762H226.456V35.884H242.98V49.762H236.419V54.217H242.98V56.296H226.456ZM239.551 47.656V37.963H229.885V47.656H239.551ZM251.382 57.646V52.408H244.821V50.302H261.345V52.408H254.784V57.646H251.382ZM244.821 47.17V35.884H261.345V37.99H248.25V45.064H261.345V47.17H244.821ZM276.06 57.646V55.54H277.383V54.217H278.679V52.921H280.002V52.408H273.441V50.302H289.965V52.408H283.404V52.921H284.727V54.217H286.023V55.54H287.346V57.646H283.917V56.323H282.621V55.027H280.785V56.323H279.489V57.646H276.06ZM285.24 49.789V35.884H288.642V41.122H292.584V43.228H288.642V49.789H285.24ZM270.822 48.466V35.884H283.404V48.466H270.822ZM280.002 46.36V37.99H274.251V46.36H280.002ZM295.787 57.646V51.598H307.586V51.085H295.787V48.979H310.988V53.704H299.189V55.54H310.988V57.646H295.787ZM295.787 48.466V47.17H294.491V45.847H293.168V41.122H294.491V40.609H293.168V38.503H305.75V40.609H304.427V41.122H305.75V45.847H304.427V47.17H303.131V48.466H295.787ZM307.586 48.466V35.884H310.988V48.466H307.586ZM301.025 46.36V45.064H302.348V41.932H301.025V40.609H297.893V41.932H296.57V45.064H297.893V46.36H301.025ZM294.491 37.99V35.884H304.427V37.99H294.491ZM325.698 57.646V56.323H324.375V51.598H325.698V50.302H338.28V51.598H339.576V56.323H338.28V57.646H325.698ZM336.174 55.54V52.408H327.804V55.54H336.174ZM329.613 49.789V37.99H320.46V35.884H333.042V38.503H336.174V35.884H339.576V49.789H336.174V45.847H333.042V49.789H329.613ZM336.174 43.741V40.609H333.042V43.741H336.174ZM348.021 57.646V52.408H341.46V50.302H357.984V52.408H351.423V57.646H348.021ZM344.079 48.466V47.17H342.783V45.847H341.46V38.503H342.783V37.207H344.079V35.884H355.365V37.207H356.661V38.503H357.984V45.847H356.661V47.17H355.365V48.466H344.079ZM353.259 46.36V45.064H354.555V39.313H353.259V37.99H346.185V39.313H344.889V45.064H346.185V46.36H353.259ZM359.664 57.889V55.783H360.96V53.947H359.664V51.841H364.362V56.566H363.066V57.889H359.664ZM389.337 57.646V52.408H377.565V50.302H392.739V57.646H389.337ZM384.099 49.789V43.228H378.861V41.122H384.099V35.884H387.501V49.789H384.099ZM389.337 49.789V35.884H392.739V49.789H389.337ZM372.327 48.466V35.884H375.729V46.36H383.586V48.466H372.327ZM394.645 57.646V50.302H398.074V55.54H411.169V57.646H394.645ZM394.645 49.789V47.683H411.169V49.789H394.645ZM394.645 47.17V45.064H395.968V43.741H397.264V42.445H398.587V41.122H399.883V39.826H401.206V35.884H404.608V39.826H405.931V41.122H407.227V42.445H408.55V43.741H409.846V45.064H411.169V47.17H407.74V45.847H406.444V44.551H405.121V43.228H403.825V41.932H401.989V43.228H400.693V44.551H399.37V45.847H398.074V47.17H394.645ZM420.948 56.296V47.143H413.091V45.037H420.948V37.963H413.091V35.884H424.377V56.296H420.948ZM426.186 56.296V35.884H429.615V43.741H431.424V35.884H434.853V56.296H431.424V45.82H429.615V56.296H426.186ZM436.808 56.296V54.217H438.131V52.894H439.427V51.598H440.75V50.275H442.046V35.884H445.448V50.275H446.771V51.598H448.067V52.894H449.39V54.217H450.686V56.296H447.284V55H445.988V53.677H444.665V52.381H442.829V53.677H441.533V55H440.21V56.296H436.808ZM451.226 56.296V35.884H454.628V56.296H451.226ZM463.965 53.677V51.571H470.499V45.82H463.965V43.714H470.499V39.259H463.965V37.153H473.901V53.677H463.965ZM479.63 57.646V50.302H483.059V55.54H494.831V57.646H479.63ZM491.429 51.085V44.551H486.191V42.445H491.429V35.884H494.831V51.085H491.429ZM475.715 49.789V47.683H477.011V46.36H478.334V45.064H479.63V43.741H480.953V40.609H475.715V38.503H489.593V40.609H484.355V43.741H485.678V45.064H486.974V46.36H488.297V47.683H489.593V49.789H486.191V48.466H484.868V47.17H483.572V45.847H481.736V47.17H480.44V48.466H479.117V49.789H475.715ZM477.011 37.99V35.884H488.297V37.99H477.011ZM498.066 57.646V50.302H501.468V55.54H514.563V57.646H498.066ZM501.981 52.408V48.466H496.743V46.36H510.621V48.466H505.383V52.408H501.981ZM511.161 51.085V41.932H509.325V43.228H508.002V44.551H506.706V45.847H499.362V44.551H498.066V43.228H496.743V38.503H498.066V37.207H499.362V35.884H506.706V37.207H508.002V38.503H509.325V39.826H511.161V35.884H514.563V51.085H511.161ZM504.6 43.741V42.445H505.923V39.313H504.6V37.99H501.468V39.313H500.145V42.445H501.468V43.741H504.6ZM516.426 57.646V51.598H529.521V51.085H516.426V48.979H532.95V53.704H519.855V55.54H532.95V57.646H516.426ZM516.426 48.466V46.36H532.95V48.466H516.426ZM519.045 45.847V44.551H517.749V43.228H516.426V38.503H517.749V37.207H519.045V35.884H530.331V37.207H531.627V38.503H532.95V43.228H531.627V44.551H530.331V45.847H519.045ZM528.225 43.741V42.445H529.521V39.313H528.225V37.99H521.151V39.313H519.855V42.445H521.151V43.741H528.225ZM556.791 57.619V53.677H544.992V51.598H560.193V57.619H556.791ZM542.373 51.058V48.979H547.611V47.143H544.992V45.82H543.696V44.524H542.373V39.799H543.696V39.286H542.373V37.18H554.955V39.286H553.632V39.799H554.955V44.524H553.632V45.82H552.336V47.143H551.013V48.979H556.251V51.058H542.373ZM556.791 51.058V35.884H560.193V51.058H556.791ZM550.23 45.037V43.741H551.553V40.582H550.23V39.286H547.098V40.582H545.775V43.741H547.098V45.037H550.23ZM543.696 36.667V34.561H553.632V36.667H543.696ZM575.151 57.646V53.704H562.056V51.598H578.58V57.646H575.151ZM562.056 49.789V47.683H578.58V49.789H562.056ZM562.056 45.847V35.884H578.58V37.99H565.485V43.741H578.58V45.847H562.056ZM583.121 57.646V51.598H594.92V51.085H583.121V48.979H598.322V53.704H586.55V55.54H598.322V57.646H583.121ZM583.121 48.466V47.17H581.825V45.847H580.502V41.122H581.825V40.609H580.502V38.503H593.084V40.609H591.788V41.122H593.084V45.847H591.788V47.17H590.465V48.466H583.121ZM594.92 48.466V35.884H598.322V41.122H602.264V43.228H598.322V48.466H594.92ZM588.359 46.36V45.064H589.682V41.932H588.359V40.609H585.227V41.932H583.931V45.064H585.227V46.36H588.359ZM581.825 37.99V35.884H591.788V37.99H581.825ZM616.936 57.646V52.408H610.375V50.302H626.899V52.408H620.338V57.646H616.936ZM610.375 48.466V46.36H611.698V45.064H612.994V43.741H614.317V42.445H615.613V41.122H616.936V35.884H620.338V41.122H621.661V42.445H622.957V43.741H624.28V45.064H625.576V46.36H626.899V48.466H623.47V47.17H622.174V45.847H620.851V44.551H619.555V43.228H617.719V44.551H616.423V45.847H615.1V47.17H613.804V48.466H610.375ZM637.672 57.646V55.54H638.995V54.217H640.291V52.921H641.614V50.302H645.016V52.921H646.312V54.217H648.148V52.921H649.471V50.302H652.873V52.921H654.169V54.217H655.492V55.54H656.788V57.646H653.386V56.323H652.09V55.027H650.254V56.323H648.931V57.646H645.529V56.323H644.233V55.027H642.397V56.323H641.074V57.646H637.672ZM650.767 49.789V35.884H654.169V49.789H650.767ZM638.995 48.466V47.17H637.672V45.847H636.376V38.503H637.672V37.207H638.995V35.884H646.312V37.207H647.635V38.503H648.931V45.847H647.635V47.17H646.312V48.466H638.995ZM644.233 46.36V45.064H645.529V39.313H644.233V37.99H641.074V39.313H639.778V45.064H641.074V46.36H644.233ZM657.35 57.646V48.979H660.779V51.598H670.445V48.979H673.874V57.646H657.35ZM670.445 55.54V53.704H660.779V55.54H670.445ZM657.35 48.466V46.36H673.874V48.466H657.35ZM657.35 45.847V43.741H658.673V42.445H659.969V41.122H661.292V39.826H662.588V38.503H663.911V35.884H667.313V38.503H668.636V39.826H669.932V41.122H671.255V42.445H672.551V43.741H673.874V45.847H670.445V44.551H669.149V43.228H667.826V41.932H666.53V40.609H664.694V41.932H663.398V43.228H662.075V44.551H660.779V45.847H657.35ZM675.742 56.296V35.884H679.144V54.217H688.324V56.296H675.742ZM690.16 56.296V35.884H693.562V56.296H690.16ZM695.506 56.296V35.884H708.088V37.963H698.935V54.217H709.411V56.296H695.506ZM709.924 56.296V35.884H713.326V43.741H717.268V45.82H713.326V56.296H709.924ZM717.636 55.189V50.491H721.038V55.189H717.636ZM13.899 86.296V65.884H25.185V86.296H13.899ZM26.994 86.296V65.884H30.423V73.741H32.232V65.884H35.661V86.296H32.232V75.82H30.423V86.296H26.994ZM21.756 84.217V67.963H17.328V84.217H21.756ZM40.2886 87.646V81.598H52.0876V81.085H40.2886V78.979H55.4896V83.704H43.7176V85.54H55.4896V87.646H40.2886ZM52.0876 78.466V65.884H55.4896V71.122H59.4316V73.228H55.4896V78.466H52.0876ZM37.6696 77.17V65.884H50.2516V67.99H41.0986V75.064H51.5746V77.17H37.6696ZM70.2427 87.646V81.598H82.0417V81.085H70.2427V78.979H85.4437V83.704H73.6717V85.54H85.4437V87.646H70.2427ZM82.0417 78.466V65.884H85.4437V71.122H89.3857V73.228H85.4437V78.466H82.0417ZM67.6237 77.17V65.884H80.2057V77.17H67.6237ZM76.8037 75.064V67.99H71.0527V75.064H76.8037ZM92.5882 87.646V81.598H104.387V81.085H92.5882V78.979H107.789V83.704H95.9902V85.54H107.789V87.646H92.5882ZM92.5882 78.466V77.17H91.2922V75.847H89.9692V68.503H91.2922V67.207H92.5882V65.884H99.9322V67.207H101.228V68.503H102.551V75.847H101.228V77.17H99.9322V78.466H92.5882ZM104.387 78.466V65.884H107.789V78.466H104.387ZM97.8262 76.36V75.064H99.1492V69.313H97.8262V67.99H94.6942V69.313H93.3712V75.064H94.6942V76.36H97.8262ZM112.352 86.296V85H111.056V83.677H109.733V68.503H111.056V67.18H112.352V65.884H118.4V67.18H119.696V68.503H121.019V75.037H122.828V65.884H126.257V86.296H122.828V77.143H121.019V83.677H119.696V85H118.4V86.296H112.352ZM128.066 86.296V65.884H131.495V86.296H128.066ZM116.294 84.217V82.894H117.59V69.286H116.294V67.963H114.458V69.286H113.162V82.894H114.458V84.217H116.294ZM143.623 87.646V80.302H147.025V85.54H158.824V87.646H143.623ZM155.422 81.085V65.884H158.824V81.085H155.422ZM141.004 79.789V77.683H142.327V76.36H143.623V75.064H144.946V73.741H146.242V67.99H141.004V65.884H154.882V67.99H149.644V73.741H150.967V75.064H152.263V76.36H153.586V77.683H154.882V79.789H151.48V78.466H150.184V77.17H148.861V75.847H147.025V77.17H145.729V78.466H144.406V79.789H141.004ZM167.302 87.646V86.323H166.006V81.598H167.302V80.302H179.884V81.598H181.18V86.323H179.884V87.646H167.302ZM177.778 85.54V82.408H169.408V85.54H177.778ZM163.387 79.789V78.466H162.064V77.17H160.768V71.122H162.064V70.609H160.768V68.503H172.027V70.609H170.704V71.122H172.027V77.17H170.704V78.466H169.408V79.789H163.387ZM172.54 79.789V65.884H175.942V71.122H177.778V65.884H181.18V79.789H177.778V73.228H175.942V79.789H172.54ZM167.302 77.683V76.36H168.625V71.932H167.302V70.609H165.466V71.932H164.17V76.36H165.466V77.683H167.302ZM162.064 67.99V65.884H170.704V67.99H162.064ZM183.114 86.296V84.217H188.352V79.762H183.114V65.884H195.696V67.963H186.516V77.656H195.696V79.762H191.754V84.217H196.992V86.296H183.114ZM197.532 86.296V65.884H200.934V86.296H197.532ZM202.797 87.646V80.302H206.226V85.54H219.321V87.646H202.797ZM202.797 78.466V76.36H219.321V78.466H202.797ZM202.797 74.551V65.884H206.226V72.445H219.321V74.551H202.797ZM454.108 86.296V85H452.812V83.677H451.489V68.503H452.812V67.18H454.108V65.884H461.452V67.18H462.748V68.503H464.071V83.677H462.748V85H461.452V86.296H454.108ZM465.907 86.296V65.884H469.309V86.296H465.907ZM459.346 84.217V82.894H460.669V69.286H459.346V67.963H456.214V69.286H454.891V82.894H456.214V84.217H459.346ZM477.814 87.646V80.302H481.216V85.54H493.015V87.646H477.814ZM484.348 81.085V73.228H482.539V78.466H471.253V65.884H474.682V69.826H479.11V65.884H482.539V71.122H484.348V65.884H487.777V81.085H484.348ZM489.586 81.085V65.884H493.015V81.085H489.586ZM479.11 76.36V71.932H474.682V76.36H479.11ZM494.942 86.296V84.217H511.466V86.296H494.942ZM494.942 81.058V65.884H511.466V67.963H498.371V72.418H511.466V74.524H498.371V78.979H511.466V81.058H494.942ZM513.307 86.296V84.217H519.868V79.762H513.307V65.884H529.831V67.963H516.736V77.656H529.831V79.762H523.27V84.217H529.831V86.296H513.307ZM544.519 87.646V85.54H545.815V84.217H547.138V82.921H548.434V82.408H541.9V80.302H558.397V82.408H551.863V82.921H553.159V84.217H554.482V85.54H555.778V87.646H552.376V86.323H551.053V85.027H549.244V86.323H547.921V87.646H544.519ZM553.672 79.789V65.884H557.101V79.789H553.672ZM541.9 78.466V77.17H540.577V75.847H539.281V68.503H540.577V67.207H541.9V65.884H549.244V67.207H550.54V68.503H551.863V75.847H550.54V77.17H549.244V78.466H541.9ZM547.138 76.36V75.064H548.434V69.313H547.138V67.99H544.006V69.313H542.683V75.064H544.006V76.36H547.138ZM558.964 86.296V84.217H560.287V82.894H561.583V81.598H562.906V80.275H564.202V67.963H558.964V65.884H572.842V67.963H567.604V80.275H568.927V81.598H570.223V82.894H571.546V84.217H572.842V86.296H569.44V85H568.144V83.677H566.821V82.381H564.985V83.677H563.689V85H562.366V86.296H558.964ZM573.382 86.296V65.884H576.784V86.296H573.382ZM588.902 87.646V81.598H600.701V81.085H588.902V78.979H604.103V83.704H592.331V85.54H604.103V87.646H588.902ZM600.701 78.466V65.884H604.103V71.122H608.045V73.228H604.103V78.466H600.701ZM586.283 77.17V65.884H598.865V77.17H586.283ZM595.463 75.064V67.99H589.712V75.064H595.463ZM608.602 86.296V84.217H613.84V73.741H617.269V84.217H625.126V86.296H608.602ZM621.697 82.381V67.963H608.602V65.884H625.126V82.381H621.697ZM635.845 87.646V86.323H634.522V81.598H635.845V80.302H649.723V81.598H651.046V86.323H649.723V87.646H635.845ZM647.617 85.54V82.408H637.951V85.54H647.617ZM634.522 78.466V76.36H651.046V78.466H634.522ZM637.141 75.847V74.551H635.845V73.228H634.522V68.503H635.845V67.207H637.141V65.884H648.427V67.207H649.723V68.503H651.046V73.228H649.723V74.551H648.427V75.847H637.141ZM646.321 73.741V72.445H647.617V69.313H646.321V67.99H639.247V69.313H637.951V72.445H639.247V73.741H646.321ZM652.887 86.296V84.217H659.448V79.762H652.887V65.884H669.411V79.762H662.85V84.217H669.411V86.296H652.887ZM665.982 77.656V67.963H656.316V77.656H665.982ZM673.952 86.296V85H672.629V83.677H671.333V73.741H672.629V72.418H673.952V71.122H679.973V72.418H681.269V73.741H682.592V83.677H681.269V85H679.973V86.296H673.952ZM683.105 86.296V65.884H686.507V73.741H688.343V65.884H691.745V86.296H688.343V75.82H686.507V86.296H683.105ZM677.867 84.217V82.894H679.19V74.524H677.867V73.201H676.031V74.524H674.735V82.894H676.031V84.217H677.867ZM671.333 70.582V68.503H682.592V70.582H671.333ZM672.629 67.963V65.884H681.269V67.963H672.629ZM700.213 87.646V82.408H693.652V80.302H710.176V82.408H703.615V87.646H700.213ZM693.652 78.466V76.36H694.975V75.064H696.271V73.741H697.594V72.445H698.89V71.122H700.213V67.99H693.652V65.884H710.176V67.99H703.615V71.122H704.938V72.445H706.234V73.741H707.557V75.064H708.853V76.36H710.176V78.466H706.747V77.17H705.451V75.847H704.128V74.551H702.832V73.228H700.996V74.551H699.7V75.847H698.377V77.17H697.081V78.466H693.652ZM712.098 86.296V84.217H713.421V82.894H714.717V81.598H716.04V65.884H719.442V80.275H720.765V81.598H722.061V82.894H723.384V84.217H724.68V86.296H721.278V85H719.955V83.677H718.659V82.381H718.146V83.677H716.823V85H715.527V86.296H712.098ZM725.193 86.296V77.143H721.278V75.037H725.193V65.884H728.622V86.296H725.193ZM730.431 86.296V65.884H733.86V86.296H730.431ZM735.787 86.296V84.217H738.406V78.439H737.11V77.143H735.787V68.503H737.11V67.18H738.406V65.884H749.692V67.18H750.988V68.503H752.311V77.143H750.988V78.439H749.692V84.217H752.311V86.296H735.787ZM746.263 84.217V79.762H741.835V84.217H746.263ZM747.586 77.656V76.36H748.882V69.286H747.586V67.963H740.512V69.286H739.216V76.36H740.512V77.656H747.586ZM753.964 86.323V80.302H757.366V86.323H753.964ZM753.964 78.466V67.207H757.366V78.466H753.964Z" fill="#00227A"/>
<path d="M228.528 71.689V66.991H231.93V71.689H228.528ZM249.328 87.646V82.408H237.556V80.302H252.73V87.646H249.328ZM244.09 79.789V73.228H238.852V71.122H244.09V65.884H247.492V79.789H244.09ZM249.328 79.789V65.884H252.73V79.789H249.328ZM232.318 78.466V65.884H235.72V76.36H243.577V78.466H232.318ZM254.637 87.646V80.302H258.066V85.54H271.161V87.646H254.637ZM254.637 79.789V77.683H271.161V79.789H254.637ZM254.637 77.17V75.064H255.96V73.741H257.256V72.445H258.579V71.122H259.875V69.826H261.198V65.884H264.6V69.826H265.923V71.122H267.219V72.445H268.542V73.741H269.838V75.064H271.161V77.17H267.732V75.847H266.436V74.551H265.113V73.228H263.817V71.932H261.981V73.228H260.685V74.551H259.362V75.847H258.066V77.17H254.637ZM280.94 86.296V77.143H273.083V75.037H280.94V67.963H273.083V65.884H284.369V86.296H280.94ZM286.178 86.296V65.884H289.607V73.741H291.416V65.884H294.845V86.296H291.416V75.82H289.607V86.296H286.178ZM296.8 86.296V84.217H298.123V82.894H299.419V81.598H300.742V80.275H302.038V65.884H305.44V80.275H306.763V81.598H308.059V82.894H309.382V84.217H310.678V86.296H307.276V85H305.98V83.677H304.657V82.381H302.821V83.677H301.525V85H300.202V86.296H296.8ZM311.218 86.296V65.884H314.62V86.296H311.218ZM323.956 83.677V81.571H330.49V75.82H323.956V73.714H330.49V69.259H323.956V67.153H333.892V83.677H323.956ZM335.572 82.327V67.153H345.508V82.327H335.572ZM342.106 80.248V69.232H338.974V80.248H342.106ZM349.968 87.646V80.302H353.397V85.54H365.169V87.646H349.968ZM361.767 81.085V65.884H365.169V72.445H369.111V74.551H365.169V81.085H361.767ZM347.349 78.466V65.884H359.931V78.466H347.349ZM356.529 76.36V67.99H350.778V76.36H356.529ZM371.017 87.646V80.302H374.419V85.54H387.514V87.646H371.017ZM374.932 82.408V78.466H369.694V76.36H383.572V78.466H378.334V82.408H374.932ZM384.112 81.085V71.932H382.276V73.228H380.953V74.551H379.657V75.847H372.313V74.551H371.017V73.228H369.694V68.503H371.017V67.207H372.313V65.884H379.657V67.207H380.953V68.503H382.276V69.826H384.112V65.884H387.514V81.085H384.112ZM377.551 73.741V72.445H378.874V69.313H377.551V67.99H374.419V69.313H373.096V72.445H374.419V73.741H377.551ZM400.955 87.646V86.323H399.632V81.598H400.955V80.302H413.537V81.598H414.833V86.323H413.537V87.646H400.955ZM411.431 85.54V82.408H403.061V85.54H411.431ZM411.431 79.789V65.884H414.833V71.122H418.775V73.228H414.833V79.789H411.431ZM397.013 78.466V65.884H409.595V67.99H400.442V76.36H410.918V78.466H397.013ZM423.301 87.646V80.302H438.502V87.646H423.301ZM435.1 85.54V82.408H426.73V85.54H435.1ZM419.386 79.789V77.683H420.682V76.36H422.005V75.064H423.301V73.741H424.624V70.609H419.386V68.503H433.264V70.609H428.026V73.741H429.349V75.064H430.645V76.36H431.968V77.683H433.264V79.789H429.862V78.466H428.539V77.17H427.243V75.847H425.407V77.17H424.111V78.466H422.788V79.789H419.386ZM435.1 79.789V74.551H429.862V72.445H435.1V65.884H438.502V79.789H435.1ZM420.682 67.99V65.884H431.968V67.99H420.682ZM440.197 71.689V66.991H443.599V71.689H440.197Z" fill="#0057FF"/>
</g>
<rect x="66" y="117" width="115" height="32" rx="16" fill="black"/>
<path d="M209.354 140.432V134.224H201.578V120.848H205.61V131.728H209.354V120.848H213.386V131.728H216.49V134.224H213.386V140.432H209.354ZM217.482 142V136.4H219.05V131.76H220.586V127.088H222.154V120.88H226.186V128.016H224.618V132.688H223.082V137.328H221.514V142H217.482ZM230.206 140.432V120.848H234.238V140.432H230.206ZM241.336 143.536V142H239.8V138.896H238.232V123.984H239.8V120.88H241.336V119.344H245.4V121.808H243.832V124.912H242.296V137.968H243.832V141.072H245.4V143.536H241.336ZM251.153 145.136V137.968H265.137V137.36H251.153V134.864H254.257V134.256H248.049V131.76H264.497V134.256H258.289V134.864H269.169V140.464H255.185V142.64H269.169V145.136H251.153ZM265.137 134.256V126.512H262.961V128.048H261.393V129.616H259.857V131.152H251.153V129.616H249.617V128.048H248.049V122.448H249.617V120.912H251.153V119.344H259.857V120.912H261.393V122.448H262.961V124.016H265.137V119.344H269.169V134.256H265.137ZM257.361 128.656V127.12H258.929V123.408H257.361V121.84H253.649V123.408H252.081V127.12H253.649V128.656H257.361ZM271.825 143.536V141.072H273.393V137.968H274.929V124.912H273.393V121.808H271.825V119.344H275.889V120.88H277.425V123.984H278.993V138.896H277.425V142H275.889V143.536H271.825ZM291.205 143.536V141.072H298.981V135.792H294.309V134.224H292.773V132.688H291.205V122.448H292.773V120.88H294.309V119.344H307.685V120.88H309.221V122.448H310.789V132.688H309.221V134.224H307.685V135.792H303.013V141.072H310.789V143.536H291.205ZM305.189 133.296V131.76H306.725V123.376H305.189V121.808H296.805V123.376H295.269V131.76H296.805V133.296H305.189ZM318.315 145.136V136.432H322.379V142.64H336.331V145.136H318.315ZM332.299 137.36V128.048H326.091V125.552H332.299V119.344H336.331V137.36H332.299ZM313.675 135.824V133.328H315.211V131.76H316.779V130.224H318.315V128.656H319.883V121.84H313.675V119.344H330.123V121.84H323.915V128.656H325.483V130.224H327.019V131.76H328.587V133.328H330.123V135.824H326.091V134.256H324.523V132.72H322.987V131.152H320.811V132.72H319.275V134.256H317.707V135.824H313.675ZM350.175 140.432V120.848H354.207V140.432H350.175ZM359.768 140.432V120.848H363.8V140.432H359.768ZM368.018 143.536V141.072H369.586V139.504H371.122V137.968H372.69V136.4H374.226V119.344H378.258V136.4H379.826V137.968H381.362V139.504H382.93V141.072H384.466V143.536H380.434V142H378.898V140.432H377.33V138.896H375.154V140.432H373.618V142H372.05V143.536H368.018ZM385.106 143.536V119.344H389.138V143.536H385.106ZM401.58 134.224V131.76H403.148V130.192H404.684V128.656H411.852V130.192H413.388V131.76H415.564V130.192H417.1V128.656H421.164V131.12H419.596V132.688H418.06V134.224H410.892V132.688H409.356V131.12H407.18V132.688H405.644V134.224H401.58ZM433.484 140.432V120.848H443.724V123.344H437.516V128.624H445.26V140.432H433.484ZM441.228 137.936V131.12H437.516V137.936H441.228ZM447.826 142V136.4H449.394V131.76H450.93V127.088H452.498V120.88H456.53V128.016H454.962V132.688H453.426V137.328H451.858V142H447.826ZM459.078 140.432V137.936H466.822V131.12H459.078V128.624H466.822V123.344H459.078V120.848H470.854V140.432H459.078ZM473.484 138.832V120.848H485.26V138.832H473.484ZM481.228 136.368V123.312H477.516V136.368H481.228ZM490.898 143.536V142H489.362V138.896H487.794V123.984H489.362V120.88H490.898V119.344H494.962V121.808H493.394V124.912H491.858V137.968H493.394V141.072H494.962V143.536H490.898ZM500.716 145.136V137.968H514.7V137.36H500.716V134.864H518.732V140.464H504.748V142.64H518.732V145.136H500.716ZM500.716 134.256V132.72H499.18V131.152H497.612V122.448H499.18V120.912H500.716V119.344H509.42V120.912H510.956V122.448H512.524V131.152H510.956V132.72H509.42V134.256H500.716ZM514.7 134.256V119.344H518.732V134.256H514.7ZM506.924 131.76V130.224H508.492V123.408H506.924V121.84H503.212V123.408H501.644V130.224H503.212V131.76H506.924ZM521.388 143.536V141.072H522.956V137.968H524.492V124.912H522.956V121.808H521.388V119.344H525.452V120.88H526.988V123.984H528.556V138.896H526.988V142H525.452V143.536H521.388ZM540.767 143.536V141.072H548.543V135.792H543.871V134.224H542.335V132.688H540.767V122.448H542.335V120.88H543.871V119.344H557.247V120.88H558.783V122.448H560.351V132.688H558.783V134.224H557.247V135.792H552.575V141.072H560.351V143.536H540.767ZM554.751 133.296V131.76H556.287V123.376H554.751V121.808H546.367V123.376H544.831V131.76H546.367V133.296H554.751ZM570.95 145.136V140.464H563.174V137.968H582.758V140.464H574.982V145.136H570.95ZM567.846 137.36V135.824H566.278V134.256H564.742V128.656H566.278V127.12H567.846V125.552H578.086V127.12H579.654V128.656H581.19V134.256H579.654V135.824H578.086V137.36H567.846ZM575.59 134.864V133.328H577.158V129.616H575.59V128.048H570.342V129.616H568.774V133.328H570.342V134.864H575.59ZM563.174 124.944V122.448H582.758V124.944H563.174ZM564.742 121.84V119.344H581.19V121.84H564.742ZM596.55 140.432V120.848H600.582V140.432H596.55ZM606.143 140.432V120.848H610.175V140.432H606.143ZM614.393 143.536V141.072H615.961V139.504H617.497V137.968H619.065V136.4H620.601V119.344H624.633V136.4H626.201V137.968H627.737V139.504H629.305V141.072H630.841V143.536H626.809V142H625.273V140.432H623.705V138.896H621.529V140.432H619.993V142H618.425V143.536H614.393ZM631.481 143.536V119.344H635.513V143.536H631.481ZM647.859 140.432V137.936H655.603V131.12H647.859V120.848H659.635V123.344H651.891V128.624H659.635V140.432H647.859ZM663.801 140.432V137.936H670.009V132.656H662.265V120.848H674.041V140.432H663.801ZM670.009 130.16V123.344H666.297V130.16H670.009ZM676.767 145.136V136.432H680.831V142.64H696.351V145.136H676.767ZM684.543 140.464V135.824H676.767V133.328H696.351V135.824H688.575V140.464H684.543ZM676.767 131.152V119.344H680.831V122.448H692.287V119.344H696.351V131.152H676.767ZM692.287 128.656V124.944H680.831V128.656H692.287Z" fill="black"/>
<path d="M77.391 141.104V140H76.287V138.873H75.16V125.947H76.287V124.82H77.391V123.716H83.647V124.82H84.751V125.947H85.878V138.873H84.751V140H83.647V141.104H77.391ZM87.442 141.104V123.716H90.34V141.104H87.442ZM81.853 139.333V138.206H82.98V126.614H81.853V125.487H79.185V126.614H78.058V138.206H79.185V139.333H81.853ZM98.045 142.254V135.998H100.943V140.46H110.994V142.254H98.045ZM103.611 136.665V129.972H102.07V134.434H92.456V123.716H95.377V127.074H99.149V123.716H102.07V128.178H103.611V123.716H106.532V136.665H103.611ZM108.073 136.665V123.716H110.994V136.665H108.073ZM99.149 132.64V128.868H95.377V132.64H99.149ZM113.096 141.104V139.333H127.172V141.104H113.096ZM113.096 136.642V123.716H127.172V125.487H116.017V129.282H127.172V131.076H116.017V134.871H127.172V136.642H113.096ZM143.939 141.104V125.487H136.119V123.716H146.837V141.104H143.939ZM148.401 141.104V123.716H151.299V141.104H148.401ZM156.773 142.254V135.998H159.671V140.46H169.722V142.254H156.773ZM165.697 136.665V123.716H168.595V129.305H171.953V131.099H168.595V136.665H165.697ZM161.235 135.561V125.51H153.415V123.716H164.133V135.561H161.235Z" fill="white"/>
<defs>
<filter id="filter0_d_2795_3145" x="9.89899" y="0.561035" width="751.467" height="91.085" filterUnits="userSpaceOnUse" color-interpolation-filters="sRGB">
<feFlood flood-opacity="0" result="BackgroundImageFix"/>
<feColorMatrix in="SourceAlpha" type="matrix" values="0 0 0 0 0 0 0 0 0 0 0 0 0 0 0 0 0 0 127 0" result="hardAlpha"/>
<feOffset/>
<feGaussianBlur stdDeviation="2"/>
<feComposite in2="hardAlpha" operator="out"/>
<feColorMatrix type="matrix" values="0 0 0 0 0.827451 0 0 0 0 0.945098 0 0 0 0 1 0 0 0 1 0"/>
<feBlend mode="normal" in2="BackgroundImageFix" result="effect1_dropShadow_2795_3145"/>
<feBlend mode="normal" in="SourceGraphic" in2="effect1_dropShadow_2795_3145" result="shape"/>
</filter>
</defs>
</svg>
