<svg width="119" height="38" viewBox="0 0 119 38" fill="none" xmlns="http://www.w3.org/2000/svg">
<mask id="path-1-inside-1_2703_5727" fill="white">
<path d="M0 0H119V38H0V0Z"/>
</mask>
<path d="M119 37H0V39H119V37Z" fill="white" fill-opacity="0.4" mask="url(#path-1-inside-1_2703_5727)"/>
<path d="M38.3976 25.656H27.8376C27.2296 25.656 26.7336 25.16 26.7336 24.552V21.144C26.7336 20.536 27.2296 20.04 27.8376 20.04H38.3976C39.0056 20.04 39.5016 20.536 39.5016 21.144V24.552C39.5016 25.16 39.0056 25.656 38.3976 25.656ZM25.9016 18.04C25.9016 17.4 26.2376 17.032 26.6696 16.856C27.9016 16.36 28.9576 15.496 29.2616 14.152H27.1016C26.4776 14.152 25.9816 13.704 25.9816 13.048C25.9816 12.36 26.4776 11.912 27.1016 11.912H29.3416V11.592C29.3416 10.776 29.9816 10.312 30.7816 10.312C31.5816 10.312 32.2216 10.776 32.2216 11.592V11.912H34.4616C35.1496 11.912 35.6136 12.36 35.6136 13.048C35.6136 13.704 35.1496 14.152 34.4616 14.152H32.3016C32.6056 15.416 33.6616 16.2 34.8936 16.696C35.3256 16.872 35.6616 17.24 35.6616 17.88C35.6616 18.6 35.1336 19.128 34.3816 19.128C34.1736 19.128 33.9496 19.08 33.7576 19C32.6376 18.536 31.5176 17.864 30.7976 16.712C30.0776 17.96 28.9416 18.696 27.8056 19.16C27.6136 19.24 27.3896 19.288 27.1816 19.288C26.4296 19.288 25.9016 18.76 25.9016 18.04ZM36.6216 18.2V12.072C36.6216 11.256 37.2616 10.632 38.0616 10.632C38.8616 10.632 39.5016 11.256 39.5016 12.072V13.848H40.3656C40.9896 13.848 41.4856 14.344 41.4856 14.968C41.4856 15.592 40.9896 16.088 40.3656 16.088H39.5016V18.2C39.5016 19.032 38.8616 19.64 38.0616 19.64C37.2616 19.64 36.6216 19.032 36.6216 18.2ZM29.5816 22.216V23.48H36.6536V22.216H29.5816ZM42.0616 21.624V14.68C42.0616 12.472 43.9656 11.032 46.3336 11.032C48.6216 11.032 50.4936 12.376 50.6056 14.456H53.2296V12.072C53.2296 11.256 53.8696 10.632 54.6696 10.632C55.4696 10.632 56.1096 11.256 56.1096 12.072V24.376C56.1096 25.208 55.4696 25.816 54.6696 25.816C53.8696 25.816 53.2296 25.208 53.2296 24.376V21.784H50.6216C50.5256 23.896 48.6376 25.256 46.3336 25.256C43.9656 25.256 42.0616 23.832 42.0616 21.624ZM44.9096 14.84V21.464C44.9096 22.344 45.5656 22.888 46.3496 22.888C47.1336 22.888 47.7736 22.344 47.7736 21.464V14.84C47.7736 13.96 47.1336 13.4 46.3496 13.4C45.5656 13.4 44.9096 13.96 44.9096 14.84ZM50.6216 16.696V19.544H53.2296V16.696H50.6216ZM66.4264 25.656C64.7464 25.656 63.3704 24.44 63.3704 22.76C63.3704 21.064 64.7464 19.848 66.4264 19.848H73.3864C75.0824 19.848 76.4584 21.064 76.4584 22.76C76.4584 24.44 75.0824 25.656 73.3864 25.656H66.4264ZM70.3144 18.744H63.9624C63.3544 18.744 62.8584 18.248 62.8584 17.64V12.36C62.8584 11.56 63.4824 10.952 64.2664 10.952C65.0504 10.952 65.6744 11.56 65.6744 12.36V12.984H68.6024V12.36C68.6024 11.56 69.2264 10.952 70.0104 10.952C70.7944 10.952 71.4184 11.56 71.4184 12.36V17.64C71.4184 18.248 70.9224 18.744 70.3144 18.744ZM73.4184 18.152V12.072C73.4184 11.256 74.0584 10.632 74.8584 10.632C75.6584 10.632 76.2984 11.256 76.2984 12.072V13.768H77.1624C77.7864 13.768 78.2824 14.264 78.2824 14.888C78.2824 15.512 77.7864 16.008 77.1624 16.008H76.2984V18.152C76.2984 18.984 75.6584 19.592 74.8584 19.592C74.0584 19.592 73.4184 18.984 73.4184 18.152ZM66.2184 22.76C66.2184 23.24 66.5864 23.48 67.0664 23.48H72.7464C73.2264 23.48 73.6104 23.24 73.6104 22.76C73.6104 22.28 73.2264 22.024 72.7464 22.024H67.0664C66.5864 22.024 66.2184 22.28 66.2184 22.76ZM65.6744 16.568H68.6024V15.128H65.6744V16.568ZM86.3144 18.616H79.9624C79.3544 18.616 78.8584 18.12 78.8584 17.512V12.36C78.8584 11.56 79.4824 10.952 80.2664 10.952C81.0504 10.952 81.6744 11.56 81.6744 12.36V12.92H84.6024V12.36C84.6024 11.56 85.2264 10.952 86.0104 10.952C86.7944 10.952 87.4184 11.56 87.4184 12.36V13.624H90.0264V12.072C90.0264 11.256 90.6664 10.632 91.4664 10.632C92.2664 10.632 92.9064 11.256 92.9064 12.072V17.672C92.9064 18.504 92.2664 19.112 91.4664 19.112C90.6664 19.112 90.0264 18.504 90.0264 17.672V15.832H87.4184V17.512C87.4184 18.12 86.9224 18.616 86.3144 18.616ZM92.9064 20.616V24.552C92.9064 25.16 92.4104 25.656 91.8024 25.656H80.6344C80.0264 25.656 79.5304 25.16 79.5304 24.552V20.616C79.5304 19.816 80.1704 19.432 80.9544 19.432C81.7224 19.432 82.3624 19.816 82.3784 20.6H90.0584C90.0584 19.816 90.6984 19.432 91.4824 19.432C92.2664 19.432 92.9064 19.816 92.9064 20.616ZM82.3784 23.48H90.0584V22.728H82.3784V23.48ZM81.6744 16.44H84.6024V15.064H81.6744V16.44Z" fill="#BBD2FF"/>
</svg>
