<svg width="119" height="56" viewBox="0 0 119 56" fill="none" xmlns="http://www.w3.org/2000/svg">
<path d="M40.2696 21.832V24.376C40.2696 25.176 39.6296 25.816 38.8296 25.816C38.0296 25.816 37.3896 25.176 37.3896 24.376V22.712H27.7096C27.0856 22.712 26.5896 22.216 26.5896 21.592C26.5896 20.968 27.0856 20.472 27.7096 20.472H38.9096C39.6136 20.472 40.2696 21 40.2696 21.832ZM28.8456 12.28V16.984C29.8696 16.968 30.9416 16.856 32.0456 16.504C32.6056 16.328 33.2616 16.648 33.4376 17.24C33.6136 17.816 33.2776 18.408 32.6856 18.616C31.3576 19.08 29.5656 19.192 27.9656 19.192H27.1656C26.5576 19.192 26.0616 18.696 26.0616 18.088V12.28C26.0616 11.512 26.7016 10.872 27.4376 10.872C28.2376 10.872 28.8456 11.512 28.8456 12.28ZM33.9656 18.536V15.304H32.1576C31.5336 15.304 31.0376 14.808 31.0376 14.184C31.0376 13.56 31.5336 13.064 32.1576 13.064H33.9656V12.088C33.9656 11.32 34.5896 10.712 35.3416 10.712C36.1256 10.712 36.7336 11.32 36.7336 12.088V18.536C36.7336 19.32 36.1256 19.912 35.3416 19.912C34.5896 19.912 33.9656 19.32 33.9656 18.536ZM37.4696 18.6V12.024C37.4696 11.24 38.0936 10.632 38.8616 10.632C39.6456 10.632 40.2696 11.24 40.2696 12.024V18.6C40.2696 19.4 39.6456 19.992 38.8616 19.992C38.0936 19.992 37.4696 19.4 37.4696 18.6ZM43.2616 16.904C42.6376 16.904 42.1416 16.408 42.1416 15.784C42.1416 15.16 42.6376 14.664 43.2616 14.664C45.6936 14.664 47.6616 13.16 47.6616 11.912V11.608C47.6616 10.968 48.3016 10.392 49.1336 10.392C49.9336 10.392 50.5416 10.968 50.5416 11.608V11.912C50.5416 13.16 52.5096 14.664 54.9416 14.664C55.5656 14.664 56.0616 15.16 56.0616 15.784C56.0616 16.408 55.5656 16.904 54.9416 16.904C51.9656 16.904 50.0456 15.752 49.1016 14.376C48.1416 15.752 46.2216 16.904 43.2616 16.904ZM42.3016 24.296V22.152C42.3016 21.352 42.9416 20.872 43.7416 20.872C44.5416 20.872 45.1816 21.352 45.1816 22.152V23.416H55.1016C55.7256 23.416 56.2216 23.912 56.2216 24.536C56.2216 25.16 55.7256 25.656 55.1016 25.656H43.6616C42.9576 25.656 42.3016 25.128 42.3016 24.296ZM41.7416 19.096C41.7416 18.472 42.2536 17.96 42.8616 17.96H55.3256C55.9656 17.96 56.4616 18.472 56.4616 19.096C56.4616 19.688 55.9656 20.2 55.3256 20.2H42.8616C42.2536 20.2 41.7416 19.688 41.7416 19.096ZM69.4696 24.424V18.872H68.4936V24.36C68.4936 25.144 67.8856 25.736 67.1016 25.736C66.3496 25.736 65.7256 25.144 65.7256 24.36V12.088C65.7256 11.32 66.3496 10.712 67.1016 10.712C67.8856 10.712 68.4936 11.32 68.4936 12.088V16.504H69.4696V12.024C69.4696 11.24 70.0936 10.632 70.8616 10.632C71.6456 10.632 72.2696 11.24 72.2696 12.024V24.424C72.2696 25.224 71.6456 25.816 70.8616 25.816C70.0936 25.816 69.4696 25.224 69.4696 24.424ZM57.9016 23.72C57.9016 23.224 58.1416 22.84 58.5896 22.504C60.0776 21.384 60.9576 20.056 61.4536 18.568H59.1656C58.5096 18.568 57.9816 18.056 57.9816 17.4C57.9816 16.712 58.5096 16.2 59.1656 16.2H61.9816C62.0776 15.368 62.1096 14.52 62.1096 13.64H59.3256C58.6696 13.64 58.1416 13.128 58.1416 12.472C58.1416 11.784 58.6696 11.272 59.3256 11.272H63.7256C64.3496 11.272 64.8456 11.768 64.8456 12.392V13.272C64.8456 17.064 64.4136 22.056 59.9976 24.808C59.7416 24.968 59.4056 25.016 59.1656 25.016C58.4616 25.016 57.9016 24.424 57.9016 23.72ZM73.5816 23.816C73.5816 23.352 73.7576 22.952 74.0616 22.696C76.1736 20.952 77.3416 18.488 77.3416 14.296V12.232C77.3416 11.432 77.9816 10.792 78.7816 10.792C79.5816 10.792 80.2216 11.432 80.2216 12.232V14.296C80.2216 18.488 81.3736 20.888 83.4856 22.632C83.7896 22.888 83.9816 23.272 83.9816 23.736C83.9816 24.504 83.4216 25.096 82.6216 25.096C82.2536 25.096 81.9016 24.984 81.6616 24.776C80.3496 23.64 79.3896 22.392 78.7816 20.568C78.1736 22.44 77.2136 23.72 75.9016 24.856C75.6616 25.064 75.3096 25.176 74.9416 25.176C74.1416 25.176 73.5816 24.584 73.5816 23.816ZM85.0696 24.376V12.072C85.0696 11.256 85.7096 10.632 86.5096 10.632C87.3096 10.632 87.9496 11.256 87.9496 12.072V24.376C87.9496 25.208 87.3096 25.816 86.5096 25.816C85.7096 25.816 85.0696 25.208 85.0696 24.376ZM11.2785 31.416C12.0785 30.136 13.7265 29.16 15.8545 29.16C18.8945 29.16 20.7665 31.016 20.7665 32.968C20.7665 34.392 20.0145 35.336 19.0705 35.768C20.1585 36.04 21.1665 37.048 21.1665 38.648C21.1665 41.288 18.7025 42.856 15.7425 42.856C13.6145 42.856 11.8545 41.96 11.0385 40.44C10.6865 39.784 10.9105 39.08 11.4385 38.728C11.9825 38.376 12.8625 38.328 13.3105 38.968C13.8385 39.736 14.6865 40.376 15.8705 40.376C17.3585 40.376 18.3185 39.688 18.3185 38.648C18.3185 37.416 16.9585 36.984 15.5185 36.984C14.7825 36.984 14.2705 36.568 14.2705 35.768C14.2705 34.968 14.7825 34.552 15.5185 34.552C16.7025 34.552 17.9185 34.232 17.9185 33.112C17.9185 32.216 16.9745 31.672 15.9025 31.672C14.8145 31.672 14.0305 32.152 13.5665 32.84C13.2145 33.368 12.4465 33.592 11.7585 33.192C11.1185 32.824 10.8945 32.024 11.2785 31.416ZM28.3208 29.16C31.6328 29.16 34.0328 31.592 34.0328 35.992C34.0328 40.408 31.6328 42.856 28.3208 42.856C24.9928 42.856 22.6088 40.408 22.6088 35.992C22.6088 31.592 24.9928 29.16 28.3208 29.16ZM25.4568 35.992C25.4568 38.744 26.4808 40.328 28.3208 40.328C30.1768 40.328 31.1848 38.744 31.1848 35.992C31.1848 33.256 30.1608 31.688 28.3208 31.688C26.4808 31.688 25.4568 33.256 25.4568 35.992ZM43.0879 37.352H36.7359C36.1279 37.352 35.6319 36.856 35.6319 36.248V30.136C35.6319 29.528 36.1279 29.032 36.7359 29.032H43.0879C43.6959 29.032 44.1919 29.528 44.1919 30.136V36.248C44.1919 36.856 43.6959 37.352 43.0879 37.352ZM36.3039 42.296V39.528C36.3039 38.728 36.9439 38.248 37.7439 38.248C38.5439 38.248 39.1839 38.728 39.1839 39.528V41.416H48.4319C49.0559 41.416 49.5519 41.912 49.5519 42.536C49.5519 43.16 49.0559 43.656 48.4319 43.656H37.6639C36.9599 43.656 36.3039 43.128 36.3039 42.296ZM46.1919 38.488V30.072C46.1919 29.256 46.8319 28.632 47.6319 28.632C48.4319 28.632 49.0719 29.256 49.0719 30.072V32.712H49.9359C50.5599 32.712 51.0559 33.208 51.0559 33.832C51.0559 34.456 50.5599 34.952 49.9359 34.952H49.0719V38.488C49.0719 39.32 48.4319 39.928 47.6319 39.928C46.8319 39.928 46.1919 39.32 46.1919 38.488ZM38.4479 31.208V35.176H41.3759V31.208H38.4479ZM51.8719 31.576C51.8719 30.168 53.0079 29.032 54.4159 29.032H59.0239C60.4319 29.032 61.5679 30.168 61.5679 31.576C61.5679 32.984 60.4319 34.12 59.0239 34.12H54.4159C53.0079 34.12 51.8719 32.984 51.8719 31.576ZM59.3919 38.584C59.3919 37.976 59.9039 37.496 60.4959 37.496H62.7999V30.072C62.7999 29.256 63.4399 28.632 64.2399 28.632C65.0399 28.632 65.6799 29.256 65.6799 30.072V39.576C65.6799 40.408 65.0399 40.856 64.2399 40.856C63.4559 40.856 62.8319 40.44 62.7999 39.64H60.4959C59.9039 39.64 59.3919 39.16 59.3919 38.584ZM52.3039 42.296V40.168C52.3039 39.368 52.9439 38.888 53.7439 38.888C54.5439 38.888 55.1839 39.368 55.1839 40.168V41.416H64.8799C65.5039 41.416 65.9999 41.912 65.9999 42.536C65.9999 43.16 65.5039 43.656 64.8799 43.656H53.6639C52.9599 43.656 52.3039 43.128 52.3039 42.296ZM55.1839 38.856C55.1839 38.68 55.2159 38.488 55.2639 38.296C55.3599 37.896 55.4239 37.448 55.4559 37H52.4319C51.8239 37 51.3119 36.488 51.3119 35.896C51.3119 35.272 51.8239 34.76 52.4319 34.76H61.2639C61.9039 34.76 62.3999 35.272 62.3999 35.896C62.3999 36.488 61.9039 37 61.2639 37H58.3199C58.2879 37.624 58.1759 38.536 57.9199 39.224C57.7119 39.768 57.1679 40.088 56.5279 40.088C55.7599 40.088 55.1839 39.624 55.1839 38.856ZM54.6559 31.576C54.6559 31.848 54.8639 32.04 55.1039 32.04H58.3359C58.5759 32.04 58.7839 31.848 58.7839 31.576C58.7839 31.304 58.5759 31.112 58.3359 31.112H55.1039C54.8639 31.112 54.6559 31.304 54.6559 31.576ZM82.9568 43.656H75.9968C74.3168 43.656 72.9408 42.344 72.9408 40.664C72.9408 38.968 74.3168 37.656 75.9968 37.656H82.9568C84.6528 37.656 86.0288 38.968 86.0288 40.664C86.0288 42.344 84.6528 43.656 82.9568 43.656ZM72.4288 35.384V30.136C72.4288 29.528 72.9248 29.032 73.5328 29.032H80.0448C80.6528 29.032 81.1488 29.528 81.1488 30.136C81.1488 30.744 80.6528 31.24 80.0448 31.24H75.2768V34.28C77.4208 34.28 79.4368 34.104 81.1968 33.672C81.2608 33.656 81.3888 33.64 81.4848 33.64C82.0928 33.64 82.5888 34.136 82.5888 34.744C82.5888 35.256 82.2208 35.688 81.7568 35.8C79.5008 36.344 77.2128 36.488 74.3328 36.488H73.5328C72.9248 36.488 72.4288 35.992 72.4288 35.384ZM82.9888 35.976V30.072C82.9888 29.256 83.6288 28.632 84.4288 28.632C85.2288 28.632 85.8688 29.256 85.8688 30.072V31.752H86.7328C87.3568 31.752 87.8528 32.248 87.8528 32.872C87.8528 33.496 87.3568 33.992 86.7328 33.992H85.8688V35.976C85.8688 36.808 85.2288 37.416 84.4288 37.416C83.6288 37.416 82.9888 36.808 82.9888 35.976ZM75.7888 40.664C75.7888 41.144 76.1568 41.48 76.6368 41.48H82.3168C82.7968 41.48 83.1808 41.144 83.1808 40.664C83.1808 40.184 82.7968 39.832 82.3168 39.832H76.6368C76.1568 39.832 75.7888 40.184 75.7888 40.664ZM101.373 43.656H90.2048C89.5968 43.656 89.1008 43.16 89.1008 42.552V39.144C89.1008 38.536 89.5968 38.04 90.2048 38.04H101.373C101.981 38.04 102.477 38.536 102.477 39.144V42.552C102.477 43.16 101.981 43.656 101.373 43.656ZM88.2688 36.2C88.2688 35.56 88.6048 35.192 89.0368 35.016C90.2688 34.52 91.2608 33.528 91.5328 32.152H89.4688C88.8448 32.152 88.3488 31.704 88.3488 31.048C88.3488 30.36 88.8448 29.912 89.4688 29.912H91.6128V29.592C91.6128 28.776 92.2528 28.312 93.0528 28.312C93.8528 28.312 94.4928 28.776 94.4928 29.592V29.912H96.6368C97.3248 29.912 97.7888 30.36 97.7888 31.048C97.7888 31.704 97.3248 32.152 96.6368 32.152H94.5728C94.8448 33.48 95.8368 34.44 97.0688 34.936C97.5008 35.112 97.8368 35.48 97.8368 36.12C97.8368 36.84 97.3088 37.368 96.5568 37.368C96.3488 37.368 96.1248 37.32 95.9328 37.24C94.8288 36.792 93.7568 36.056 93.0688 34.856C92.3648 36.104 91.2928 36.856 90.1728 37.32C89.9808 37.4 89.7568 37.448 89.5488 37.448C88.7968 37.448 88.2688 36.92 88.2688 36.2ZM99.5968 36.2V34.664H97.8688C97.2448 34.664 96.7488 34.168 96.7488 33.544C96.7488 32.92 97.2448 32.424 97.8688 32.424H99.5968V30.072C99.5968 29.256 100.237 28.632 101.037 28.632C101.837 28.632 102.477 29.256 102.477 30.072V36.2C102.477 37.032 101.837 37.64 101.037 37.64C100.237 37.64 99.5968 37.032 99.5968 36.2ZM91.9488 40.216V41.48H99.6288V40.216H91.9488ZM104.589 41.4C104.589 40.52 105.325 39.784 106.205 39.784C107.085 39.784 107.821 40.52 107.821 41.4C107.821 42.28 107.085 43.016 106.205 43.016C105.325 43.016 104.589 42.28 104.589 41.4ZM107.821 30.52L107.485 37.464C107.453 38.296 106.845 38.664 106.205 38.664C105.565 38.664 104.957 38.296 104.925 37.464L104.589 30.52C104.557 29.688 105.245 29 106.205 29C107.165 29 107.853 29.688 107.821 30.52Z" fill="#BBD2FF"/>
</svg>
