<svg width="119" height="56" viewBox="0 0 119 56" fill="none" xmlns="http://www.w3.org/2000/svg">
<mask id="path-1-inside-1_2703_5729" fill="white">
<path d="M0 0H119V56H0V0Z"/>
</mask>
<path d="M119 55H0V57H119V55Z" fill="white" fill-opacity="0.4" mask="url(#path-1-inside-1_2703_5729)"/>
<path d="M35.5976 18.808C35.4696 18.824 35.4056 18.824 35.3416 18.824C34.6696 18.824 34.1416 18.296 34.1416 17.624C34.1416 17.016 34.5576 16.504 35.1496 16.44C36.6696 16.28 38.7176 15.656 39.4216 14.36H35.4696C34.8296 14.36 34.3016 13.832 34.3016 13.192C34.3016 12.52 34.8296 11.992 35.4696 11.992H39.6616V11.528C39.6616 10.888 40.3016 10.312 41.1336 10.312C41.9336 10.312 42.5416 10.888 42.5416 11.528V11.992H46.7016C47.4056 11.992 47.9016 12.52 47.9016 13.192C47.9016 13.832 47.4056 14.36 46.7016 14.36H42.7816C43.4696 15.656 45.5336 16.28 47.0536 16.44C47.6456 16.504 48.0616 17.016 48.0616 17.624C48.0616 18.296 47.5336 18.824 46.8616 18.824C46.7976 18.824 46.7336 18.824 46.6056 18.808C44.2696 18.52 42.1576 17.768 41.1016 16.136C40.0456 17.768 37.9336 18.52 35.5976 18.808ZM33.7416 20.808C33.7416 20.152 34.3016 19.608 34.9576 19.608H47.2296C47.9176 19.608 48.4616 20.152 48.4616 20.808C48.4616 21.448 47.9176 22.008 47.2296 22.008H42.5256V24.536C42.5256 25.352 41.9016 25.976 41.0856 25.976C40.2696 25.976 39.6456 25.352 39.6456 24.536V22.008H34.9576C34.3016 22.008 33.7416 21.448 33.7416 20.808ZM61.2296 18.568V16.104H58.6056C58.4776 18.232 56.6056 19.32 54.3336 19.32C51.9656 19.32 50.0616 18.136 50.0616 15.848V14.28C50.0616 11.992 51.9656 10.792 54.3336 10.792C56.5576 10.792 58.3976 11.864 58.5896 13.896H61.2296V12.072C61.2296 11.256 61.8696 10.632 62.6696 10.632C63.4696 10.632 64.1096 11.256 64.1096 12.072V18.568C64.1096 19.4 63.4696 20.008 62.6696 20.008C61.8696 20.008 61.2296 19.4 61.2296 18.568ZM64.1096 21.768V24.376C64.1096 25.176 63.4696 25.816 62.6696 25.816C61.8696 25.816 61.2296 25.176 61.2296 24.376V22.648H51.7096C51.0856 22.648 50.5896 22.152 50.5896 21.528C50.5896 20.904 51.0856 20.408 51.7096 20.408H62.7496C63.4536 20.408 64.1096 20.936 64.1096 21.768ZM52.9096 14.28V15.848C52.9096 16.728 53.5656 17.112 54.3496 17.112C55.1336 17.112 55.7736 16.728 55.7736 15.848V14.28C55.7736 13.4 55.1336 13 54.3496 13C53.5656 13 52.9096 13.4 52.9096 14.28ZM66.3656 16.92V14.472C66.3656 12.104 68.4936 10.792 71.0216 10.792C73.5496 10.792 75.7416 12.104 75.7416 14.472V16.92C75.7416 19.288 73.5656 20.584 71.0376 20.584C68.5096 20.584 66.3656 19.288 66.3656 16.92ZM69.1816 14.504V16.888C69.1816 17.736 69.9656 18.248 71.0376 18.248C72.1096 18.248 72.9256 17.736 72.9256 16.888V14.504C72.9256 13.656 72.1096 13.112 71.0376 13.112C69.9656 13.112 69.1816 13.656 69.1816 14.504ZM66.9416 25.096C66.2696 25.096 65.7416 24.568 65.7416 23.896C65.7416 23.224 66.2696 22.696 66.9416 22.696C69.8536 22.696 72.7816 22.6 75.2456 22.184C75.3416 22.168 75.4056 22.152 75.4856 22.152C76.1576 22.152 76.6856 22.68 76.6856 23.352C76.6856 23.976 76.2856 24.424 75.6296 24.536C73.1976 24.952 70.0456 25.096 66.9416 25.096ZM77.0696 24.376V12.072C77.0696 11.256 77.7096 10.632 78.5096 10.632C79.3096 10.632 79.9496 11.256 79.9496 12.072V24.376C79.9496 25.208 79.3096 25.816 78.5096 25.816C77.7096 25.816 77.0696 25.208 77.0696 24.376ZM27.1656 29.112H34.1736C34.7816 29.112 35.2776 29.624 35.2776 30.232V30.824C35.2776 31.992 35.1656 34.568 34.7816 35.544C34.4936 36.264 33.8376 36.552 33.1016 36.376C32.4296 36.216 32.0776 35.784 32.0776 35.192C32.0776 35.08 32.0936 34.872 32.1416 34.648H27.3736C26.7656 34.648 26.2856 34.152 26.2856 33.56C26.2856 32.92 26.7656 32.44 27.3736 32.44H32.4136C32.4456 31.944 32.4616 31.512 32.4616 31.352H27.1656C26.5416 31.352 26.0456 30.872 26.0456 30.232C26.0456 29.608 26.5416 29.112 27.1656 29.112ZM36.7336 42.376V30.072C36.7336 29.256 37.3736 28.632 38.1736 28.632C38.9736 28.632 39.6136 29.256 39.6136 30.072V42.376C39.6136 43.208 38.9736 43.816 38.1736 43.816C37.3736 43.816 36.7336 43.208 36.7336 42.376ZM28.7336 41.8C29.1016 40.824 29.2616 39.976 29.3256 39.048H26.5256C25.9176 39.048 25.4056 38.536 25.4056 37.944C25.4056 37.32 25.9176 36.808 26.5256 36.808H35.1976C35.8376 36.808 36.3336 37.32 36.3336 37.944C36.3336 38.536 35.8376 39.048 35.1976 39.048H32.2216C32.1576 40.312 31.9656 41.672 31.5016 42.68C31.1496 43.432 30.6536 43.656 30.0456 43.656C29.0536 43.656 28.3816 42.744 28.7336 41.8ZM55.5656 30.408C55.5656 31.048 55.0696 31.592 54.3656 31.592H50.2056C50.2536 33.576 52.1416 35.272 54.7016 35.8C55.3096 35.928 55.7256 36.424 55.7256 37.032C55.7256 37.704 55.1816 38.28 54.5096 38.28C54.3976 38.28 54.2696 38.264 54.1896 38.248C51.6936 37.752 49.8056 36.616 48.7656 34.92C47.7256 36.616 45.8216 37.752 43.3416 38.248C43.2616 38.264 43.1336 38.28 43.0216 38.28C42.3496 38.28 41.8056 37.704 41.8056 37.032C41.8056 36.424 42.2216 35.928 42.8296 35.8C45.3896 35.272 47.2776 33.576 47.3256 31.592H43.1336C42.4936 31.592 41.9656 31.048 41.9656 30.408C41.9656 29.736 42.4936 29.192 43.1336 29.192H54.3656C55.0696 29.192 55.5656 29.736 55.5656 30.408ZM41.4056 42.056C41.4056 41.4 41.9656 40.856 42.6216 40.856H54.8936C55.5816 40.856 56.1256 41.4 56.1256 42.056C56.1256 42.696 55.5816 43.256 54.8936 43.256H42.6216C41.9656 43.256 41.4056 42.696 41.4056 42.056ZM59.1656 29.112H66.1736C66.7816 29.112 67.2776 29.624 67.2776 30.232V30.824C67.2776 31.992 67.1656 34.568 66.7816 35.544C66.4936 36.264 65.8376 36.552 65.1016 36.376C64.4296 36.216 64.0776 35.784 64.0776 35.192C64.0776 35.08 64.0936 34.872 64.1416 34.648H59.3736C58.7656 34.648 58.2856 34.152 58.2856 33.56C58.2856 32.92 58.7656 32.44 59.3736 32.44H64.4136C64.4456 31.944 64.4616 31.512 64.4616 31.352H59.1656C58.5416 31.352 58.0456 30.872 58.0456 30.232C58.0456 29.608 58.5416 29.112 59.1656 29.112ZM68.7336 42.376V30.072C68.7336 29.256 69.3736 28.632 70.1736 28.632C70.9736 28.632 71.6136 29.256 71.6136 30.072V42.376C71.6136 43.208 70.9736 43.816 70.1736 43.816C69.3736 43.816 68.7336 43.208 68.7336 42.376ZM60.7336 41.8C61.1016 40.824 61.2616 39.976 61.3256 39.048H58.5256C57.9176 39.048 57.4056 38.536 57.4056 37.944C57.4056 37.32 57.9176 36.808 58.5256 36.808H67.1976C67.8376 36.808 68.3336 37.32 68.3336 37.944C68.3336 38.536 67.8376 39.048 67.1976 39.048H64.2216C64.1576 40.312 63.9656 41.672 63.5016 42.68C63.1496 43.432 62.6536 43.656 62.0456 43.656C61.0536 43.656 60.3816 42.744 60.7336 41.8ZM87.5656 30.408C87.5656 31.048 87.0696 31.592 86.3656 31.592H82.2056C82.2536 33.576 84.1416 35.272 86.7016 35.8C87.3096 35.928 87.7256 36.424 87.7256 37.032C87.7256 37.704 87.1816 38.28 86.5096 38.28C86.3976 38.28 86.2696 38.264 86.1896 38.248C83.6936 37.752 81.8056 36.616 80.7656 34.92C79.7256 36.616 77.8216 37.752 75.3416 38.248C75.2616 38.264 75.1336 38.28 75.0216 38.28C74.3496 38.28 73.8056 37.704 73.8056 37.032C73.8056 36.424 74.2216 35.928 74.8296 35.8C77.3896 35.272 79.2776 33.576 79.3256 31.592H75.1336C74.4936 31.592 73.9656 31.048 73.9656 30.408C73.9656 29.736 74.4936 29.192 75.1336 29.192H86.3656C87.0696 29.192 87.5656 29.736 87.5656 30.408ZM73.4056 42.056C73.4056 41.4 73.9656 40.856 74.6216 40.856H86.8936C87.5816 40.856 88.1256 41.4 88.1256 42.056C88.1256 42.696 87.5816 43.256 86.8936 43.256H74.6216C73.9656 43.256 73.4056 42.696 73.4056 42.056ZM89.8856 41.4C89.8856 40.52 90.6216 39.784 91.5016 39.784C92.3816 39.784 93.1176 40.52 93.1176 41.4C93.1176 42.28 92.3816 43.016 91.5016 43.016C90.6216 43.016 89.8856 42.28 89.8856 41.4ZM93.1176 30.52L92.7816 37.464C92.7496 38.296 92.1416 38.664 91.5016 38.664C90.8616 38.664 90.2536 38.296 90.2216 37.464L89.8856 30.52C89.8536 29.688 90.5416 29 91.5016 29C92.4616 29 93.1496 29.688 93.1176 30.52Z" fill="#BBD2FF"/>
</svg>
