<svg width="960" height="311" viewBox="0 0 960 311" fill="none" xmlns="http://www.w3.org/2000/svg">
<g filter="url(#filter0_d_5011_5740)">
<path d="M140.729 87.8V68.4H97.1293V60.6H153.329V87.8H140.729ZM121.329 58.7V34.4H101.929V26.6H121.329V7.2H133.929V58.7H121.329ZM140.729 58.7V7.2H153.329V58.7H140.729ZM77.7293 53.8V7.2H90.3293V46H119.429V53.8H77.7293ZM162.39 87.8V60.6H175.09V80H223.59V87.8H162.39ZM162.39 58.7V50.9H223.59V58.7H162.39ZM162.39 49V41.2H167.29V36.3H172.09V31.5H176.99V26.6H181.79V21.8H186.69V7.2H199.29V21.8H204.19V26.6H208.99V31.5H213.89V36.3H218.69V41.2H223.59V49H210.89V44.1H206.09V39.3H201.19V34.4H196.39V29.6H189.59V34.4H184.79V39.3H179.89V44.1H175.09V49H162.39ZM261.81 82.8V48.9H232.71V41.1H261.81V14.9H232.71V7.2H274.51V82.8H261.81ZM281.21 82.8V7.2H293.91V36.3H300.61V7.2H313.31V82.8H300.61V44H293.91V82.8H281.21ZM322.549 82.8V75.1H327.449V70.2H332.249V65.4H337.149V60.5H341.949V7.2H354.549V60.5H359.449V65.4H364.249V70.2H369.149V75.1H373.949V82.8H361.349V78H356.549V73.1H351.649V68.3H344.849V73.1H340.049V78H335.149V82.8H322.549ZM375.949 82.8V7.2H388.549V82.8H375.949ZM722.31 87.8V82.9H717.41V65.4H722.31V60.6H768.91V65.4H773.71V82.9H768.91V87.8H722.31ZM761.11 80V68.4H730.11V80H761.11ZM761.11 58.7V7.2H773.71V26.6H788.31V34.4H773.71V58.7H761.11ZM707.71 53.8V7.2H754.31V15H720.41V46H759.21V53.8H707.71ZM807.071 87.8V60.6H863.371V87.8H807.071ZM850.771 80V68.4H819.771V80H850.771ZM792.571 58.7V50.9H797.371V46H802.271V41.2H807.071V36.3H811.971V24.7H792.571V16.9H843.971V24.7H824.571V36.3H829.471V41.2H834.271V46H839.171V50.9H843.971V58.7H831.371V53.8H826.471V49H821.671V44.1H814.871V49H810.071V53.8H805.171V58.7H792.571ZM850.771 58.7V39.3H831.371V31.5H850.771V7.2H863.371V58.7H850.771ZM797.371 15V7.2H839.171V15H797.371ZM871.651 82.9V60.6H884.251V82.9H871.651ZM871.651 53.8V12.1H884.251V53.8H871.651Z" fill="black"/>
<path d="M427.129 73.1V65.3H451.329V44H427.129V36.2H451.329V19.7H427.129V11.9H463.929V73.1H427.129ZM472.149 68.1V11.9H508.949V68.1H472.149ZM496.349 60.4V19.6H484.749V60.4H496.349ZM527.468 87.8V60.6H540.168V80H583.768V87.8H527.468ZM571.168 63.5V7.2H583.768V31.5H598.368V39.3H583.768V63.5H571.168ZM517.768 53.8V7.2H564.368V53.8H517.768ZM551.768 46V15H530.468V46H551.768ZM607.429 87.8V60.6H620.029V80H668.529V87.8H607.429ZM621.929 68.4V53.8H602.529V46H653.929V53.8H634.529V68.4H621.929ZM655.929 63.5V29.6H649.129V34.4H644.229V39.3H639.429V44.1H612.229V39.3H607.429V34.4H602.529V16.9H607.429V12.1H612.229V7.2H639.429V12.1H644.229V16.9H649.129V21.8H655.929V7.2H668.529V63.5H655.929ZM631.629 36.3V31.5H636.529V19.9H631.629V15H620.029V19.9H615.129V31.5H620.029V36.3H631.629Z" fill="#1F578B"/>
</g>
<g clip-path="url(#clip0_5011_5740)">
<path d="M351.477 152.45V147.6H346.627V145.65H359.477V147.6H354.627V152.45H351.477ZM359.977 151.225V132.3H363.127V151.225H359.977ZM355.127 145.175V140.325H346.627V138.375H355.127V134.25H346.627V132.3H358.277V145.175H355.127ZM365.352 151.2V149.275H380.652V151.2H365.352ZM365.352 145.15V143.2H366.577V142H367.777V140.775H369.002V139.575H370.202V138.35H371.427V134.225H365.352V132.3H380.652V134.225H374.577V138.35H375.802V139.575H377.002V140.775H378.227V142H379.427V143.2H380.652V145.15H377.477V143.925H376.277V142.725H375.052V141.5H373.852V140.3H372.152V141.5H370.952V142.725H369.727V143.925H368.527V145.15H365.352ZM390.277 148.775V146.825H396.327V141.5H390.277V139.55H396.327V135.425H390.277V133.475H399.477V148.775H390.277ZM401.607 152.45V145.65H404.782V150.5H416.907V152.45H401.607ZM407.682 148.8V145.175H401.607V143.225H416.907V145.175H410.832V148.8H407.682ZM401.607 141.525V132.3H416.907V141.525H401.607ZM413.732 139.575V134.25H404.782V139.575H413.732ZM419.187 151.2V149.275H420.412V148.05H421.612V146.85H422.837V134.225H419.187V132.3H430.837V134.225H425.987V145.625H427.212V146.85H428.412V148.05H429.637V149.275H430.837V151.2H427.687V150H426.462V148.775H425.262V147.575H424.787V148.775H423.562V150H422.362V151.2H419.187ZM431.312 151.2V142.725H427.687V140.775H431.312V132.3H434.487V151.2H431.312ZM436.162 151.2V132.3H439.337V151.2H436.162ZM441.622 152.45V146.85H453.747V146.375H441.622V144.425H456.922V148.8H444.797V150.5H456.922V152.45H441.622ZM441.622 143.95V142H456.922V143.95H441.622ZM441.622 141.525V135.95H453.747V134.25H441.622V132.3H456.922V137.9H444.797V139.575H456.922V141.525H441.622ZM466.622 151.2V149.275H472.697V145.15H466.622V132.3H481.922V145.15H475.847V149.275H481.922V151.2H466.622ZM478.747 143.2V134.225H469.797V143.2H478.747ZM490.202 152.45V147.6H484.127V145.65H499.427V147.6H493.352V152.45H490.202ZM484.127 142.75V132.3H499.427V134.25H487.302V140.8H499.427V142.75H484.127ZM514.052 152.45V150.5H515.277V149.275H516.477V148.075H517.702V147.6H511.627V145.65H526.927V147.6H520.852V148.075H522.077V149.275H523.277V150.5H524.502V152.45H521.327V151.225H520.127V150.025H518.427V151.225H517.227V152.45H514.052ZM522.552 145.175V132.3H525.702V137.15H529.352V139.1H525.702V145.175H522.552ZM509.202 143.95V132.3H520.852V143.95H509.202ZM517.702 142V134.25H512.377V142H517.702ZM532.817 151.2V150H531.617V148.775H530.392V139.575H531.617V138.35H532.817V137.15H539.617V138.35H540.817V139.575H542.042V148.775H540.817V150H539.617V151.2H532.817ZM543.742 151.2V132.3H546.892V151.2H543.742ZM537.667 149.275V148.05H538.892V140.3H537.667V139.075H534.767V140.3H533.542V148.05H534.767V149.275H537.667ZM530.392 136.65V134.725H542.042V136.65H530.392ZM531.617 134.225V132.3H540.817V134.225H531.617ZM551.617 152.45V150.5H552.842V149.275H554.042V148.075H555.267V145.65H558.417V148.075H559.642V149.275H561.317V148.075H562.542V145.65H565.692V148.075H566.917V149.275H568.117V150.5H569.342V152.45H566.167V151.225H564.967V150.025H563.267V151.225H562.067V152.45H558.892V151.225H557.692V150.025H555.992V151.225H554.792V152.45H551.617ZM549.192 145.175V143.225H550.417V142H551.617V140.8H552.842V139.575H554.042V132.3H557.217V139.575H558.417V140.8H559.642V142H560.842V143.225H562.067V145.175H558.892V143.95H557.692V142.75H556.467V141.525H554.792V142.75H553.567V143.95H552.367V145.175H549.192ZM563.742 145.175V140.325H558.892V138.375H563.742V136.675H558.892V134.725H563.742V132.3H566.917V145.175H563.742ZM570.432 151.2V132.3H582.082V134.225H573.607V149.275H583.307V151.2H570.432ZM583.782 151.2V132.3H586.932V139.575H590.582V141.5H586.932V151.2H583.782ZM595.273 152.45V145.65H598.448V150.5H609.348V152.45H595.273ZM606.198 146.375V141.525H603.298V143.95H591.648V132.3H603.298V134.725H606.198V132.3H609.348V146.375H606.198ZM600.123 142V134.25H594.798V142H600.123ZM606.198 139.575V136.675H603.298V139.575H606.198ZM611.443 152.675V150.725H612.643V149.025H611.443V147.075H615.793V151.45H614.593V152.675H611.443ZM221.665 179.2V160.3H232.115V179.2H221.665ZM233.79 179.2V160.3H236.965V167.575H238.64V160.3H241.815V179.2H238.64V169.5H236.965V179.2H233.79ZM228.94 177.275V162.225H224.84V177.275H228.94ZM246.6 180.45V174.85H257.525V174.375H246.6V172.425H260.675V176.8H249.775V178.5H260.675V180.45H246.6ZM257.525 171.95V160.3H260.675V165.15H264.325V167.1H260.675V171.95H257.525ZM244.175 170.75V160.3H255.825V162.25H247.35V168.8H257.05V170.75H244.175ZM275.335 180.45V174.85H286.26V174.375H275.335V172.425H289.41V176.8H278.51V178.5H289.41V180.45H275.335ZM286.26 171.95V160.3H289.41V165.15H293.06V167.1H289.41V171.95H286.26ZM272.91 170.75V160.3H284.56V170.75H272.91ZM281.41 168.8V162.25H276.085V168.8H281.41ZM296.526 180.45V174.85H307.451V174.375H296.526V172.425H310.601V176.8H299.676V178.5H310.601V180.45H296.526ZM296.526 171.95V170.75H295.326V169.525H294.101V162.725H295.326V161.525H296.526V160.3H303.326V161.525H304.526V162.725H305.751V169.525H304.526V170.75H303.326V171.95H296.526ZM307.451 171.95V160.3H310.601V171.95H307.451ZM301.376 170V168.8H302.601V163.475H301.376V162.25H298.476V163.475H297.251V168.8H298.476V170H301.376ZM536.516 179.2V178H535.316V176.775H534.091V162.725H535.316V161.5H536.516V160.3H543.316V161.5H544.516V162.725H545.741V176.775H544.516V178H543.316V179.2H536.516ZM547.441 179.2V160.3H550.591V179.2H547.441ZM541.366 177.275V176.05H542.591V163.45H541.366V162.225H538.466V163.45H537.241V176.05H538.466V177.275H541.366ZM558.966 180.45V173.65H562.116V178.5H573.041V180.45H558.966ZM565.016 174.375V167.1H563.341V171.95H552.891V160.3H556.066V163.95H560.166V160.3H563.341V165.15H565.016V160.3H568.191V174.375H565.016ZM569.866 174.375V160.3H573.041V174.375H569.866ZM560.166 170V165.9H556.066V170H560.166ZM575.326 179.2V177.275H590.626V179.2H575.326ZM575.326 174.35V160.3H590.626V162.225H578.501V166.35H590.626V168.3H578.501V172.425H590.626V174.35H575.326ZM595.33 179.2V178H594.13V176.775H592.905V162.725H594.13V161.5H595.33V160.3H600.93V161.5H602.13V162.725H603.355V168.775H605.03V160.3H608.205V179.2H605.03V170.725H603.355V176.775H602.13V178H600.93V179.2H595.33ZM609.88 179.2V160.3H613.055V179.2H609.88ZM598.98 177.275V176.05H600.18V163.45H598.98V162.225H597.28V163.45H596.08V176.05H597.28V177.275H598.98ZM624.06 180.45V179.225H622.835V174.85H624.06V173.65H636.91V174.85H638.135V179.225H636.91V180.45H624.06ZM634.96 178.5V175.6H626.01V178.5H634.96ZM622.835 171.95V170H638.135V171.95H622.835ZM625.26 169.525V168.325H624.06V167.1H622.835V162.725H624.06V161.525H625.26V160.3H635.71V161.525H636.91V162.725H638.135V167.1H636.91V168.325H635.71V169.525H625.26ZM633.76 167.575V166.375H634.96V163.475H633.76V162.25H627.21V163.475H626.01V166.375H627.21V167.575H633.76ZM640.34 179.2V177.275H646.415V173.15H640.34V160.3H655.64V173.15H649.565V177.275H655.64V179.2H640.34ZM652.465 171.2V162.225H643.515V171.2H652.465ZM660.345 179.2V178H659.12V176.775H657.92V167.575H659.12V166.35H660.345V165.15H665.92V166.35H667.12V167.575H668.345V176.775H667.12V178H665.92V179.2H660.345ZM668.82 179.2V160.3H671.97V167.575H673.67V160.3H676.82V179.2H673.67V169.5H671.97V179.2H668.82ZM663.97 177.275V176.05H665.195V168.3H663.97V167.075H662.27V168.3H661.07V176.05H662.27V177.275H663.97ZM657.92 164.65V162.725H668.345V164.65H657.92ZM659.12 162.225V160.3H667.12V162.225H659.12ZM679.085 179.2V177.275H685.16V173.15H679.085V160.3H682.26V165.15H691.21V160.3H694.385V173.15H688.31V177.275H694.385V179.2H679.085ZM691.21 171.2V167.075H682.26V171.2H691.21ZM696.665 179.2V177.275H697.89V176.05H699.09V174.85H700.315V160.3H703.465V173.625H704.69V174.85H705.89V176.05H707.115V177.275H708.315V179.2H705.165V178H703.94V176.775H702.74V175.575H702.265V176.775H701.04V178H699.84V179.2H696.665ZM708.79 179.2V170.725H705.165V168.775H708.79V160.3H711.965V179.2H708.79ZM713.64 179.2V160.3H716.815V179.2H713.64ZM719.1 179.2V177.275H721.525V171.925H720.325V170.725H719.1V162.725H720.325V161.5H721.525V160.3H731.975V161.5H733.175V162.725H734.4V170.725H733.175V171.925H731.975V177.275H734.4V179.2H719.1ZM728.8 177.275V173.15H724.7V177.275H728.8ZM730.025 171.2V170H731.225V163.45H730.025V162.225H723.475V163.45H722.275V170H723.475V171.2H730.025ZM736.43 179.225V173.65H739.58V179.225H736.43ZM736.43 171.95V161.525H739.58V171.95H736.43ZM305.18 208.45V203.6H299.105V201.65H314.405V203.6H308.33V208.45H305.18ZM299.105 201.175V199.225H300.33V198H301.53V196.8H302.755V195.575H303.955V194.375H305.18V192.675H299.105V190.725H314.405V192.675H308.33V194.375H309.555V195.575H310.755V196.8H311.98V198H313.18V199.225H314.405V201.175H311.23V199.95H310.03V198.75H308.805V197.525H307.605V196.325H305.905V197.525H304.705V198.75H303.48V199.95H302.28V201.175H299.105ZM300.33 190.25V188.3H313.18V190.25H300.33ZM320.285 208.45V201.65H334.36V208.45H320.285ZM331.21 206.5V203.6H323.46V206.5H331.21ZM316.66 201.175V199.225H317.86V198H319.085V196.8H320.285V195.575H321.51V192.675H316.66V190.725H329.51V192.675H324.66V195.575H325.885V196.8H327.085V198H328.31V199.225H329.51V201.175H326.36V199.95H325.135V198.75H323.935V197.525H322.235V198.75H321.035V199.95H319.81V201.175H316.66ZM331.21 201.175V196.325H326.36V194.375H331.21V188.3H334.36V201.175H331.21ZM317.86 190.25V188.3H328.31V190.25H317.86ZM336.605 208.45V202.85H348.73V202.375H336.605V200.425H351.905V204.8H339.78V206.5H351.905V208.45H336.605ZM336.605 199.95V198H351.905V199.95H336.605ZM339.03 197.525V196.325H337.83V195.1H336.605V190.725H337.83V189.525H339.03V188.3H349.48V189.525H350.68V190.725H351.905V195.1H350.68V196.325H349.48V197.525H339.03ZM347.53 195.575V194.375H348.73V191.475H347.53V190.25H340.98V191.475H339.78V194.375H340.98V195.575H347.53ZM362.83 208.45V207.225H361.605V204.075H362.83V202.85H375.68V204.075H376.905V207.225H375.68V208.45H362.83ZM373.73 206.5V204.8H364.78V206.5H373.73ZM361.605 201.175V199.225H367.68V197.525H361.605V188.3H376.905V190.25H364.78V191.95H376.905V193.9H364.78V195.575H376.905V197.525H370.83V199.225H376.905V201.175H361.605ZM381.61 207.2V206H380.385V204.775H379.185V195.575H380.385V194.35H381.61V193.15H387.185V194.35H388.385V195.575H389.61V204.775H388.385V206H387.185V207.2H381.61ZM390.085 207.2V188.3H393.235V195.575H394.935V188.3H398.085V207.2H394.935V197.5H393.235V207.2H390.085ZM385.235 205.275V204.05H386.46V196.3H385.235V195.075H383.535V196.3H382.335V204.05H383.535V205.275H385.235ZM379.185 192.65V190.725H389.61V192.65H379.185ZM380.385 190.225V188.3H388.385V190.225H380.385ZM423.67 208.45V203.6H412.77V201.65H426.82V208.45H423.67ZM418.82 201.175V195.1H413.97V193.15H418.82V188.3H421.97V201.175H418.82ZM423.67 201.175V188.3H426.82V201.175H423.67ZM407.92 199.95V188.3H411.07V198H418.345V199.95H407.92ZM429.085 208.45V201.65H432.26V206.5H444.385V208.45H429.085ZM429.085 201.175V199.225H444.385V201.175H429.085ZM429.085 198.75V196.8H430.31V195.575H431.51V194.375H432.735V193.15H433.935V191.95H435.16V188.3H438.31V191.95H439.535V193.15H440.735V194.375H441.96V195.575H443.16V196.8H444.385V198.75H441.21V197.525H440.01V196.325H438.785V195.1H437.585V193.9H435.885V195.1H434.685V196.325H433.46V197.525H432.26V198.75H429.085ZM453.94 207.2V198.725H446.665V196.775H453.94V190.225H446.665V188.3H457.115V207.2H453.94ZM458.79 207.2V188.3H461.965V195.575H463.64V188.3H466.815V207.2H463.64V197.5H461.965V207.2H458.79ZM469.125 207.2V205.275H470.35V204.05H471.55V202.85H472.775V201.625H473.975V188.3H477.125V201.625H478.35V202.85H479.55V204.05H480.775V205.275H481.975V207.2H478.825V206H477.625V204.775H476.4V203.575H474.7V204.775H473.5V206H472.275V207.2H469.125ZM482.475 207.2V188.3H485.625V207.2H482.475ZM495.27 204.775V202.825H501.32V197.5H495.27V195.55H501.32V191.425H495.27V189.475H504.47V204.775H495.27ZM506.525 203.525V189.475H515.725V203.525H506.525ZM512.575 201.6V191.4H509.675V201.6H512.575ZM520.355 208.45V201.65H523.53V206.5H534.43V208.45H520.355ZM531.28 202.375V188.3H534.43V194.375H538.08V196.325H534.43V202.375H531.28ZM517.93 199.95V188.3H529.58V199.95H517.93ZM526.43 198V190.25H521.105V198H526.43ZM540.345 208.45V201.65H543.495V206.5H555.62V208.45H540.345ZM543.97 203.6V199.95H539.12V198H551.97V199.95H547.12V203.6H543.97ZM552.47 202.375V193.9H550.77V195.1H549.545V196.325H548.345V197.525H541.545V196.325H540.345V195.1H539.12V190.725H540.345V189.525H541.545V188.3H548.345V189.525H549.545V190.725H550.77V191.95H552.47V188.3H555.62V202.375H552.47ZM546.395 195.575V194.375H547.62V191.475H546.395V190.25H543.495V191.475H542.27V194.375H543.495V195.575H546.395ZM557.845 208.45V202.85H569.97V202.375H557.845V200.425H573.145V204.8H561.02V206.5H573.145V208.45H557.845ZM557.845 199.95V198H573.145V199.95H557.845ZM560.27 197.525V196.325H559.07V195.1H557.845V190.725H559.07V189.525H560.27V188.3H570.72V189.525H571.92V190.725H573.145V195.1H571.92V196.325H570.72V197.525H560.27ZM568.77 195.575V194.375H569.97V191.475H568.77V190.25H562.22V191.475H561.02V194.375H562.22V195.575H568.77ZM582.845 207.2V205.275H598.145V207.2H582.845ZM582.845 201.15V188.3H598.145V190.225H586.02V199.2H598.145V201.15H582.845ZM602.8 208.45V200.425H605.95V202.85H613.725V200.425H616.875V208.45H602.8ZM613.725 206.5V204.8H605.95V206.5H613.725ZM600.375 199.95V193.15H608.875V190.25H600.375V188.3H612.025V195.1H603.525V198H612.025V199.95H600.375ZM613.725 199.95V188.3H616.875V199.95H613.725ZM619.125 207.2V188.3H622.275V205.275H630.775V207.2H619.125ZM632.475 207.2V188.3H635.625V207.2H632.475ZM637.925 207.2V188.3H649.575V190.225H641.1V205.275H650.8V207.2H637.925ZM651.275 207.2V188.3H654.425V195.575H658.075V197.5H654.425V207.2H651.275ZM658.915 207.225V201.65H662.065V207.225H658.915ZM658.915 199.95V189.525H662.065V199.95H658.915Z" fill="black"/>
<path d="M320.146 165.675V161.325H323.296V165.675H320.146ZM339.905 180.45V175.6H329.005V173.65H343.055V180.45H339.905ZM335.055 173.175V167.1H330.205V165.15H335.055V160.3H338.205V173.175H335.055ZM339.905 173.175V160.3H343.055V173.175H339.905ZM324.155 171.95V160.3H327.305V170H334.58V171.95H324.155ZM345.321 180.45V173.65H348.496V178.5H360.621V180.45H345.321ZM345.321 173.175V171.225H360.621V173.175H345.321ZM345.321 170.75V168.8H346.546V167.575H347.746V166.375H348.971V165.15H350.171V163.95H351.396V160.3H354.546V163.95H355.771V165.15H356.971V166.375H358.196V167.575H359.396V168.8H360.621V170.75H357.446V169.525H356.246V168.325H355.021V167.1H353.821V165.9H352.121V167.1H350.921V168.325H349.696V169.525H348.496V170.75H345.321ZM370.176 179.2V170.725H362.901V168.775H370.176V162.225H362.901V160.3H373.351V179.2H370.176ZM375.026 179.2V160.3H378.201V167.575H379.876V160.3H383.051V179.2H379.876V169.5H378.201V179.2H375.026ZM385.36 179.2V177.275H386.585V176.05H387.785V174.85H389.01V173.625H390.21V160.3H393.36V173.625H394.585V174.85H395.785V176.05H397.01V177.275H398.21V179.2H395.06V178H393.86V176.775H392.635V175.575H390.935V176.775H389.735V178H388.51V179.2H385.36ZM398.71 179.2V160.3H401.86V179.2H398.71ZM411.505 176.775V174.825H417.555V169.5H411.505V167.55H417.555V163.425H411.505V161.475H420.705V176.775H411.505ZM422.76 175.525V161.475H431.96V175.525H422.76ZM428.81 173.6V163.4H425.91V173.6H428.81ZM436.59 180.45V173.65H439.765V178.5H450.665V180.45H436.59ZM447.515 174.375V160.3H450.665V166.375H454.315V168.325H450.665V174.375H447.515ZM434.165 171.95V160.3H445.815V171.95H434.165ZM442.665 170V162.25H437.34V170H442.665ZM456.58 180.45V173.65H459.73V178.5H471.855V180.45H456.58ZM460.205 175.6V171.95H455.355V170H468.205V171.95H463.355V175.6H460.205ZM468.705 174.375V165.9H467.005V167.1H465.78V168.325H464.58V169.525H457.78V168.325H456.58V167.1H455.355V162.725H456.58V161.525H457.78V160.3H464.58V161.525H465.78V162.725H467.005V163.95H468.705V160.3H471.855V174.375H468.705ZM462.63 167.575V166.375H463.855V163.475H462.63V162.25H459.73V163.475H458.505V166.375H459.73V167.575H462.63ZM485.301 180.45V179.225H484.076V174.85H485.301V173.65H496.951V174.85H498.151V179.225H496.951V180.45H485.301ZM495.001 178.5V175.6H487.251V178.5H495.001ZM495.001 173.175V160.3H498.151V165.15H501.801V167.1H498.151V173.175H495.001ZM481.651 171.95V160.3H493.301V162.25H484.826V170H494.526V171.95H481.651ZM506.491 180.45V173.65H520.566V180.45H506.491ZM517.416 178.5V175.6H509.666V178.5H517.416ZM502.866 173.175V171.225H504.066V170H505.291V168.8H506.491V167.575H507.716V164.675H502.866V162.725H515.716V164.675H510.866V167.575H512.091V168.8H513.291V170H514.516V171.225H515.716V173.175H512.566V171.95H511.341V170.75H510.141V169.525H508.441V170.75H507.241V171.95H506.016V173.175H502.866ZM517.416 173.175V168.325H512.566V166.375H517.416V160.3H520.566V173.175H517.416ZM504.066 162.25V160.3H514.516V162.25H504.066ZM522.636 165.675V161.325H525.786V165.675H522.636Z" fill="#1F578B"/>
</g>
<rect x="163" y="245" width="117" height="32" rx="16" fill="#1F578B"/>
<rect x="276" y="280" width="136" height="30" rx="15" fill="black"/>
<path d="M182.898 271.548V270.274H181.624V265.724H182.898V264.476H196.262V265.724H197.536V270.274H196.262V271.548H182.898ZM194.234 269.52V266.504H184.926V269.52H194.234ZM181.624 262.708V260.68H197.536V262.708H181.624ZM184.146 260.186V258.938H182.898V257.664H181.624V253.114H182.898V251.866H184.146V250.592H195.014V251.866H196.262V253.114H197.536V257.664H196.262V258.938H195.014V260.186H184.146ZM192.986 258.158V256.91H194.234V253.894H192.986V252.62H186.174V253.894H184.926V256.91H186.174V258.158H192.986ZM199.83 270.248V268.246H206.148V263.956H199.83V250.592H215.742V263.956H209.424V268.246H215.742V270.248H199.83ZM212.44 261.928V252.594H203.132V261.928H212.44ZM234.696 270.248V252.594H225.856V250.592H237.972V270.248H234.696ZM239.74 270.248V250.592H243.016V270.248H239.74ZM249.204 271.548V264.476H252.48V269.52H263.842V271.548H249.204ZM259.292 265.23V250.592H262.568V256.91H266.364V258.938H262.568V265.23H259.292ZM254.248 263.982V252.62H245.408V250.592H257.524V263.982H254.248Z" fill="#FFD70D"/>
<path d="M295.376 304.548V303.274H294.102V298.724H295.376V297.476H307.492V298.724H308.74V303.274H307.492V304.548H295.376ZM305.464 302.52V299.504H297.404V302.52H305.464ZM305.464 296.982V283.592H308.74V288.636H312.536V290.664H308.74V296.982H305.464ZM291.58 295.708V283.592H303.696V285.62H294.882V293.68H304.97V295.708H291.58ZM317.414 304.548V297.476H332.052V304.548H317.414ZM328.776 302.52V299.504H320.716V302.52H328.776ZM313.644 296.982V294.954H314.892V293.68H316.166V292.432H317.414V291.158H318.688V288.142H313.644V286.114H327.008V288.142H321.964V291.158H323.238V292.432H324.486V293.68H325.76V294.954H327.008V296.982H323.732V295.708H322.458V294.46H321.21V293.186H319.442V294.46H318.194V295.708H316.92V296.982H313.644ZM328.776 296.982V291.938H323.732V289.91H328.776V283.592H332.052V296.982H328.776ZM314.892 285.62V283.592H325.76V285.62H314.892ZM334.465 303.248V301.246H335.739V299.972H336.987V298.724H338.261V297.45H339.509V285.594H334.465V283.592H347.855V285.594H342.811V297.45H344.059V298.724H345.333V299.972H346.581V301.246H347.855V303.248H344.553V302H343.305V300.726H342.031V299.478H340.289V300.726H339.015V302H337.767V303.248H334.465ZM348.349 303.248V283.592H351.625V291.158H355.421V293.16H351.625V303.248H348.349ZM366.872 304.548V298.724H378.234V298.23H366.872V296.202H381.51V300.752H370.174V302.52H381.51V304.548H366.872ZM378.234 295.708V283.592H381.51V288.636H385.306V290.664H381.51V295.708H378.234ZM364.35 294.46V283.592H367.652V287.388H373.19V283.592H376.466V294.46H364.35ZM373.19 292.432V289.416H367.652V292.432H373.19ZM386.362 303.248V301.246H388.884V296.956H386.362V294.928H388.884V286.114H392.186V294.928H396.45V286.114H399.752V294.928H402.274V296.956H399.752V301.246H402.274V303.248H386.362ZM396.45 301.246V296.956H392.186V301.246H396.45ZM386.362 285.594V283.592H402.274V285.594H386.362Z" fill="white"/>
<path d="M297.07 267.726V262.682H290.752V251.814H294.028V260.654H297.07V251.814H300.346V260.654H302.868V262.682H300.346V267.726H297.07ZM303.674 269V264.45H304.948V260.68H306.196V256.884H307.47V251.84H310.746V257.638H309.472V261.434H308.224V265.204H306.95V269H303.674ZM312.816 267.726V265.698H319.108V260.16H312.816V258.132H319.108V253.842H312.816V251.814H322.384V267.726H312.816ZM324.521 266.426V251.814H334.089V266.426H324.521ZM330.813 264.424V253.816H327.797V264.424H330.813ZM338.67 270.248V269H337.422V266.478H336.148V254.362H337.422V251.84H338.67V250.592H341.972V252.594H340.698V255.116H339.45V265.724H340.698V268.246H341.972V270.248H338.67ZM344.177 270.248V268.246H349.221V266.478H346.699V265.204H345.451V263.956H344.177V258.158H345.451V256.884H346.699V255.636H353.771V256.884H355.045V258.158H356.293V263.956H355.045V265.204H353.771V266.478H352.523V268.246H357.567V270.248H344.177ZM358.061 270.248V250.592H361.337V259.406H365.133V261.434H361.337V270.248H358.061ZM351.743 264.45V263.202H353.017V258.912H351.743V257.638H348.727V258.912H347.479V263.202H348.727V264.45H351.743ZM344.177 255.116V253.114H356.293V255.116H344.177ZM345.451 252.594V250.592H355.045V252.594H345.451ZM366.033 270.248V268.246H367.307V265.724H368.555V255.116H367.307V252.594H366.033V250.592H369.335V251.84H370.583V254.362H371.857V266.478H370.583V269H369.335V270.248H366.033ZM373.828 271.782V269.754H375.076V267.986H373.828V265.958H378.352V270.508H377.104V271.782H373.828ZM386.906 267.726V265.698H393.198V260.16H386.906V251.814H396.474V253.842H390.182V258.132H396.474V267.726H386.906ZM398.559 269V264.45H399.833V260.68H401.081V256.884H402.355V251.84H405.631V257.638H404.357V261.434H403.109V265.204H401.835V269H398.559ZM407.701 267.726V265.698H413.993V260.16H407.701V258.132H413.993V253.842H407.701V251.814H417.269V267.726H407.701ZM420.602 267.726V251.814H423.878V267.726H420.602ZM429.645 270.248V269H428.397V266.478H427.123V254.362H428.397V251.84H429.645V250.592H432.947V252.594H431.673V255.116H430.425V265.724H431.673V268.246H432.947V270.248H429.645ZM435.074 271.548V264.476H450.986V271.548H435.074ZM447.684 269.52V266.504H438.376V269.52H447.684ZM435.074 262.708V260.68H450.986V262.708H435.074ZM447.684 260.186V252.62H435.074V250.592H450.986V260.186H447.684ZM453.123 270.248V268.246H454.397V265.724H455.645V255.116H454.397V252.594H453.123V250.592H456.425V251.84H457.673V254.362H458.947V266.478H457.673V269H456.425V270.248H453.123ZM460.918 271.782V269.754H462.166V267.986H460.918V265.958H465.442V270.508H464.194V271.782H460.918ZM473.996 267.726V251.814H482.316V253.842H477.272V258.132H483.564V267.726H473.996ZM480.288 265.698V260.16H477.272V265.698H480.288ZM485.649 269V264.45H486.923V260.68H488.171V256.884H489.445V251.84H492.721V257.638H491.447V261.434H490.199V265.204H488.925V269H485.649ZM494.791 267.726V265.698H501.083V260.16H494.791V258.132H501.083V253.842H494.791V251.814H504.359V267.726H494.791ZM506.496 266.426V251.814H516.064V266.426H506.496ZM512.788 264.424V253.816H509.772V264.424H512.788ZM520.645 270.248V269H519.397V266.478H518.123V254.362H519.397V251.84H520.645V250.592H523.947V252.594H522.673V255.116H521.425V265.724H522.673V268.246H523.947V270.248H520.645ZM528.622 271.548V265.724H539.984V265.23H528.622V263.202H543.26V267.752H531.898V269.52H543.26V271.548H528.622ZM528.622 262.708V261.46H527.374V260.186H526.1V253.114H527.374V251.866H528.622V250.592H535.694V251.866H536.942V253.114H538.216V260.186H536.942V261.46H535.694V262.708H528.622ZM539.984 262.708V250.592H543.26V262.708H539.984ZM533.666 260.68V259.432H534.94V253.894H533.666V252.62H530.65V253.894H529.376V259.432H530.65V260.68H533.666ZM545.418 270.248V268.246H546.692V265.724H547.94V255.116H546.692V252.594H545.418V250.592H548.72V251.84H549.968V254.362H551.242V266.478H549.968V269H548.72V270.248H545.418ZM561.164 270.248V268.246H567.482V263.956H563.686V262.682H562.438V261.434H561.164V253.114H562.438V251.84H563.686V250.592H574.554V251.84H575.802V253.114H577.076V261.434H575.802V262.682H574.554V263.956H570.758V268.246H577.076V270.248H561.164ZM572.526 261.928V260.68H573.774V253.868H572.526V252.594H565.714V253.868H564.466V260.68H565.714V261.928H572.526ZM583.191 271.548V264.476H586.493V269.52H597.829V271.548H583.191ZM594.553 265.23V257.664H589.509V255.636H594.553V250.592H597.829V265.23H594.553ZM579.421 263.982V261.954H580.669V260.68H581.943V259.432H583.191V258.158H584.465V252.62H579.421V250.592H592.785V252.62H587.741V258.158H589.015V259.432H590.263V260.68H591.537V261.954H592.785V263.982H589.509V262.708H588.235V261.46H586.987V260.186H585.219V261.46H583.971V262.708H582.697V263.982H579.421ZM607.88 266.426V251.814H617.448V266.426H607.88ZM614.172 264.424V253.816H611.156V264.424H614.172ZM619.69 270.248V268.246H620.964V266.972H622.212V265.724H623.486V264.45H624.734V250.592H628.01V264.45H629.284V265.724H630.532V266.972H631.806V268.246H633.054V270.248H629.778V269H628.53V267.726H627.256V266.478H625.488V267.726H624.24V269H622.966V270.248H619.69ZM633.574 270.248V250.592H636.85V270.248H633.574ZM646.958 262.682V260.68H648.232V259.406H649.48V258.158H655.304V259.406H656.552V260.68H658.32V259.406H659.568V258.158H662.87V260.16H661.596V261.434H660.348V262.682H654.524V261.434H653.276V260.16H651.508V261.434H650.26V262.682H646.958ZM672.958 270.248V268.246H679.276V263.956H675.48V262.682H674.232V261.434H672.958V253.114H674.232V251.84H675.48V250.592H686.348V251.84H687.596V253.114H688.87V261.434H687.596V262.682H686.348V263.956H682.552V268.246H688.87V270.248H672.958ZM684.32 261.928V260.68H685.568V253.868H684.32V252.594H677.508V253.868H676.26V260.68H677.508V261.928H684.32ZM697.482 271.548V267.752H691.164V265.724H707.076V267.752H700.758V271.548H697.482ZM694.96 265.23V263.982H693.686V262.708H692.438V258.158H693.686V256.91H694.96V255.636H703.28V256.91H704.554V258.158H705.802V262.708H704.554V263.982H703.28V265.23H694.96ZM701.252 263.202V261.954H702.526V258.938H701.252V257.664H696.988V258.938H695.714V261.954H696.988V263.202H701.252ZM691.164 255.142V253.114H707.076V255.142H691.164ZM692.438 252.62V250.592H705.802V252.62H692.438ZM718.282 267.726V251.814H721.558V267.726H718.282ZM726.076 267.726V251.814H729.352V267.726H726.076ZM732.779 270.248V268.246H734.053V266.972H735.301V265.724H736.575V264.45H737.823V250.592H741.099V264.45H742.373V265.724H743.621V266.972H744.895V268.246H746.143V270.248H742.867V269H741.619V267.726H740.345V266.478H738.577V267.726H737.329V269H736.055V270.248H732.779ZM746.663 270.248V250.592H749.939V270.248H746.663ZM759.97 267.726V265.698H766.262V260.16H759.97V251.814H769.538V253.842H763.246V258.132H769.538V267.726H759.97ZM772.923 267.726V265.698H777.967V261.408H771.675V251.814H781.243V267.726H772.923ZM777.967 259.38V253.842H774.951V259.38H777.967ZM783.458 271.548V264.476H786.76V269.52H799.37V271.548H783.458ZM789.776 267.752V263.982H783.458V261.954H799.37V263.982H793.052V267.752H789.776ZM783.458 260.186V250.592H786.76V253.114H796.068V250.592H799.37V260.186H783.458ZM796.068 258.158V255.142H786.76V258.158H796.068Z" fill="#1F578B"/>
<path d="M435.669 300.726V298.698H441.961V293.16H435.669V284.814H445.237V286.842H438.945V291.132H445.237V300.726H435.669ZM447.322 302V297.45H448.596V293.68H449.844V289.884H451.118V284.84H454.394V290.638H453.12V294.434H451.872V298.204H450.598V302H447.322ZM457.659 300.726V284.814H460.935V300.726H457.659ZM470.602 300.726V295.682H464.284V284.814H467.56V293.654H470.602V284.814H473.878V293.654H476.4V295.682H473.878V300.726H470.602ZM479.702 303.248V302H478.454V299.478H477.18V287.362H478.454V284.84H479.702V283.592H483.004V285.594H481.73V288.116H480.482V298.724H481.73V301.246H483.004V303.248H479.702ZM485.209 303.248V301.246H490.253V299.478H487.731V298.204H486.483V296.956H485.209V291.158H486.483V289.884H487.731V288.636H494.803V289.884H496.077V291.158H497.325V296.956H496.077V298.204H494.803V299.478H493.555V301.246H498.599V303.248H485.209ZM499.093 303.248V283.592H502.369V292.406H506.165V294.434H502.369V303.248H499.093ZM492.775 297.45V296.202H494.049V291.912H492.775V290.638H489.759V291.912H488.511V296.202H489.759V297.45H492.775ZM485.209 288.116V286.114H497.325V288.116H485.209ZM486.483 285.594V283.592H496.077V285.594H486.483ZM507.065 303.248V301.246H508.339V298.724H509.587V288.116H508.339V285.594H507.065V283.592H510.367V284.84H511.615V287.362H512.889V299.478H511.615V302H510.367V303.248H507.065ZM514.86 304.782V302.754H516.108V300.986H514.86V298.958H519.384V303.508H518.136V304.782H514.86ZM527.938 300.726V284.814H536.258V286.842H531.214V291.132H537.506V300.726H527.938ZM534.23 298.698V293.16H531.214V298.698H534.23ZM539.591 302V297.45H540.865V293.68H542.113V289.884H543.387V284.84H546.663V290.638H545.389V294.434H544.141V298.204H542.867V302H539.591ZM549.929 300.726V284.814H553.205V300.726H549.929ZM562.872 300.726V295.682H556.554V284.814H559.83V293.654H562.872V284.814H566.148V293.654H568.67V295.682H566.148V300.726H562.872ZM571.972 303.248V302H570.724V299.478H569.45V287.362H570.724V284.84H571.972V283.592H575.274V285.594H574V288.116H572.752V298.724H574V301.246H575.274V303.248H571.972ZM577.401 304.548V297.476H593.313V304.548H577.401ZM590.011 302.52V299.504H580.703V302.52H590.011ZM577.401 295.708V293.68H593.313V295.708H577.401ZM590.011 293.186V285.62H577.401V283.592H593.313V293.186H590.011ZM595.45 303.248V301.246H596.724V298.724H597.972V288.116H596.724V285.594H595.45V283.592H598.752V284.84H600V287.362H601.274V299.478H600V302H598.752V303.248H595.45ZM603.245 304.782V302.754H604.493V300.986H603.245V298.958H607.769V303.508H606.521V304.782H603.245ZM621.315 300.726V286.842H615.023V284.814H624.591V300.726H621.315ZM626.681 302V297.45H627.955V293.68H629.203V289.884H630.477V284.84H633.753V290.638H632.479V294.434H631.231V298.204H629.957V302H626.681ZM637.019 300.726V284.814H640.295V300.726H637.019ZM649.962 300.726V295.682H643.644V284.814H646.92V293.654H649.962V284.814H653.238V293.654H655.76V295.682H653.238V300.726H649.962ZM659.062 303.248V302H657.814V299.478H656.54V287.362H657.814V284.84H659.062V283.592H662.364V285.594H661.09V288.116H659.842V298.724H661.09V301.246H662.364V303.248H659.062ZM667.039 304.548V298.724H678.401V298.23H667.039V296.202H681.677V300.752H670.315V302.52H681.677V304.548H667.039ZM667.039 295.708V294.46H665.791V293.186H664.517V286.114H665.791V284.866H667.039V283.592H674.111V284.866H675.359V286.114H676.633V293.186H675.359V294.46H674.111V295.708H667.039ZM678.401 295.708V283.592H681.677V295.708H678.401ZM672.083 293.68V292.432H673.357V286.894H672.083V285.62H669.067V286.894H667.793V292.432H669.067V293.68H672.083ZM683.835 303.248V301.246H685.109V298.724H686.357V288.116H685.109V285.594H683.835V283.592H687.137V284.84H688.385V287.362H689.659V299.478H688.385V302H687.137V303.248H683.835Z" fill="black"/>
<defs>
<filter id="filter0_d_5011_5740" x="77.7293" y="7.2" width="806.522" height="84.6" filterUnits="userSpaceOnUse" color-interpolation-filters="sRGB">
<feFlood flood-opacity="0" result="BackgroundImageFix"/>
<feColorMatrix in="SourceAlpha" type="matrix" values="0 0 0 0 0 0 0 0 0 0 0 0 0 0 0 0 0 0 127 0" result="hardAlpha"/>
<feOffset dy="4"/>
<feComposite in2="hardAlpha" operator="out"/>
<feColorMatrix type="matrix" values="0 0 0 0 1 0 0 0 0 0.6 0 0 0 0 0 0 0 0 0.43 0"/>
<feBlend mode="normal" in2="BackgroundImageFix" result="effect1_dropShadow_5011_5740"/>
<feBlend mode="normal" in="SourceGraphic" in2="effect1_dropShadow_5011_5740" result="shape"/>
</filter>
<clipPath id="clip0_5011_5740">
<rect width="521" height="84" fill="white" transform="translate(220 128)"/>
</clipPath>
</defs>
</svg>
