<svg width="1188" height="1176" viewBox="0 0 1188 1176" fill="none" xmlns="http://www.w3.org/2000/svg">
<path d="M1068.62 1043.01C1059.4 1037.23 1053.74 1032.8 1047.34 1024.43C1039.96 1014.59 1061.86 1007.22 1065.3 996.638C1070.47 981.018 1049.19 962.077 1020.77 958.88C935.162 949.532 889.158 970.687 822.612 954.944C821.751 954.698 814.616 959.249 815.477 959.495C883.869 979.296 936.392 956.912 1015.85 964.414C1041.81 966.874 1059.28 980.28 1054.23 994.67C1051.28 1003.03 1036.77 1010.17 1033.81 1018.78C1029.26 1032.43 1051.65 1042.02 1062.35 1049.77C1067.76 1053.58 1074.16 1046.57 1068.62 1043.01Z" fill="url(#paint0_linear_2795_3243)"/>
<path style="mix-blend-mode:multiply" d="M1068.62 1043.01C1059.4 1037.23 1053.74 1032.8 1047.34 1024.43C1039.96 1014.59 1061.86 1007.22 1065.3 996.638C1065.8 994.916 1066.04 993.194 1066.04 991.472C1063.95 1000.94 1055.83 1003.28 1045.87 1013.24C1042.18 1016.93 1039.1 1018.16 1044.02 1027.14C1045.38 1029.6 1037.87 1024.06 1039.35 1017.3C1041.56 1007.46 1072.19 996.269 1054.72 976.467C1047.1 967.735 1036.89 963.799 1021.14 961.708C1008.84 959.987 1007.86 959.864 1020.41 958.88C935.04 949.655 889.035 970.687 822.735 955.067C821.874 954.821 814.74 959.372 815.601 959.618C883.992 979.419 936.516 957.035 1015.98 964.537C1041.93 966.997 1059.4 980.403 1054.36 994.793C1051.4 1003.16 1036.89 1010.29 1033.94 1018.9C1029.39 1032.55 1051.77 1042.14 1062.47 1049.89C1067.89 1053.71 1074.28 1046.7 1068.75 1043.13L1068.62 1043.01Z" fill="url(#paint1_linear_2795_3243)"/>
<path d="M1008.47 1056.53L1086.34 1158.49C1086.34 1158.49 1104.91 1165.26 1136.4 1160.95C1167.89 1156.65 1179.08 1151.73 1179.08 1151.73C1179.08 1151.73 1195.2 1144.35 1175.39 1115.94C1155.59 1087.53 1119.18 1051 1105.53 1043.01C1091.87 1035.01 1063.46 1033.17 1047.34 1035.01C1031.23 1036.86 997.281 1043.01 1008.35 1056.66L1008.47 1056.53Z" fill="url(#paint2_linear_2795_3243)"/>
<path d="M1079.94 1058.26C1092.12 1056.9 1106.63 1056.29 1123.12 1057.03C1115.86 1050.38 1109.59 1045.34 1105.53 1042.88C1093.72 1035.99 1071.08 1033.66 1054.72 1034.27C1062.6 1039.81 1073.91 1048.91 1079.94 1058.26Z" fill="url(#paint3_linear_2795_3243)"/>
<path d="M1022.74 1047.31C1027.79 1051.12 1034.55 1058.01 1041.44 1066C1048.2 1063.91 1061.49 1060.35 1080.06 1058.38C1074.04 1049.03 1062.72 1040.05 1054.85 1034.4C1052.26 1034.4 1049.8 1034.64 1047.59 1034.89C1034.43 1036.36 1009.09 1040.91 1006.63 1049.89C1009.83 1045.47 1015.36 1041.53 1022.87 1047.19L1022.74 1047.31Z" fill="url(#paint4_linear_2795_3243)"/>
<path d="M1175.39 1115.94C1161.62 1096.14 1139.72 1072.4 1123.12 1057.15C1106.63 1056.41 1092.12 1057.15 1079.94 1058.38C1061.37 1060.35 1048.08 1063.91 1041.32 1066C1052.14 1078.43 1063.58 1093.68 1070.22 1104.87C1079.33 1120 1098.88 1152.96 1088.92 1159.48C1095.07 1161.08 1111.68 1164.52 1136.28 1161.2C1167.77 1156.9 1178.96 1151.98 1178.96 1151.98C1178.96 1151.98 1195.07 1144.6 1175.27 1116.19L1175.39 1115.94Z" fill="url(#paint5_linear_2795_3243)"/>
<path style="mix-blend-mode:multiply" d="M1070.35 1104.75C1063.58 1093.68 1052.26 1078.43 1041.44 1065.88C1034.55 1057.89 1027.91 1051.12 1022.74 1047.19C1015.24 1041.53 1009.83 1045.47 1006.51 1049.89C1006.01 1051.86 1006.51 1054.07 1008.47 1056.53L1086.34 1158.49C1086.34 1158.49 1087.32 1158.86 1089.04 1159.23C1098.88 1152.71 1079.45 1119.75 1070.35 1104.62V1104.75Z" fill="url(#paint6_linear_2795_3243)"/>
<path style="mix-blend-mode:multiply" d="M1184.37 1133.65C1183.76 1143.37 1154.36 1148.9 1133.2 1151.24C1121.52 1152.47 1106.88 1152.34 1096.79 1145.09C1092.36 1141.89 1089.54 1135.25 1086.95 1130.82C1084.62 1126.64 1081.91 1122.83 1079.08 1118.89C1082.52 1127.13 1087.2 1136.11 1088.31 1144.97C1088.55 1147.55 1086.21 1151.73 1084.62 1149.88C1074.16 1137.83 1071.08 1133.53 1063.21 1123.2C1019.42 1065.27 1006.14 1053.46 1007.74 1048.54C1007.37 1049.03 1006.88 1049.52 1006.51 1050.02C1006.01 1051.98 1006.51 1054.2 1008.47 1056.66L1086.34 1158.62C1086.34 1158.62 1087.32 1158.99 1089.04 1159.36C1095.19 1160.95 1111.8 1164.4 1136.4 1161.08C1167.89 1156.77 1179.08 1151.85 1179.08 1151.85C1179.08 1151.85 1188.06 1147.67 1184.37 1133.77V1133.65Z" fill="url(#paint7_linear_2795_3243)"/>
<path style="mix-blend-mode:multiply" d="M1041.32 1065.88C1044.39 1064.78 1047.47 1063.67 1050.67 1062.81C1053.86 1061.95 1057.06 1061.09 1060.26 1060.47L1065.06 1059.49C1066.66 1059.12 1068.25 1058.99 1069.98 1058.75C1073.3 1058.26 1076.5 1057.76 1079.82 1057.4L1079.2 1058.75L1076.74 1055.3L1073.91 1051.98C1071.95 1049.89 1069.98 1047.8 1067.89 1045.83C1063.7 1041.78 1059.28 1038.09 1054.72 1034.4C1059.64 1037.47 1064.44 1040.91 1068.87 1044.73C1071.08 1046.7 1073.18 1048.66 1075.27 1050.88L1078.1 1054.2L1080.8 1057.76L1081.66 1058.99L1080.19 1059.24C1076.99 1059.73 1073.67 1060.1 1070.47 1060.47C1067.15 1060.84 1063.95 1061.45 1060.75 1061.95C1057.55 1062.44 1054.36 1063.05 1051.03 1063.79C1047.84 1064.28 1044.64 1065.27 1041.44 1065.88H1041.32Z" fill="url(#paint8_linear_2795_3243)"/>
<path style="mix-blend-mode:multiply" d="M1123.12 1057.15C1123.12 1057.15 1117.95 1057.15 1110.32 1057.15C1106.51 1057.15 1102.08 1057.27 1097.28 1057.64C1094.95 1057.76 1092.49 1057.89 1089.9 1058.13C1087.44 1058.38 1084.86 1058.63 1082.4 1058.99C1079.82 1059.36 1077.36 1059.73 1074.9 1059.98C1072.44 1060.35 1069.98 1060.59 1067.64 1061.09C1062.97 1062.07 1058.54 1062.56 1054.72 1063.42C1047.22 1065.02 1042.18 1065.88 1042.18 1065.88C1042.18 1065.88 1047.1 1064.41 1054.48 1062.32C1058.17 1061.21 1062.6 1060.35 1067.27 1059.36C1069.61 1058.87 1072.07 1058.5 1074.53 1058.13C1076.99 1057.76 1079.57 1057.4 1082.16 1056.9C1084.74 1056.66 1087.32 1056.41 1089.78 1056.17C1092.24 1055.92 1094.82 1055.8 1097.16 1055.67C1099.62 1055.55 1101.84 1055.55 1104.05 1055.67C1106.26 1055.67 1108.36 1055.67 1110.2 1055.8C1117.95 1056.17 1122.99 1056.78 1122.99 1056.78L1123.12 1057.15Z" fill="url(#paint9_linear_2795_3243)"/>
<path d="M663.162 681.998L557.919 681.422V680.846H504.337H450.755V681.422L345.513 681.998C345.513 681.998 362.797 722.515 204.549 759.192H803.933C645.685 722.515 662.97 681.998 662.97 681.998H663.162Z" fill="url(#paint10_linear_2795_3243)"/>
<path d="M814.305 758.808H194.562V794.909H814.305V758.808Z" fill="url(#paint11_linear_2795_3243)"/>
<path d="M683.903 645.897H324.771V686.415H683.903V645.897Z" fill="url(#paint12_linear_2795_3243)"/>
<path d="M52.2533 20H957.747C976.559 20 992 35.5265 992 54.8443V611.156C992 630.293 976.737 646 957.747 646H52.2533C33.4406 646 18 630.474 18 611.156V54.8443C18 35.707 33.2631 20 52.2533 20Z" fill="url(#paint13_radial_2795_3243)"/>
<rect x="45.8176" y="47.9238" width="919.682" height="568.24" rx="10" fill="#8F8F8F" fill-opacity="0.5"/>
<path d="M83.3081 783H925.088C935.714 783 944.396 791.681 944.396 802.306V993.549C944.396 1004.17 935.714 1012.85 925.088 1012.85H83.3081C72.6822 1012.85 64 1004.17 64 993.549V802.435C64 791.811 72.6822 783.13 83.3081 783.13V783Z" fill="url(#paint14_linear_2795_3243)"/>
<g style="mix-blend-mode:multiply" opacity="0.5">
<path d="M937.787 787.924V971.263C937.787 981.888 929.234 990.569 918.867 990.569H89.5274C79.031 990.569 70.6081 981.888 70.6081 971.263V787.924C66.5909 791.422 64.1288 796.475 64.1288 802.176V993.42C64.1288 1004.04 72.811 1012.73 83.4369 1012.73H925.217C935.843 1012.73 944.525 1004.04 944.525 993.42V802.176C944.525 796.475 941.933 791.422 938.046 787.924H937.787Z" fill="url(#paint15_linear_2795_3243)"/>
</g>
<path style="mix-blend-mode:multiply" d="M895.412 860.094H577.931V939.26H895.412V860.094Z" fill="url(#paint16_linear_2795_3243)"/>
<path style="mix-blend-mode:multiply" d="M895.412 860.094H577.931V939.26H581.818V867.997H892.173V939.26H895.412V860.094Z" fill="url(#paint17_linear_2795_3243)"/>
<path style="mix-blend-mode:multiply" d="M862.238 889.505H607.216V901.167H862.238V889.505Z" fill="url(#paint18_linear_2795_3243)"/>
<path style="mix-blend-mode:multiply" d="M862.238 889.505H607.216V895.336H862.238V889.505Z" fill="url(#paint19_linear_2795_3243)"/>
<path style="mix-blend-mode:multiply" d="M872.994 947.034H849.539V954.808H872.994V947.034Z" fill="url(#paint20_linear_2795_3243)"/>
<path style="mix-blend-mode:multiply" d="M872.994 945.868H849.539V951.18H872.994V945.868Z" fill="url(#paint21_linear_2795_3243)"/>
<path style="mix-blend-mode:multiply" d="M475.43 933.429H236.995V944.183H475.43V933.429Z" fill="url(#paint22_linear_2795_3243)"/>
<path style="mix-blend-mode:multiply" d="M475.43 933.429H236.995V938.353H475.43V933.429Z" fill="url(#paint23_linear_2795_3243)"/>
<path style="mix-blend-mode:multiply" d="M283.904 959.732H249.694V972.429H283.904V959.732Z" fill="url(#paint24_linear_2795_3243)"/>
<path style="mix-blend-mode:multiply" d="M283.904 959.732H249.694V965.303H283.904V959.732Z" fill="url(#paint25_linear_2795_3243)"/>
<path style="mix-blend-mode:multiply" d="M137.862 835.346C137.862 847.007 128.403 856.466 116.74 856.466C105.078 856.466 95.618 847.007 95.618 835.346C95.618 823.685 105.078 814.226 116.74 814.226C128.403 814.226 137.862 823.685 137.862 835.346Z" fill="url(#paint26_linear_2795_3243)"/>
<path d="M134.623 834.439C134.623 844.545 126.46 852.708 116.352 852.708C106.245 852.708 98.0807 844.545 98.0807 834.439C98.0807 824.332 106.245 816.17 116.352 816.17C126.46 816.17 134.623 824.332 134.623 834.439Z" fill="url(#paint27_radial_2795_3243)"/>
<path style="mix-blend-mode:screen" d="M923.792 788.831H84.4741C84.4741 788.831 143.046 844.545 527.005 844.545C871.829 844.545 923.662 788.831 923.662 788.831H923.792Z" fill="url(#paint28_radial_2795_3243)"/>
<path d="M516.635 813.132H504.111V810.159H516.635V806.85H504.111V804.187H516.635V800.905H499.667V816.414H516.635V813.132Z" fill="black"/>
<path d="M570.558 807.039L581.07 816.414H584.406V800.905H579.977V810.28L569.465 800.905H566.115V816.414H570.558V807.039Z" fill="black"/>
<path d="M561.341 800.905H543.036V816.414H561.341V800.905ZM556.898 813.105H547.479V804.16H556.898V813.105Z" fill="black"/>
<path d="M481.031 807.039L491.543 816.414H494.893V800.905H490.464V810.28L479.953 800.905H476.588V816.414H481.031V807.039Z" fill="black"/>
<path d="M529.85 811.626L534.394 816.414H540.002L532.654 808.666L540.016 800.905H534.394L529.85 805.707L525.292 800.905H519.684L527.046 808.666L519.698 816.414H525.306L529.85 811.626Z" fill="black"/>
<path d="M448.131 816.481V829.529L466.637 820.315L448.131 816.481Z" fill="#0098D8"/>
<path d="M466.637 795.497L448.131 804.712V816.481L466.637 820.315V795.497Z" fill="#00365C"/>
<path d="M466.637 820.315L448.131 829.529L471.095 834.291L489.601 825.077L466.637 820.315Z" fill="#CAD400"/>
<defs>
<linearGradient id="paint0_linear_2795_3243" x1="1104.66" y1="1065.39" x2="917.338" y2="955.047" gradientUnits="userSpaceOnUse">
<stop stop-color="white"/>
<stop offset="0.11" stop-color="#EBEBE9"/>
<stop offset="0.22" stop-color="#DDDDD9"/>
<stop offset="0.31" stop-color="#D8D9D4"/>
<stop offset="0.5" stop-color="#C6C4BD"/>
<stop offset="0.72" stop-color="#B7B3A9"/>
<stop offset="0.87" stop-color="#B2ADA3"/>
</linearGradient>
<linearGradient id="paint1_linear_2795_3243" x1="1104.05" y1="1066.37" x2="916.723" y2="956.031" gradientUnits="userSpaceOnUse">
<stop stop-color="white"/>
<stop offset="0.11" stop-color="#EBEBE9"/>
<stop offset="0.22" stop-color="#DDDDD9"/>
<stop offset="0.31" stop-color="#D8D9D4"/>
<stop offset="0.5" stop-color="#C6C4BD"/>
<stop offset="0.72" stop-color="#B7B3A9"/>
<stop offset="0.87" stop-color="#B2ADA3"/>
</linearGradient>
<linearGradient id="paint2_linear_2795_3243" x1="1006.26" y1="1098.35" x2="1185.23" y2="1098.35" gradientUnits="userSpaceOnUse">
<stop stop-color="white"/>
<stop offset="0.11" stop-color="#EBEBE9"/>
<stop offset="0.22" stop-color="#DDDDD9"/>
<stop offset="0.31" stop-color="#D8D9D4"/>
<stop offset="0.5" stop-color="#C6C4BD"/>
<stop offset="0.72" stop-color="#B7B3A9"/>
<stop offset="0.87" stop-color="#B2ADA3"/>
</linearGradient>
<linearGradient id="paint3_linear_2795_3243" x1="1067.02" y1="1021.36" x2="1114.25" y2="1073.88" gradientUnits="userSpaceOnUse">
<stop stop-color="white"/>
<stop offset="0.11" stop-color="#EBEBE9"/>
<stop offset="0.22" stop-color="#DDDDD9"/>
<stop offset="0.31" stop-color="#D8D9D4"/>
<stop offset="0.5" stop-color="#C6C4BD"/>
<stop offset="0.72" stop-color="#B7B3A9"/>
<stop offset="0.87" stop-color="#B2ADA3"/>
</linearGradient>
<linearGradient id="paint4_linear_2795_3243" x1="1029.51" y1="1038.45" x2="1076.74" y2="1090.98" gradientUnits="userSpaceOnUse">
<stop stop-color="white"/>
<stop offset="0.11" stop-color="#EBEBE9"/>
<stop offset="0.22" stop-color="#DDDDD9"/>
<stop offset="0.31" stop-color="#D8D9D4"/>
<stop offset="0.5" stop-color="#C6C4BD"/>
<stop offset="0.72" stop-color="#B7B3A9"/>
<stop offset="0.87" stop-color="#B2ADA3"/>
</linearGradient>
<linearGradient id="paint5_linear_2795_3243" x1="1078.59" y1="1036.61" x2="1147.83" y2="1166.13" gradientUnits="userSpaceOnUse">
<stop stop-color="white"/>
<stop offset="0.11" stop-color="#EBEBE9"/>
<stop offset="0.22" stop-color="#DDDDD9"/>
<stop offset="0.31" stop-color="#D8D9D4"/>
<stop offset="0.5" stop-color="#C6C4BD"/>
<stop offset="0.72" stop-color="#B7B3A9"/>
<stop offset="0.87" stop-color="#B2ADA3"/>
</linearGradient>
<linearGradient id="paint6_linear_2795_3243" x1="1039.47" y1="1113.85" x2="1068.87" y2="1081.13" gradientUnits="userSpaceOnUse">
<stop stop-color="white"/>
<stop offset="0.11" stop-color="#EBEBE9"/>
<stop offset="0.22" stop-color="#DDDDD9"/>
<stop offset="0.31" stop-color="#D8D9D4"/>
<stop offset="0.5" stop-color="#C6C4BD"/>
<stop offset="0.72" stop-color="#B7B3A9"/>
<stop offset="0.87" stop-color="#B2ADA3"/>
</linearGradient>
<linearGradient id="paint7_linear_2795_3243" x1="1064.69" y1="1132.54" x2="1137.13" y2="1051.73" gradientUnits="userSpaceOnUse">
<stop offset="0.31" stop-color="#D8D9D4"/>
<stop offset="0.5" stop-color="#C6C4BD"/>
<stop offset="0.72" stop-color="#B7B3A9"/>
<stop offset="0.87" stop-color="#B2ADA3"/>
</linearGradient>
<linearGradient id="paint8_linear_2795_3243" x1="1041.32" y1="1050.14" x2="1081.54" y2="1050.14" gradientUnits="userSpaceOnUse">
<stop stop-color="#D8D8D8"/>
<stop offset="0.08" stop-color="#CBCCCA"/>
<stop offset="0.21" stop-color="#BDBDBA"/>
<stop offset="0.31" stop-color="#B8B9B5"/>
<stop offset="0.47" stop-color="#AAA9A3"/>
<stop offset="0.71" stop-color="#9B988F"/>
<stop offset="0.87" stop-color="#969389"/>
</linearGradient>
<linearGradient id="paint9_linear_2795_3243" x1="1042.18" y1="1061.09" x2="1123.12" y2="1061.09" gradientUnits="userSpaceOnUse">
<stop stop-color="#D8D8D8"/>
<stop offset="0.08" stop-color="#CBCCCA"/>
<stop offset="0.21" stop-color="#BDBDBA"/>
<stop offset="0.31" stop-color="#B8B9B5"/>
<stop offset="0.47" stop-color="#AAA9A3"/>
<stop offset="0.71" stop-color="#9B988F"/>
<stop offset="0.87" stop-color="#969389"/>
</linearGradient>
<linearGradient id="paint10_linear_2795_3243" x1="504.337" y1="681.038" x2="504.337" y2="759.192" gradientUnits="userSpaceOnUse">
<stop stop-color="#D8D8D8"/>
<stop offset="0.08" stop-color="#CBCCCA"/>
<stop offset="0.21" stop-color="#BDBDBA"/>
<stop offset="0.31" stop-color="#B8B9B5"/>
<stop offset="0.47" stop-color="#AAA9A3"/>
<stop offset="0.71" stop-color="#9B988F"/>
<stop offset="0.87" stop-color="#969389"/>
</linearGradient>
<linearGradient id="paint11_linear_2795_3243" x1="504.338" y1="758.808" x2="504.338" y2="795.101" gradientUnits="userSpaceOnUse">
<stop stop-color="white"/>
<stop offset="0.23" stop-color="#EBEBE9"/>
<stop offset="0.47" stop-color="#DDDDD9"/>
<stop offset="0.67" stop-color="#D8D9D4"/>
<stop offset="0.74" stop-color="#CCCBC5"/>
<stop offset="0.87" stop-color="#B2ADA3"/>
</linearGradient>
<linearGradient id="paint12_linear_2795_3243" x1="504.337" y1="645.897" x2="504.337" y2="686.415" gradientUnits="userSpaceOnUse">
<stop stop-color="#D8D8D8"/>
<stop offset="0.1" stop-color="#CBCCCA"/>
<stop offset="0.25" stop-color="#BDBDBA"/>
<stop offset="0.37" stop-color="#B8B9B5"/>
<stop offset="0.57" stop-color="#ACACA6"/>
<stop offset="0.87" stop-color="#969389"/>
</linearGradient>
<radialGradient id="paint13_radial_2795_3243" cx="0" cy="0" r="1" gradientUnits="userSpaceOnUse" gradientTransform="translate(420.52 -423.342) scale(1476.09 1501.56)">
<stop offset="0.39" stop-color="white"/>
<stop offset="0.49" stop-color="#EBEBE9"/>
<stop offset="0.59" stop-color="#DDDDD9"/>
<stop offset="0.67" stop-color="#D8D9D4"/>
<stop offset="0.74" stop-color="#CCCBC5"/>
<stop offset="0.87" stop-color="#B2ADA3"/>
</radialGradient>
<linearGradient id="paint14_linear_2795_3243" x1="483.076" y1="742.575" x2="552.128" y2="1251.78" gradientUnits="userSpaceOnUse">
<stop stop-color="white"/>
<stop offset="0.11" stop-color="#EBEBE9"/>
<stop offset="0.22" stop-color="#DDDDD9"/>
<stop offset="0.31" stop-color="#D8D9D4"/>
<stop offset="0.5" stop-color="#C6C4BD"/>
<stop offset="0.72" stop-color="#B7B3A9"/>
<stop offset="0.87" stop-color="#B2ADA3"/>
</linearGradient>
<linearGradient id="paint15_linear_2795_3243" x1="483.075" y1="742.575" x2="552.127" y2="1251.78" gradientUnits="userSpaceOnUse">
<stop stop-color="white"/>
<stop offset="0.11" stop-color="#EBEBE9"/>
<stop offset="0.22" stop-color="#DDDDD9"/>
<stop offset="0.31" stop-color="#D8D9D4"/>
<stop offset="0.5" stop-color="#C6C4BD"/>
<stop offset="0.72" stop-color="#B7B3A9"/>
<stop offset="0.87" stop-color="#B2ADA3"/>
</linearGradient>
<linearGradient id="paint16_linear_2795_3243" x1="577.931" y1="899.742" x2="895.412" y2="899.742" gradientUnits="userSpaceOnUse">
<stop stop-color="#BBB9AF"/>
<stop offset="0.07" stop-color="#B6B3A9"/>
<stop offset="0.31" stop-color="#D8D9D4"/>
<stop offset="0.34" stop-color="#D5D6D1"/>
<stop offset="0.68" stop-color="#BBB8AF"/>
<stop offset="0.87" stop-color="#B2ADA3"/>
</linearGradient>
<linearGradient id="paint17_linear_2795_3243" x1="736.672" y1="943.536" x2="736.672" y2="857.891" gradientUnits="userSpaceOnUse">
<stop offset="0.03" stop-color="white"/>
<stop offset="0.65" stop-color="#D8D9D4"/>
<stop offset="0.66" stop-color="#D5D6D1"/>
<stop offset="0.8" stop-color="#BBB8AF"/>
<stop offset="0.87" stop-color="#B2ADA3"/>
</linearGradient>
<linearGradient id="paint18_linear_2795_3243" x1="607.216" y1="895.336" x2="862.238" y2="895.336" gradientUnits="userSpaceOnUse">
<stop stop-color="#BCBAB1"/>
<stop offset="0.04" stop-color="#BBB9AF"/>
<stop offset="0.42" stop-color="#B6B3A9"/>
<stop offset="0.87" stop-color="#B2ADA3"/>
</linearGradient>
<linearGradient id="paint19_linear_2795_3243" x1="63.9988" y1="892.356" x2="76.9572" y2="892.356" gradientUnits="userSpaceOnUse">
<stop stop-color="#BCBAB1"/>
<stop offset="0.04" stop-color="#BBB9AF"/>
<stop offset="0.42" stop-color="#B6B3A9"/>
<stop offset="0.87" stop-color="#B2ADA3"/>
</linearGradient>
<linearGradient id="paint20_linear_2795_3243" x1="849.539" y1="951.051" x2="872.994" y2="951.051" gradientUnits="userSpaceOnUse">
<stop stop-color="white"/>
<stop offset="0.11" stop-color="#EBEBE9"/>
<stop offset="0.22" stop-color="#DDDDD9"/>
<stop offset="0.31" stop-color="#D8D9D4"/>
<stop offset="0.5" stop-color="#C6C4BD"/>
<stop offset="0.72" stop-color="#B7B3A9"/>
<stop offset="0.87" stop-color="#B2ADA3"/>
</linearGradient>
<linearGradient id="paint21_linear_2795_3243" x1="849.539" y1="948.589" x2="872.994" y2="948.589" gradientUnits="userSpaceOnUse">
<stop stop-color="#BCBAB1"/>
<stop offset="0.04" stop-color="#BBB9AF"/>
<stop offset="0.42" stop-color="#B6B3A9"/>
<stop offset="0.87" stop-color="#B2ADA3"/>
</linearGradient>
<linearGradient id="paint22_linear_2795_3243" x1="236.995" y1="938.742" x2="475.3" y2="938.742" gradientUnits="userSpaceOnUse">
<stop stop-color="#BBB9AF"/>
<stop offset="0.07" stop-color="#B6B3A9"/>
<stop offset="0.31" stop-color="#D8D9D4"/>
<stop offset="0.34" stop-color="#D5D6D1"/>
<stop offset="0.68" stop-color="#BBB8AF"/>
<stop offset="0.87" stop-color="#B2ADA3"/>
</linearGradient>
<linearGradient id="paint23_linear_2795_3243" x1="236.995" y1="935.891" x2="475.3" y2="935.891" gradientUnits="userSpaceOnUse">
<stop stop-color="#BBB9AF"/>
<stop offset="0.07" stop-color="#B6B3A9"/>
<stop offset="0.31" stop-color="#D8D9D4"/>
<stop offset="0.34" stop-color="#D5D6D1"/>
<stop offset="0.68" stop-color="#BBB8AF"/>
<stop offset="0.87" stop-color="#B2ADA3"/>
</linearGradient>
<linearGradient id="paint24_linear_2795_3243" x1="250.99" y1="966.081" x2="283.904" y2="966.081" gradientUnits="userSpaceOnUse">
<stop stop-color="#BBB9AF"/>
<stop offset="0.07" stop-color="#B6B3A9"/>
<stop offset="0.31" stop-color="#D8D9D4"/>
<stop offset="0.34" stop-color="#D5D6D1"/>
<stop offset="0.68" stop-color="#BBB8AF"/>
<stop offset="0.87" stop-color="#B2ADA3"/>
</linearGradient>
<linearGradient id="paint25_linear_2795_3243" x1="250.99" y1="962.582" x2="283.904" y2="962.582" gradientUnits="userSpaceOnUse">
<stop stop-color="#BBB9AF"/>
<stop offset="0.07" stop-color="#B6B3A9"/>
<stop offset="0.31" stop-color="#D8D9D4"/>
<stop offset="0.34" stop-color="#D5D6D1"/>
<stop offset="0.68" stop-color="#BBB8AF"/>
<stop offset="0.87" stop-color="#B2ADA3"/>
</linearGradient>
<linearGradient id="paint26_linear_2795_3243" x1="136.178" y1="866.054" x2="108.84" y2="823.034" gradientUnits="userSpaceOnUse">
<stop stop-color="white"/>
<stop offset="0.11" stop-color="#EBEBE9"/>
<stop offset="0.22" stop-color="#DDDDD9"/>
<stop offset="0.31" stop-color="#D8D9D4"/>
<stop offset="0.5" stop-color="#C6C4BD"/>
<stop offset="0.72" stop-color="#B7B3A9"/>
<stop offset="0.87" stop-color="#B2ADA3"/>
</linearGradient>
<radialGradient id="paint27_radial_2795_3243" cx="0" cy="0" r="1" gradientUnits="userSpaceOnUse" gradientTransform="translate(109.225 824.98) scale(33.6919 33.6879)">
<stop offset="0.39" stop-color="white"/>
<stop offset="0.49" stop-color="#EBEBE9"/>
<stop offset="0.59" stop-color="#DDDDD9"/>
<stop offset="0.67" stop-color="#D8D9D4"/>
<stop offset="0.74" stop-color="#CCCBC5"/>
<stop offset="0.87" stop-color="#B2ADA3"/>
</radialGradient>
<radialGradient id="paint28_radial_2795_3243" cx="0" cy="0" r="1" gradientUnits="userSpaceOnUse" gradientTransform="translate(498.755 213.546) scale(711.677 711.591)">
<stop offset="0.8" stop-color="white"/>
<stop offset="0.82" stop-color="#EBEBE9"/>
<stop offset="0.84" stop-color="#DDDDD9"/>
<stop offset="0.85" stop-color="#D8D9D4"/>
<stop offset="0.87" stop-color="#C9CAC5"/>
<stop offset="0.9" stop-color="#A3A4A0"/>
<stop offset="0.94" stop-color="#656663"/>
<stop offset="0.99" stop-color="#111111"/>
<stop offset="1"/>
</radialGradient>
</defs>
</svg>
