<svg width="346" height="56" viewBox="0 0 346 56" fill="none" xmlns="http://www.w3.org/2000/svg">
<g clip-path="url(#clip0_2795_3186)">
<path d="M30.2201 24.45V19.6H25.3701V17.65H38.2201V19.6H33.3701V24.45H30.2201ZM38.7201 23.225V4.3H41.8701V23.225H38.7201ZM33.8701 17.175V12.325H25.3701V10.375H33.8701V6.25H25.3701V4.3H37.0201V17.175H33.8701ZM44.0951 23.2V21.275H59.3951V23.2H44.0951ZM44.0951 17.15V15.2H45.3201V14H46.5201V12.775H47.7451V11.575H48.9451V10.35H50.1701V6.225H44.0951V4.3H59.3951V6.225H53.3201V10.35H54.5451V11.575H55.7451V12.775H56.9701V14H58.1701V15.2H59.3951V17.15H56.2201V15.925H55.0201V14.725H53.7951V13.5H52.5951V12.3H50.8951V13.5H49.6951V14.725H48.4701V15.925H47.2701V17.15H44.0951ZM69.0201 20.775V18.825H75.0701V13.5H69.0201V11.55H75.0701V7.425H69.0201V5.475H78.2201V20.775H69.0201ZM80.35 24.45V17.65H83.525V22.5H95.65V24.45H80.35ZM86.425 20.8V17.175H80.35V15.225H95.65V17.175H89.575V20.8H86.425ZM80.35 13.525V4.3H95.65V13.525H80.35ZM92.475 11.575V6.25H83.525V11.575H92.475ZM97.9299 23.2V21.275H99.1549V20.05H100.355V18.85H101.58V6.225H97.9299V4.3H109.58V6.225H104.73V17.625H105.955V18.85H107.155V20.05H108.38V21.275H109.58V23.2H106.43V22H105.205V20.775H104.005V19.575H103.53V20.775H102.305V22H101.105V23.2H97.9299ZM110.055 23.2V14.725H106.43V12.775H110.055V4.3H113.23V23.2H110.055ZM114.905 23.2V4.3H118.08V23.2H114.905Z" fill="white"/>
<path d="M120.365 24.45V18.85H132.49V18.375H120.365V16.425H135.665V20.8H123.54V22.5H135.665V24.45H120.365ZM120.365 15.95V14H135.665V15.95H120.365ZM120.365 13.525V7.95H132.49V6.25H120.365V4.3H135.665V9.9H123.54V11.575H135.665V13.525H120.365ZM145.365 23.2V21.275H151.44V17.15H145.365V4.3H160.665V17.15H154.59V21.275H160.665V23.2H145.365ZM157.49 15.2V6.225H148.54V15.2H157.49ZM168.945 24.45V19.6H162.87V17.65H178.17V19.6H172.095V24.45H168.945ZM162.87 14.75V4.3H178.17V6.25H166.045V12.8H178.17V14.75H162.87ZM192.795 24.45V22.5H194.02V21.275H195.22V20.075H196.445V19.6H190.37V17.65H205.67V19.6H199.595V20.075H200.82V21.275H202.02V22.5H203.245V24.45H200.07V23.225H198.87V22.025H197.17V23.225H195.97V24.45H192.795ZM201.295 17.175V4.3H204.445V9.15H208.095V11.1H204.445V17.175H201.295ZM187.945 15.95V4.3H199.595V15.95H187.945ZM196.445 14V6.25H191.12V14H196.445ZM211.56 24.45V18.85H222.485V18.375H211.56V16.425H225.635V20.8H214.71V22.5H225.635V24.45H211.56ZM211.56 15.95V14.75H210.36V13.525H209.135V9.15H210.36V8.675H209.135V6.725H220.785V8.675H219.56V9.15H220.785V13.525H219.56V14.75H218.36V15.95H211.56ZM222.485 15.95V4.3H225.635V15.95H222.485ZM216.41 14V12.8H217.635V9.9H216.41V8.675H213.51V9.9H212.285V12.8H213.51V14H216.41ZM210.36 6.25V4.3H219.56V6.25H210.36ZM240.255 24.45V23.225H239.03V18.85H240.255V17.65H251.905V18.85H253.105V23.225H251.905V24.45H240.255ZM249.955 22.5V19.6H242.205V22.5H249.955ZM243.88 17.175V6.25H235.405V4.3H247.055V6.725H249.955V4.3H253.105V17.175H249.955V13.525H247.055V17.175H243.88ZM249.955 11.575V8.675H247.055V11.575H249.955ZM261.425 24.45V19.6H255.35V17.65H270.65V19.6H264.575V24.45H261.425ZM257.775 15.95V14.75H256.575V13.525H255.35V6.725H256.575V5.525H257.775V4.3H268.225V5.525H269.425V6.725H270.65V13.525H269.425V14.75H268.225V15.95H257.775ZM266.275 14V12.8H267.475V7.475H266.275V6.25H259.725V7.475H258.525V12.8H259.725V14H266.275ZM285.25 24.45V23.225H284.025V18.85H285.25V17.65H296.9V18.85H298.1V23.225H296.9V24.45H285.25ZM294.95 22.5V19.6H287.2V22.5H294.95ZM280.4 17.175V15.225H281.6V14H282.825V12.8H284.025V11.575H285.25V4.3H288.4V11.575H289.625V12.8H290.825V14H292.05V15.225H293.25V17.175H290.1V15.95H288.875V14.75H287.675V13.525H285.975V14.75H284.775V15.95H283.55V17.175H280.4ZM294.95 17.175V11.1H290.1V9.15H294.95V4.3H298.1V17.175H294.95ZM301.57 24.45V23.225H300.345V18.85H301.57V17.65H314.42V18.85H315.645V23.225H314.42V24.45H301.57ZM312.47 22.5V19.6H303.52V22.5H312.47ZM300.345 15.95V14H305.195V9.15H308.37V14H315.645V15.95H300.345ZM312.47 13.525V6.25H300.345V4.3H315.645V13.525H312.47ZM317.675 23.225V17.65H320.825V23.225H317.675ZM317.675 15.95V5.525H320.825V15.95H317.675ZM1.60244 51.2V49.275H7.67744V45.15H1.60244V32.3H4.77744V37.15H13.7274V32.3H16.9024V45.15H10.8274V49.275H16.9024V51.2H1.60244ZM13.7274 43.2V39.075H4.77744V43.2H13.7274ZM22.8323 52.45V51.225H21.6073V46.85H22.8323V45.65H34.4823V46.85H35.6823V51.225H34.4823V52.45H22.8323ZM32.5323 50.5V47.6H24.7823V50.5H32.5323ZM19.1823 45.175V43.225H20.4073V42H21.6073V40.8H22.8323V39.575H24.0323V32.3H27.2073V39.575H28.4073V40.8H29.6323V42H30.8323V43.225H32.0573V45.175H28.8823V43.95H27.6823V42.75H26.4573V41.525H24.7823V42.75H23.5573V43.95H22.3573V45.175H19.1823ZM32.5323 45.175V32.3H35.6823V37.15H39.3323V39.1H35.6823V45.175H32.5323ZM40.3476 51.2V49.275H55.6476V51.2H40.3476ZM42.7726 45.15V43.925H41.5726V42.725H40.3476V34.725H41.5726V33.5H42.7726V32.3H53.2226V33.5H54.4226V34.725H55.6476V42.725H54.4226V43.925H53.2226V45.15H42.7726ZM51.2726 43.2V42H52.4726V35.45H51.2726V34.225H44.7226V35.45H43.5226V42H44.7226V43.2H51.2726ZM57.8524 51.2V49.275H63.9274V46.35H57.8524V38.35H69.9774V34.225H57.8524V32.3H73.1524V40.3H61.0274V44.425H73.1524V46.35H67.0774V49.275H73.1524V51.2H57.8524ZM222.802 51.2V50H221.602V48.775H220.377V34.725H221.602V33.5H222.802V32.3H229.602V33.5H230.802V34.725H232.027V48.775H230.802V50H229.602V51.2H222.802ZM233.727 51.2V32.3H236.877V51.2H233.727ZM227.652 49.275V48.05H228.877V35.45H227.652V34.225H224.752V35.45H223.527V48.05H224.752V49.275H227.652ZM246.623 51.2V49.275H247.848V48.05H249.048V46.85H250.273V45.625H251.473V34.225H246.623V32.3H259.473V34.225H254.623V45.625H255.848V46.85H257.048V48.05H258.273V49.275H259.473V51.2H256.323V50H255.123V48.775H253.898V47.575H252.198V48.775H250.998V50H249.773V51.2H246.623ZM259.973 51.2V32.3H263.123V51.2H259.973ZM265.348 52.45V44.425H268.523V46.85H277.473V44.425H280.648V52.45H265.348ZM277.473 50.5V48.8H268.523V50.5H277.473ZM265.348 43.95V42H280.648V43.95H265.348ZM277.473 41.525V34.25H265.348V32.3H280.648V41.525H277.473ZM285.302 52.45V44.425H288.452V46.85H296.227V44.425H299.377V52.45H285.302ZM296.227 50.5V48.8H288.452V50.5H296.227ZM282.877 43.95V42H287.727V40.325H282.877V32.3H294.527V34.25H286.027V38.375H294.527V40.325H290.877V42H295.727V43.95H282.877ZM296.227 43.95V32.3H299.377V43.95H296.227ZM301.627 51.2V32.3H304.777V49.275H313.277V51.2H301.627ZM314.977 51.2V32.3H318.127V51.2H314.977ZM320.427 51.2V32.3H332.077V34.225H323.602V49.275H333.302V51.2H320.427ZM333.777 51.2V32.3H336.927V39.575H340.577V41.5H336.927V51.2H333.777ZM341.418 50.175V45.825H344.568V50.175H341.418Z" fill="#C3E2FF"/>
<path d="M98.6774 52.45V47.6H87.7774V45.65H101.827V52.45H98.6774ZM93.8274 45.175V39.1H88.9774V37.15H93.8274V32.3H96.9774V45.175H93.8274ZM98.6774 45.175V32.3H101.827V45.175H98.6774ZM82.9274 43.95V32.3H86.0774V42H93.3524V43.95H82.9274ZM104.093 52.45V45.65H107.268V50.5H119.393V52.45H104.093ZM104.093 45.175V43.225H119.393V45.175H104.093ZM104.093 42.75V40.8H105.318V39.575H106.518V38.375H107.743V37.15H108.943V35.95H110.168V32.3H113.318V35.95H114.543V37.15H115.743V38.375H116.968V39.575H118.168V40.8H119.393V42.75H116.218V41.525H115.018V40.325H113.793V39.1H112.593V37.9H110.893V39.1H109.693V40.325H108.468V41.525H107.268V42.75H104.093ZM128.948 51.2V42.725H121.673V40.775H128.948V34.225H121.673V32.3H132.123V51.2H128.948ZM133.798 51.2V32.3H136.973V39.575H138.648V32.3H141.823V51.2H138.648V41.5H136.973V51.2H133.798ZM144.132 51.2V49.275H145.357V48.05H146.557V46.85H147.782V45.625H148.982V32.3H152.132V45.625H153.357V46.85H154.557V48.05H155.782V49.275H156.982V51.2H153.832V50H152.632V48.775H151.407V47.575H149.707V48.775H148.507V50H147.282V51.2H144.132ZM157.482 51.2V32.3H160.632V51.2H157.482ZM170.277 48.775V46.825H176.327V41.5H170.277V39.55H176.327V35.425H170.277V33.475H179.477V48.775H170.277ZM185.282 52.45V45.65H188.457V50.5H199.357V52.45H185.282ZM196.207 46.375V40.325H191.357V38.375H196.207V32.3H199.357V46.375H196.207ZM181.657 45.175V43.225H182.857V42H184.082V40.8H185.282V39.575H186.507V36.675H181.657V34.725H194.507V36.675H189.657V39.575H190.882V40.8H192.082V42H193.307V43.225H194.507V45.175H191.357V43.95H190.132V42.75H188.932V41.525H187.232V42.75H186.032V43.95H184.807V45.175H181.657ZM182.857 34.25V32.3H193.307V34.25H182.857ZM202.852 52.45V45.65H206.002V50.5H218.127V52.45H202.852ZM206.477 47.6V43.95H201.627V42H214.477V43.95H209.627V47.6H206.477ZM214.977 46.375V37.9H213.277V39.1H212.052V40.325H210.852V41.525H204.052V40.325H202.852V39.1H201.627V34.725H202.852V33.525H204.052V32.3H210.852V33.525H212.052V34.725H213.277V35.95H214.977V32.3H218.127V46.375H214.977ZM208.902 39.575V38.375H210.127V35.475H208.902V34.25H206.002V35.475H204.777V38.375H206.002V39.575H208.902Z" fill="#FED601"/>
</g>
<defs>
<clipPath id="clip0_2795_3186">
<rect width="345" height="56" fill="white" transform="translate(0.5)"/>
</clipPath>
</defs>
</svg>
