<svg width="285" height="56" viewBox="0 0 285 56" fill="none" xmlns="http://www.w3.org/2000/svg">
<rect x="1.5" y="1.5" width="282" height="53" rx="26.5" stroke="white" stroke-opacity="0.4" stroke-width="3"/>
<path d="M38.9042 33.677V30.637H55.3772V37.344H51.0072V33.677H38.9042ZM38.2772 29.877V19.693H42.0962V26.229L47.2452 25.678V28.927L38.2772 29.877ZM44.5092 24.728V21.764H47.9102V19.503H51.2352V30.162H47.9102V24.728H44.5092ZM51.9762 30.162V19.503H55.3772V30.162H51.9762ZM57.3722 26.4V23.436C61.4192 23.436 63.5092 21.612 63.5092 19.788V19.313H67.7842V19.788C67.7842 21.612 69.8742 23.493 73.9022 23.493V26.4C69.6272 26.4 67.0812 25.165 65.6182 23.493C64.1552 25.165 61.5522 26.4 57.3722 26.4ZM73.9972 34.152V37.154H57.5622V31.378H61.6852V34.152H73.9972ZM56.8972 30.485V27.35H74.3772V30.485H56.8972ZM85.7202 37.154V19.503H89.0452V25.982H89.9762V19.503H93.3772V37.154H89.9762V29.421H89.0452V37.154H85.7202ZM76.4672 29.136V25.887H81.1792C81.2742 25.07 81.3122 24.31 81.3122 23.493H76.1822V20.073H84.9412V22.543C84.9412 32.176 81.3692 35.501 76.0872 36.774V33.24C78.3482 32.575 79.6592 31.055 80.4192 29.136H76.4672ZM95.0872 36.584V32.1C97.1202 30.732 98.8492 28.851 98.8492 23.284V19.883H103.048V23.284C103.048 28.851 104.777 30.732 106.81 32.1V36.584C104.378 35.368 102.307 33.753 100.939 31.188C99.5712 33.753 97.5192 35.368 95.0872 36.584ZM107.893 37.154V19.503H112.168V37.154H107.893ZM119.973 34.228C119.973 32.556 121.398 31.188 123.165 31.188H133.482C135.23 31.188 136.693 32.556 136.693 34.228C136.693 35.9 135.23 37.249 133.482 37.249H123.165C121.398 37.249 119.973 35.9 119.973 34.228ZM136.408 22.98H130.537C130.936 23.835 132.646 24.557 136.598 24.5V27.084C132.285 27.084 129.701 26.4 128.333 25.013C126.965 26.4 124.381 27.084 120.068 27.084V24.5C124.001 24.557 125.711 23.835 126.11 22.98H120.258V20.358H126.205V19.123H130.499V20.358H136.408V22.98ZM119.593 30.618V27.977H126.319V26.381H130.328V27.977H137.073V30.618H119.593ZM123.792 34.171C123.792 34.399 123.982 34.627 124.229 34.627H132.342C132.589 34.627 132.779 34.399 132.779 34.171C132.779 33.943 132.589 33.715 132.342 33.715H124.229C123.982 33.715 123.792 33.943 123.792 34.171ZM147.843 29.174V26.134L149.097 26.039C149.667 25.982 150.294 25.545 150.294 24.937V23.265C150.294 22.657 149.8 22.163 149.192 22.163C148.584 22.163 148.09 22.657 148.09 23.265V24.652H144.29V23.455C144.29 20.757 146.513 19.313 149.192 19.313C151.871 19.313 154.094 20.757 154.094 23.455V24.747C154.094 26.191 153.524 27.084 152.612 27.635C153.619 28.186 154.284 29.098 154.284 30.561V33.202C154.284 35.9 151.871 37.344 149.192 37.344C146.513 37.344 144.1 35.9 144.1 33.202V31.131H148.09V33.202C148.09 33.81 148.584 34.304 149.192 34.304C149.8 34.304 150.294 33.81 150.294 33.202V30.371C150.294 29.763 149.61 29.269 149.002 29.269L147.843 29.174ZM155.608 33.202V23.455C155.608 20.757 157.831 19.313 160.51 19.313C163.189 19.313 165.412 20.757 165.412 23.455V33.202C165.412 35.9 163.189 37.344 160.51 37.344C157.831 37.344 155.608 35.9 155.608 33.202ZM159.408 23.455V33.202C159.408 33.81 159.902 34.304 160.51 34.304C161.118 34.304 161.612 33.81 161.612 33.202V23.455C161.612 22.847 161.118 22.353 160.51 22.353C159.902 22.353 159.408 22.847 159.408 23.455ZM167.307 25.146V23.759C167.307 20.966 169.587 19.503 172.38 19.503C174.774 19.503 176.807 20.586 177.32 22.676H180.037V19.503H184.217V29.896H180.037V25.925H177.377C176.978 28.205 174.888 29.364 172.38 29.364C169.587 29.364 167.307 27.939 167.307 25.146ZM167.915 33.506V30.371H184.217V37.249H179.847V33.506H167.915ZM171.126 23.455V25.431C171.126 26.172 171.677 26.628 172.418 26.628C173.159 26.628 173.729 26.172 173.729 25.431V23.455C173.729 22.714 173.159 22.239 172.418 22.239C171.677 22.239 171.126 22.714 171.126 23.455ZM192.003 32.176V24.481C192.003 21.688 194.416 19.788 197.361 19.788C200.325 19.788 202.757 21.688 202.757 24.481V32.176C202.757 34.969 200.325 36.869 197.361 36.869C194.416 36.869 192.003 34.969 192.003 32.176ZM204.619 37.154V19.503H208.894V37.154H204.619ZM196.05 24.291V32.366C196.05 33.031 196.601 33.658 197.418 33.658C198.235 33.658 198.805 33.031 198.805 32.366V24.291C198.805 23.664 198.235 22.98 197.418 22.98C196.601 22.98 196.05 23.664 196.05 24.291ZM211.003 30.276V19.693H214.309V21.821H216.038V19.693H219.211V23.398H220.636V19.503H223.961V32.594H220.636V26.628H219.211V30.276H211.003ZM228.388 34.038V37.154H211.801V31.226H216.038V34.038H228.388ZM224.702 32.594V19.503H228.103V32.594H224.702ZM214.309 24.937V27.16H216.038V24.937H214.309ZM229.623 36.869V33.525H247.103V36.869H229.623ZM246.628 27.73V30.865H230.288V23.664H246.362V26.647H234.525V27.73H246.628ZM230.288 22.866V19.788H246.438V22.866H230.288Z" fill="white"/>
</svg>
