<svg width="193" height="30" viewBox="0 0 193 30" fill="none" xmlns="http://www.w3.org/2000/svg">
<path d="M16.0433 11.372V8.656H13.3273V7.564H20.5233V8.656H17.8073V11.372H16.0433ZM20.8033 10.686V0.0879999H22.5673V10.686H20.8033ZM18.0873 7.298V4.582H13.3273V3.49H18.0873V1.18H13.3273V0.0879999H19.8513V7.298H18.0873ZM23.8133 10.672V9.594H32.3813V10.672H23.8133ZM23.8133 7.284V6.192H24.4993V5.52H25.1713V4.834H25.8573V4.162H26.5293V3.476H27.2153V1.166H23.8133V0.0879999H32.3813V1.166H28.9793V3.476H29.6653V4.162H30.3373V4.834H31.0233V5.52H31.6953V6.192H32.3813V7.284H30.6033V6.598H29.9313V5.926H29.2453V5.24H28.5733V4.568H27.6213V5.24H26.9493V5.926H26.2633V6.598H25.5913V7.284H23.8133ZM37.7713 9.314V8.222H41.1593V5.24H37.7713V4.148H41.1593V1.838H37.7713V0.746H42.9233V9.314H37.7713ZM44.116 11.372V7.564H45.894V10.28H52.684V11.372H44.116ZM47.518 9.328V7.298H44.116V6.206H52.684V7.298H49.282V9.328H47.518ZM44.116 5.254V0.0879999H52.684V5.254H44.116ZM50.906 4.162V1.18H45.894V4.162H50.906ZM53.9607 10.672V9.594H54.6467V8.908H55.3187V8.236H56.0047V1.166H53.9607V0.0879999H60.4847V1.166H57.7687V7.55H58.4547V8.236H59.1267V8.908H59.8127V9.594H60.4847V10.672H58.7207V10H58.0347V9.314H57.3627V8.642H57.0967V9.314H56.4107V10H55.7387V10.672H53.9607ZM60.7507 10.672V5.926H58.7207V4.834H60.7507V0.0879999H62.5287V10.672H60.7507ZM63.4667 10.672V0.0879999H65.2447V10.672H63.4667Z" fill="white"/>
<path d="M66.5242 11.372V8.236H73.3142V7.97H66.5242V6.878H75.0922V9.328H68.3022V10.28H75.0922V11.372H66.5242ZM66.5242 6.612V5.52H75.0922V6.612H66.5242ZM66.5242 5.254V2.132H73.3142V1.18H66.5242V0.0879999H75.0922V3.224H68.3022V4.162H75.0922V5.254H66.5242ZM80.5242 10.672V9.594H83.9262V7.284H80.5242V0.0879999H89.0922V7.284H85.6902V9.594H89.0922V10.672H80.5242ZM87.3142 6.192V1.166H82.3022V6.192H87.3142ZM93.7289 11.372V8.656H90.3269V7.564H98.8949V8.656H95.4929V11.372H93.7289ZM90.3269 5.94V0.0879999H98.8949V1.18H92.1049V4.848H98.8949V5.94H90.3269ZM107.085 11.372V10.28H107.771V9.594H108.443V8.922H109.129V8.656H105.727V7.564H114.295V8.656H110.893V8.922H111.579V9.594H112.251V10.28H112.937V11.372H111.159V10.686H110.487V10.014H109.535V10.686H108.863V11.372H107.085ZM111.845 7.298V0.0879999H113.609V2.804H115.653V3.896H113.609V7.298H111.845ZM104.369 6.612V0.0879999H110.893V6.612H104.369ZM109.129 5.52V1.18H106.147V5.52H109.129ZM117.593 11.372V8.236H123.711V7.97H117.593V6.878H125.475V9.328H119.357V10.28H125.475V11.372H117.593ZM117.593 6.612V5.94H116.921V5.254H116.235V2.804H116.921V2.538H116.235V1.446H122.759V2.538H122.073V2.804H122.759V5.254H122.073V5.94H121.401V6.612H117.593ZM123.711 6.612V0.0879999H125.475V6.612H123.711ZM120.309 5.52V4.848H120.995V3.224H120.309V2.538H118.685V3.224H117.999V4.848H118.685V5.52H120.309ZM116.921 1.18V0.0879999H122.073V1.18H116.921ZM133.663 11.372V10.686H132.977V8.236H133.663V7.564H140.187V8.236H140.859V10.686H140.187V11.372H133.663ZM139.095 10.28V8.656H134.755V10.28H139.095ZM135.693 7.298V1.18H130.947V0.0879999H137.471V1.446H139.095V0.0879999H140.859V7.298H139.095V5.254H137.471V7.298H135.693ZM139.095 4.162V2.538H137.471V4.162H139.095ZM145.518 11.372V8.656H142.116V7.564H150.684V8.656H147.282V11.372H145.518ZM143.474 6.612V5.94H142.802V5.254H142.116V1.446H142.802V0.773999H143.474V0.0879999H149.326V0.773999H149.998V1.446H150.684V5.254H149.998V5.94H149.326V6.612H143.474ZM148.234 5.52V4.848H148.906V1.866H148.234V1.18H144.566V1.866H143.894V4.848H144.566V5.52H148.234ZM158.86 11.372V10.686H158.174V8.236H158.86V7.564H165.384V8.236H166.056V10.686H165.384V11.372H158.86ZM164.292 10.28V8.656H159.952V10.28H164.292ZM156.144 7.298V6.206H156.816V5.52H157.502V4.848H158.174V4.162H158.86V0.0879999H160.624V4.162H161.31V4.848H161.982V5.52H162.668V6.206H163.34V7.298H161.576V6.612H160.89V5.94H160.218V5.254H159.266V5.94H158.594V6.612H157.908V7.298H156.144ZM164.292 7.298V3.896H161.576V2.804H164.292V0.0879999H166.056V7.298H164.292ZM167.999 11.372V10.686H167.313V8.236H167.999V7.564H175.195V8.236H175.881V10.686H175.195V11.372H167.999ZM174.103 10.28V8.656H169.091V10.28H174.103ZM167.313 6.612V5.52H170.029V2.804H171.807V5.52H175.881V6.612H167.313ZM174.103 5.254V1.18H167.313V0.0879999H175.881V5.254H174.103ZM177.018 10.686V7.564H178.782V10.686H177.018ZM177.018 6.612V0.773999H178.782V6.612H177.018ZM0.0173672 28.672V27.594H3.41937V25.284H0.0173672V18.088H1.79537V20.804H6.80737V18.088H8.58537V25.284H5.18337V27.594H8.58537V28.672H0.0173672ZM6.80737 24.192V21.882H1.79537V24.192H6.80737ZM11.9061 29.372V28.686H11.2201V26.236H11.9061V25.564H18.4301V26.236H19.1021V28.686H18.4301V29.372H11.9061ZM17.3381 28.28V26.656H12.9981V28.28H17.3381ZM9.8621 25.298V24.206H10.5481V23.52H11.2201V22.848H11.9061V22.162H12.5781V18.088H14.3561V22.162H15.0281V22.848H15.7141V23.52H16.3861V24.206H17.0721V25.298H15.2941V24.612H14.6221V23.94H13.9361V23.254H12.9981V23.94H12.3121V24.612H11.6401V25.298H9.8621ZM17.3381 25.298V18.088H19.1021V20.804H21.1461V21.896H19.1021V25.298H17.3381ZM21.7146 28.672V27.594H30.2826V28.672H21.7146ZM23.0726 25.284V24.598H22.4006V23.926H21.7146V19.446H22.4006V18.76H23.0726V18.088H28.9246V18.76H29.5966V19.446H30.2826V23.926H29.5966V24.598H28.9246V25.284H23.0726ZM27.8326 24.192V23.52H28.5046V19.852H27.8326V19.166H24.1646V19.852H23.4926V23.52H24.1646V24.192H27.8326ZM31.5174 28.672V27.594H34.9194V25.956H31.5174V21.476H38.3074V19.166H31.5174V18.088H40.0854V22.568H33.2954V24.878H40.0854V25.956H36.6834V27.594H40.0854V28.672H31.5174ZM123.889 28.672V28H123.217V27.314H122.531V19.446H123.217V18.76H123.889V18.088H127.697V18.76H128.369V19.446H129.055V27.314H128.369V28H127.697V28.672H123.889ZM130.007 28.672V18.088H131.771V28.672H130.007ZM126.605 27.594V26.908H127.291V19.852H126.605V19.166H124.981V19.852H124.295V26.908H124.981V27.594H126.605ZM137.229 28.672V27.594H137.915V26.908H138.587V26.236H139.273V25.55H139.945V19.166H137.229V18.088H144.425V19.166H141.709V25.55H142.395V26.236H143.067V26.908H143.753V27.594H144.425V28.672H142.661V28H141.989V27.314H141.303V26.642H140.351V27.314H139.679V28H138.993V28.672H137.229ZM144.705 28.672V18.088H146.469V28.672H144.705ZM147.715 29.372V24.878H149.493V26.236H154.505V24.878H156.283V29.372H147.715ZM154.505 28.28V27.328H149.493V28.28H154.505ZM147.715 24.612V23.52H156.283V24.612H147.715ZM154.505 23.254V19.18H147.715V18.088H156.283V23.254H154.505ZM158.889 29.372V24.878H160.653V26.236H165.007V24.878H166.771V29.372H158.889ZM165.007 28.28V27.328H160.653V28.28H165.007ZM157.531 24.612V23.52H160.247V22.582H157.531V18.088H164.055V19.18H159.295V21.49H164.055V22.582H162.011V23.52H164.727V24.612H157.531ZM165.007 24.612V18.088H166.771V24.612H165.007ZM168.031 28.672V18.088H169.795V27.594H174.555V28.672H168.031ZM175.507 28.672V18.088H177.271V28.672H175.507ZM178.559 28.672V18.088H185.083V19.166H180.337V27.594H185.769V28.672H178.559ZM186.035 28.672V18.088H187.799V22.162H189.843V23.24H187.799V28.672H186.035ZM190.314 28.098V25.662H192.078V28.098H190.314Z" fill="#C3E2FF"/>
<path d="M54.3794 29.372V26.656H48.2754V25.564H56.1434V29.372H54.3794ZM51.6634 25.298V21.896H48.9474V20.804H51.6634V18.088H53.4274V25.298H51.6634ZM54.3794 25.298V18.088H56.1434V25.298H54.3794ZM45.5594 24.612V18.088H47.3234V23.52H51.3974V24.612H45.5594ZM57.4119 29.372V25.564H59.1899V28.28H65.9799V29.372H57.4119ZM57.4119 25.298V24.206H65.9799V25.298H57.4119ZM57.4119 23.94V22.848H58.0979V22.162H58.7699V21.49H59.4559V20.804H60.1279V20.132H60.8139V18.088H62.5779V20.132H63.2639V20.804H63.9359V21.49H64.6219V22.162H65.2939V22.848H65.9799V23.94H64.2019V23.254H63.5299V22.582H62.8439V21.896H62.1719V21.224H61.2199V21.896H60.5479V22.582H59.8619V23.254H59.1899V23.94H57.4119ZM71.3306 28.672V23.926H67.2566V22.834H71.3306V19.166H67.2566V18.088H73.1086V28.672H71.3306ZM74.0466 28.672V18.088H75.8246V22.162H76.7626V18.088H78.5406V28.672H76.7626V23.24H75.8246V28.672H74.0466ZM79.8341 28.672V27.594H80.5201V26.908H81.1921V26.236H81.8781V25.55H82.5501V18.088H84.3141V25.55H85.0001V26.236H85.6721V26.908H86.3581V27.594H87.0301V28.672H85.2661V28H84.5941V27.314H83.9081V26.642H82.9561V27.314H82.2841V28H81.5981V28.672H79.8341ZM87.3101 28.672V18.088H89.0741V28.672H87.3101ZM94.4754 27.314V26.222H97.8634V23.24H94.4754V22.148H97.8634V19.838H94.4754V18.746H99.6274V27.314H94.4754ZM102.878 29.372V25.564H104.656V28.28H110.76V29.372H102.878ZM108.996 25.97V22.582H106.28V21.49H108.996V18.088H110.76V25.97H108.996ZM100.848 25.298V24.206H101.52V23.52H102.206V22.848H102.878V22.162H103.564V20.538H100.848V19.446H108.044V20.538H105.328V22.162H106.014V22.848H106.686V23.52H107.372V24.206H108.044V25.298H106.28V24.612H105.594V23.94H104.922V23.254H103.97V23.94H103.298V24.612H102.612V25.298H100.848ZM101.52 19.18V18.088H107.372V19.18H101.52ZM112.717 29.372V25.564H114.481V28.28H121.271V29.372H112.717ZM114.747 26.656V24.612H112.031V23.52H119.227V24.612H116.511V26.656H114.747ZM119.507 25.97V21.224H118.555V21.896H117.869V22.582H117.197V23.254H113.389V22.582H112.717V21.896H112.031V19.446H112.717V18.774H113.389V18.088H117.197V18.774H117.869V19.446H118.555V20.132H119.507V18.088H121.271V25.97H119.507ZM116.105 22.162V21.49H116.791V19.866H116.105V19.18H114.481V19.866H113.795V21.49H114.481V22.162H116.105Z" fill="#FED601"/>
</svg>
